<?xml version="1.0" standalone="no"?>
<!DOCTYPE svg PUBLIC "-//W3C//DTD SVG 20010904//EN"
 "http://www.w3.org/TR/2001/REC-SVG-20010904/DTD/svg10.dtd">
<svg version="1.0" xmlns="http://www.w3.org/2000/svg"
 width="944.000000pt" height="944.000000pt" viewBox="0 0 944.000000 944.000000"
 preserveAspectRatio="xMidYMid meet">
<metadata>
Created by potrace 1.16, written by Peter Selinger 2001-2019
</metadata>
<g transform="translate(0.000000,944.000000) scale(0.100000,-0.100000)"
fill="#000000" stroke="none">
<path d="M4430 9254 c-1329 -95 -2529 -743 -3330 -1799 -1008 -1328 -1200
-3125 -496 -4645 311 -670 796 -1270 1386 -1714 247 -186 437 -304 711 -440
481 -241 967 -383 1539 -453 206 -25 764 -25 970 0 851 103 1583 392 2235 882
1649 1238 2257 3400 1498 5320 -298 754 -828 1447 -1483 1939 -247 186 -437
304 -711 440 -479 239 -971 384 -1529 451 -129 16 -657 28 -790 19z m-1065
-2025 c137 -43 266 -151 374 -315 l67 -101 69 24 c323 111 731 162 1060 134
223 -20 378 -51 599 -119 113 -34 120 -35 130 -18 130 215 260 338 420 394 94
34 228 34 331 2 105 -32 864 -420 1200 -613 422 -241 698 -456 771 -598 26
-52 27 -57 21 -174 -9 -185 -62 -422 -245 -1100 -50 -182 -98 -369 -107 -415
-28 -135 -21 -170 72 -365 124 -263 143 -331 101 -379 -20 -24 -33 -29 -88
-33 -77 -6 -270 18 -430 53 -253 56 -524 165 -699 281 -95 63 -227 191 -253
244 -42 87 -111 243 -133 303 -56 148 -66 209 -70 421 -12 558 -101 1238 -210
1600 -89 297 -214 455 -360 455 -77 0 -203 -96 -189 -143 7 -25 31 -47 51 -47
7 0 27 13 45 29 75 64 119 68 178 15 96 -87 172 -288 245 -644 69 -341 135
-984 135 -1328 0 -190 36 -329 145 -560 l54 -112 -15 -49 c-59 -200 -94 -416
-104 -654 -11 -239 -28 -366 -70 -523 -105 -395 -322 -664 -569 -706 -99 -17
-193 5 -336 77 -134 67 -253 151 -236 168 25 25 8 64 -83 201 -112 168 -233
322 -309 393 -47 43 -59 61 -77 120 -26 84 -70 331 -70 393 0 25 -5 51 -11 57
-7 7 16 12 78 17 404 33 693 196 693 394 0 148 -195 286 -500 355 -81 18 -127
21 -315 21 -188 0 -234 -3 -315 -21 -305 -69 -500 -207 -500 -355 0 -63 20
-107 76 -167 111 -121 340 -205 617 -227 62 -5 85 -10 78 -17 -6 -6 -11 -32
-11 -57 0 -62 -44 -309 -70 -393 -18 -59 -30 -77 -77 -120 -76 -71 -197 -225
-309 -393 -91 -136 -108 -176 -83 -201 15 -15 -117 -108 -246 -173 -182 -91
-303 -100 -449 -32 -153 72 -314 282 -400 522 -71 197 -101 376 -116 690 -10
218 -19 284 -77 532 l-36 157 50 108 c107 229 143 367 143 555 0 236 37 698
81 1003 77 535 176 858 299 969 59 53 103 49 178 -15 18 -16 38 -29 45 -29 20
0 44 22 51 47 14 47 -112 143 -189 143 -95 0 -199 -84 -268 -217 -162 -311
-292 -1148 -304 -1960 -2 -124 -56 -292 -166 -521 -41 -86 -64 -118 -126 -182
-207 -210 -546 -364 -971 -440 -133 -24 -300 -36 -354 -26 -53 10 -76 37 -76
89 0 59 27 134 115 317 99 206 103 224 81 336 -9 49 -66 276 -126 504 -169
641 -222 894 -224 1065 -1 121 11 150 112 256 193 205 527 419 1197 766 408
212 587 300 655 323 127 43 238 45 355 9z m1418 -4206 c9 -18 33 -44 53 -59
66 -51 314 -369 340 -437 4 -10 -16 -21 -73 -40 -139 -45 -228 -60 -378 -60
-150 0 -239 15 -378 60 -57 19 -77 30 -73 40 27 69 274 387 341 438 40 30 76
97 96 180 l13 50 21 -70 c12 -39 29 -84 38 -102z"/>
<path d="M3604 5136 c-41 -18 -82 -73 -100 -132 -18 -62 -18 -180 1 -235 43
-121 143 -172 226 -116 69 47 102 125 101 242 -1 179 -109 293 -228 241z"/>
<path d="M5724 5131 c-66 -40 -105 -128 -106 -236 -1 -117 32 -195 101 -242
83 -56 183 -5 226 116 19 55 19 173 1 235 -36 119 -139 178 -222 127z"/>
</g>
</svg>
