<?xml version="1.0" standalone="no"?>
<!DOCTYPE svg PUBLIC "-//W3C//DTD SVG 20010904//EN"
 "http://www.w3.org/TR/2001/REC-SVG-20010904/DTD/svg10.dtd">
<svg version="1.0" xmlns="http://www.w3.org/2000/svg"
 width="128.000000pt" height="128.000000pt" viewBox="0 0 128.000000 128.000000"
 preserveAspectRatio="xMidYMid meet">
<metadata>
Created by potrace 1.16, written by Peter Selinger 2001-2019
</metadata>
<g transform="translate(0.000000,128.000000) scale(0.100000,-0.100000)"
fill="#000000" stroke="none">
<path d="M72 1260 c-18 -11 -41 -34 -52 -52 -19 -32 -20 -52 -20 -568 0 -516
1 -536 20 -568 11 -18 34 -41 52 -52 31 -19 51 -20 301 -20 l267 0 0 220 0
220 -80 0 -80 0 0 100 0 100 79 0 79 0 4 118 c3 112 5 122 33 168 19 30 49 60
79 79 46 28 56 30 168 33 l118 4 0 -100 0 -100 -71 -4 c-47 -2 -73 -8 -79 -18
-6 -8 -10 -52 -10 -97 l0 -83 101 0 c92 0 101 -2 95 -18 -4 -9 -21 -54 -39
-99 l-32 -83 -62 0 -63 0 0 -220 0 -220 148 0 c165 0 193 9 232 72 19 32 20
52 20 568 0 516 -1 536 -20 568 -11 18 -34 41 -52 52 -32 19 -52 20 -568 20
-516 0 -536 -1 -568 -20z"/>
</g>
</svg>
