<svg id="svg" version="1.1" xmlns="http://www.w3.org/2000/svg" xmlns:xlink="http://www.w3.org/1999/xlink" width="400" height="400" viewBox="0, 0, 400,400"><g id="svgg"><path id="path0" d="M17.600 0.600 C 17.600 0.930,17.409 1.200,17.176 1.200 C 16.943 1.200,16.875 1.398,17.025 1.640 C 17.222 1.959,17.070 1.959,16.473 1.639 C 15.871 1.317,15.574 1.318,15.374 1.642 C 15.183 1.952,14.997 1.922,14.756 1.543 C 14.487 1.119,14.411 1.113,14.406 1.518 C 14.403 1.802,14.089 1.982,13.709 1.918 C 13.052 1.806,12.968 1.954,12.850 3.424 C 12.822 3.767,12.612 3.931,12.382 3.789 C 12.153 3.647,11.668 3.772,11.306 4.066 C 10.929 4.371,10.766 4.401,10.925 4.135 C 11.099 3.845,10.948 3.708,10.524 3.770 C 9.757 3.883,9.282 4.800,9.990 4.800 C 10.242 4.800,10.341 4.972,10.211 5.183 C 10.081 5.393,9.681 5.452,9.322 5.315 C 8.885 5.147,8.765 5.219,8.958 5.532 C 9.117 5.789,9.070 6.000,8.854 6.000 C 8.305 6.000,6.001 8.360,5.994 8.931 C 5.990 9.240,5.873 9.218,5.649 8.866 C 5.154 8.084,4.902 8.108,4.248 9.000 C 3.727 9.710,3.737 9.887,4.331 10.569 C 4.763 11.065,4.801 11.220,4.437 11.006 C 4.004 10.751,3.926 10.874,4.100 11.537 C 4.224 12.012,4.151 12.400,3.939 12.400 C 3.727 12.400,3.641 12.542,3.748 12.716 C 3.856 12.890,3.327 12.961,2.572 12.873 C 1.382 12.734,1.200 12.827,1.200 13.580 C 1.200 14.057,1.380 14.336,1.600 14.200 C 1.820 14.064,2.000 14.143,2.000 14.376 C 2.000 14.609,1.820 14.800,1.600 14.800 C 1.380 14.800,1.200 15.070,1.200 15.400 C 1.200 15.730,0.930 16.000,0.600 16.000 C 0.068 16.000,0.000 36.711,0.000 200.000 C 0.000 359.442,0.076 384.000,0.573 384.000 C 0.888 384.000,1.259 384.355,1.397 384.790 C 1.535 385.224,2.187 385.964,2.847 386.433 C 3.506 386.903,3.957 387.376,3.849 387.485 C 3.740 387.593,3.806 388.091,3.996 388.590 C 4.221 389.182,4.177 389.676,3.871 390.008 C 3.507 390.401,3.514 390.453,3.900 390.235 C 4.202 390.065,4.400 390.187,4.400 390.543 C 4.400 390.868,4.175 391.225,3.900 391.337 C 3.625 391.449,3.875 391.516,4.455 391.487 C 5.203 391.449,5.446 391.263,5.287 390.851 C 5.144 390.476,5.231 390.372,5.532 390.558 C 5.789 390.717,6.000 391.098,6.000 391.404 C 6.000 391.710,6.315 392.144,6.700 392.368 C 7.344 392.743,7.336 392.778,6.600 392.810 C 6.074 392.833,6.280 393.016,7.200 393.342 C 7.970 393.615,8.555 394.055,8.500 394.320 C 8.445 394.584,8.580 394.800,8.800 394.800 C 9.020 394.800,9.179 394.935,9.153 395.100 C 9.015 395.972,9.346 396.208,10.825 396.294 C 12.022 396.363,12.767 396.705,13.655 397.594 C 14.527 398.466,15.241 398.800,16.231 398.800 C 17.181 398.800,17.600 398.984,17.600 399.400 C 17.600 399.932,38.156 400.000,200.200 400.000 C 381.933 400.000,382.800 399.996,382.800 399.208 C 382.800 398.563,383.024 398.442,384.000 398.555 C 384.660 398.632,385.200 398.517,385.200 398.299 C 385.200 398.067,385.430 398.093,385.753 398.361 C 386.282 398.800,386.850 398.193,386.965 397.063 C 387.008 396.648,390.000 395.581,390.000 395.980 C 390.000 396.138,390.240 396.267,390.533 396.267 C 390.827 396.267,391.067 396.035,391.067 395.751 C 391.067 395.467,390.917 395.328,390.733 395.441 C 390.550 395.555,390.400 395.436,390.400 395.177 C 390.400 394.914,390.731 394.793,391.149 394.903 C 391.726 395.053,391.853 394.926,391.703 394.349 C 391.569 393.839,391.719 393.600,392.172 393.600 C 392.538 393.600,393.144 393.061,393.519 392.403 C 393.893 391.744,394.346 391.204,394.524 391.203 C 394.702 391.201,394.746 391.364,394.622 391.565 C 394.342 392.017,395.461 391.884,395.888 391.414 C 396.060 391.226,395.974 391.202,395.697 391.361 C 395.404 391.530,395.095 391.391,394.955 391.028 C 394.824 390.685,394.510 390.506,394.258 390.630 C 394.006 390.753,394.405 390.318,395.144 389.661 C 395.884 389.005,396.397 388.317,396.286 388.134 C 396.174 387.950,396.544 387.454,397.107 387.032 C 397.671 386.609,397.984 386.502,397.804 386.793 C 397.599 387.126,397.632 387.228,397.893 387.066 C 398.122 386.925,398.428 386.177,398.573 385.404 C 398.731 384.563,399.069 384.000,399.418 384.000 C 399.926 384.000,400.000 360.747,400.000 200.047 L 400.000 16.093 399.164 15.875 C 398.524 15.707,398.391 15.458,398.597 14.809 C 398.952 13.690,398.120 12.708,397.093 13.034 C 396.600 13.191,396.396 13.131,396.554 12.875 C 396.693 12.649,396.524 12.181,396.178 11.835 C 395.832 11.489,395.652 11.039,395.778 10.835 C 395.904 10.631,395.723 10.180,395.375 9.832 C 395.027 9.485,394.880 9.200,395.048 9.200 C 395.216 9.200,395.005 8.946,394.581 8.635 C 394.156 8.325,393.696 8.141,393.557 8.226 C 393.419 8.312,393.327 7.981,393.353 7.491 C 393.387 6.851,393.203 6.633,392.700 6.718 C 392.277 6.789,392.000 6.583,392.000 6.198 C 392.000 5.207,390.009 3.600,388.781 3.600 C 387.981 3.600,387.441 3.243,386.814 2.300 C 386.040 1.138,385.973 1.106,386.176 2.000 C 386.396 2.965,386.388 2.969,385.952 2.125 C 385.589 1.422,385.234 1.283,384.150 1.422 C 383.010 1.568,382.800 1.471,382.800 0.798 C 382.800 0.002,382.346 0.000,200.200 0.000 C 38.156 0.000,17.600 0.068,17.600 0.600 M86.199 57.201 C 85.923 57.648,87.118 57.553,87.900 57.065 C 88.220 56.865,88.400 56.978,88.400 57.376 C 88.400 57.733,88.742 58.000,89.200 58.000 C 89.640 58.000,90.003 57.775,90.006 57.500 C 90.010 57.167,90.142 57.200,90.400 57.600 C 90.745 58.133,90.789 58.133,90.800 57.600 C 90.810 57.118,90.879 57.105,91.151 57.534 C 91.616 58.269,91.778 58.282,92.539 57.651 C 92.902 57.349,93.200 57.266,93.200 57.465 C 93.200 57.665,93.560 57.829,94.000 57.829 C 94.440 57.829,94.800 57.677,94.800 57.491 C 94.800 57.305,94.979 57.263,95.197 57.398 C 95.416 57.533,96.356 57.736,97.288 57.848 C 99.222 58.081,100.134 58.674,99.819 59.494 C 99.659 59.912,99.890 60.030,100.701 59.945 C 101.306 59.881,102.053 59.986,102.362 60.177 C 102.769 60.428,102.835 60.380,102.600 60.000 C 102.364 59.619,102.429 59.573,102.838 59.832 C 103.147 60.028,103.580 60.191,103.800 60.195 C 104.020 60.199,104.201 60.547,104.202 60.968 C 104.203 61.390,104.473 61.808,104.802 61.898 C 105.278 62.028,105.291 61.985,104.866 61.686 C 104.451 61.394,104.517 61.263,105.167 61.093 C 105.626 60.973,105.903 61.033,105.784 61.226 C 105.164 62.229,108.166 64.800,109.957 64.800 C 110.394 64.800,110.881 65.008,111.038 65.262 C 111.206 65.533,111.149 65.616,110.899 65.461 C 110.621 65.289,110.632 65.533,110.933 66.169 C 111.241 66.823,111.490 66.986,111.695 66.670 C 112.024 66.163,112.782 66.979,112.794 67.851 C 112.797 68.099,113.105 68.549,113.477 68.851 C 113.937 69.224,114.057 69.240,113.853 68.900 C 113.688 68.625,113.737 68.400,113.962 68.400 C 114.537 68.400,115.105 69.633,115.013 70.683 C 114.971 71.169,115.176 71.659,115.468 71.771 C 115.761 71.883,116.000 72.171,116.000 72.411 C 116.000 72.651,115.820 72.736,115.600 72.600 C 115.380 72.464,115.200 72.543,115.200 72.776 C 115.200 73.009,115.650 73.200,116.200 73.200 C 117.000 73.200,117.200 73.400,117.200 74.200 C 117.200 75.602,117.238 75.680,118.478 76.812 C 119.381 77.637,119.616 78.240,119.746 80.075 C 119.834 81.313,120.028 82.522,120.177 82.763 C 120.326 83.003,120.212 83.214,119.924 83.232 C 119.557 83.254,119.578 83.333,119.993 83.496 C 121.550 84.107,121.738 84.780,121.769 89.841 C 121.797 94.309,121.731 94.800,121.100 94.800 C 120.715 94.800,120.400 95.070,120.400 95.400 C 120.400 95.730,120.207 96.000,119.971 96.000 C 119.736 96.000,119.826 96.283,120.171 96.629 C 120.872 97.329,121.010 97.777,120.412 97.407 C 120.027 97.169,119.671 98.260,119.630 99.800 C 119.547 102.917,119.528 103.024,119.196 102.200 C 118.906 101.480,118.826 101.529,118.398 102.700 C 118.136 103.414,117.775 103.908,117.596 103.798 C 117.220 103.565,117.314 104.647,117.703 105.037 C 117.846 105.180,117.270 105.950,116.423 106.748 C 115.575 107.547,114.817 108.560,114.737 109.000 C 114.653 109.465,114.217 109.854,113.696 109.928 C 113.203 109.998,112.800 110.324,112.800 110.651 C 112.800 110.979,112.656 111.158,112.481 111.050 C 112.094 110.811,111.598 111.144,110.800 112.177 C 110.443 112.639,110.403 112.832,110.700 112.653 C 110.975 112.488,111.200 112.524,111.200 112.734 C 111.200 113.297,110.209 113.576,109.583 113.189 C 108.770 112.687,108.342 113.144,108.808 114.015 C 109.127 114.611,109.097 114.735,108.673 114.573 C 108.373 114.458,107.874 114.687,107.564 115.082 C 107.050 115.737,107.062 115.752,107.700 115.251 C 108.111 114.929,108.400 114.876,108.400 115.124 C 108.400 115.356,108.040 115.660,107.600 115.800 C 107.159 115.940,106.619 116.392,106.398 116.804 C 106.152 117.264,105.685 117.493,105.188 117.398 C 104.743 117.312,103.619 117.593,102.689 118.022 C 101.760 118.450,101.423 118.693,101.939 118.561 C 102.854 118.327,102.860 118.341,102.139 119.068 C 101.687 119.525,100.881 119.799,100.062 119.774 C 99.316 119.751,98.637 119.958,98.529 120.241 C 98.419 120.527,98.042 120.640,97.667 120.500 C 97.095 120.286,97.075 120.343,97.530 120.903 C 97.984 121.461,97.955 121.559,97.330 121.584 C 96.929 121.600,94.530 121.656,92.000 121.709 C 89.470 121.763,87.175 121.950,86.900 122.127 C 86.625 122.303,86.400 122.296,86.400 122.112 C 86.400 121.928,85.725 121.796,84.900 121.820 C 82.854 121.879,82.018 121.620,82.255 121.001 C 82.365 120.715,82.234 120.345,81.965 120.179 C 81.668 119.995,81.579 120.043,81.739 120.301 C 81.904 120.568,81.703 120.648,81.201 120.516 C 80.760 120.401,80.400 120.083,80.400 119.808 C 80.400 119.359,77.727 119.340,77.280 119.786 C 76.853 120.213,74.833 119.039,74.724 118.300 C 74.656 117.840,74.350 117.380,74.044 117.279 C 73.666 117.155,73.589 117.273,73.803 117.648 C 74.057 118.094,74.014 118.104,73.579 117.700 C 73.282 117.425,72.716 117.200,72.320 117.200 C 71.924 117.200,71.600 117.009,71.600 116.776 C 71.600 116.543,71.420 116.464,71.200 116.600 C 70.980 116.736,70.800 116.487,70.800 116.047 C 70.800 115.484,70.581 115.288,70.063 115.388 C 69.658 115.466,69.090 115.202,68.801 114.801 C 68.512 114.401,68.079 114.117,67.838 114.171 C 67.597 114.225,67.535 114.193,67.700 114.101 C 67.865 114.009,68.000 113.758,68.000 113.543 C 68.000 113.328,67.820 113.264,67.600 113.400 C 67.380 113.536,67.200 113.367,67.200 113.024 C 67.200 112.681,66.908 112.400,66.551 112.400 C 65.993 112.400,65.979 112.307,66.451 111.736 C 66.944 111.139,66.888 111.092,65.909 111.278 C 64.862 111.477,64.042 110.537,64.331 109.470 C 64.380 109.289,64.232 109.256,64.003 109.398 C 63.774 109.539,63.691 109.823,63.817 110.028 C 64.206 110.657,63.730 110.440,63.149 109.723 C 62.776 109.263,62.760 109.143,63.100 109.347 C 63.375 109.512,63.600 109.457,63.600 109.224 C 63.600 108.991,63.352 108.800,63.049 108.800 C 62.745 108.800,62.273 108.260,62.000 107.600 C 61.727 106.940,61.269 106.400,60.983 106.400 C 60.421 106.400,59.793 104.259,60.174 103.642 C 60.302 103.434,60.147 103.004,59.829 102.687 C 59.454 102.312,59.384 101.950,59.629 101.658 C 59.837 101.410,59.891 101.289,59.750 101.390 C 58.979 101.941,57.853 99.369,57.811 96.961 C 57.786 95.571,57.610 94.291,57.419 94.117 C 57.228 93.942,57.201 94.025,57.359 94.300 C 57.518 94.575,57.457 94.800,57.224 94.800 C 56.667 94.800,56.679 94.122,57.243 93.774 C 57.552 93.582,57.522 93.385,57.143 93.120 C 56.721 92.824,56.711 92.694,57.100 92.536 C 57.375 92.425,57.600 92.158,57.600 91.943 C 57.600 91.728,57.422 91.663,57.205 91.797 C 56.978 91.937,56.911 91.777,57.047 91.421 C 57.203 91.015,57.058 90.800,56.630 90.800 C 55.559 90.800,55.397 89.618,56.374 88.933 C 56.875 88.582,57.158 88.067,57.031 87.738 C 56.907 87.414,56.984 87.266,57.205 87.403 C 57.422 87.537,57.600 87.457,57.600 87.224 C 57.600 86.991,57.285 86.786,56.900 86.768 C 56.515 86.751,56.415 86.649,56.678 86.543 C 56.940 86.436,57.056 86.090,56.935 85.774 C 56.814 85.458,56.936 85.200,57.206 85.200 C 57.592 85.200,57.591 85.071,57.200 84.600 C 56.872 84.204,56.851 84.000,57.138 84.000 C 57.379 84.000,57.471 83.730,57.345 83.400 C 57.218 83.070,57.279 82.800,57.480 82.800 C 57.682 82.800,57.814 81.945,57.775 80.900 C 57.700 78.879,58.192 77.424,58.820 77.812 C 59.029 77.942,59.200 77.767,59.200 77.424 C 59.200 77.081,59.506 76.800,59.880 76.800 C 60.378 76.800,60.441 76.681,60.116 76.356 C 59.258 75.498,60.742 72.569,61.833 72.966 C 62.072 73.053,62.267 72.879,62.267 72.579 C 62.267 72.280,62.117 72.128,61.933 72.241 C 61.386 72.580,61.580 71.857,62.267 71.000 C 62.787 70.350,62.862 70.331,62.666 70.900 C 62.534 71.285,62.599 71.600,62.813 71.600 C 63.026 71.600,63.200 71.426,63.200 71.213 C 63.200 70.999,63.501 70.941,63.869 71.082 C 64.361 71.271,64.476 71.174,64.301 70.718 C 64.170 70.377,64.273 69.885,64.531 69.625 C 64.891 69.263,64.821 69.221,64.231 69.446 C 63.366 69.775,63.137 70.082,66.247 66.740 C 68.106 64.743,69.179 63.952,69.928 64.026 C 71.421 64.173,71.854 64.024,71.200 63.586 C 70.448 63.083,71.721 61.918,72.639 62.270 C 73.011 62.413,73.200 62.202,73.200 61.643 C 73.200 61.179,73.391 60.800,73.624 60.800 C 73.857 60.800,73.949 60.641,73.828 60.446 C 73.708 60.251,74.102 59.997,74.704 59.882 C 75.306 59.767,75.908 59.852,76.043 60.070 C 76.184 60.297,76.389 60.205,76.523 59.855 C 76.699 59.398,77.040 59.321,77.879 59.550 C 78.723 59.781,79.173 59.676,79.700 59.128 C 80.384 58.417,80.143 58.104,79.372 58.700 C 79.158 58.865,79.417 58.613,79.948 58.140 C 80.732 57.441,81.114 57.351,81.999 57.659 C 83.215 58.084,84.056 57.996,84.494 57.400 C 84.673 57.156,84.790 57.207,84.794 57.529 C 84.798 57.925,84.957 57.900,85.429 57.429 C 86.135 56.722,86.576 56.592,86.199 57.201 M277.024 147.001 C 277.788 147.593,277.788 147.599,277.000 147.371 C 276.269 147.160,276.261 147.179,276.908 147.594 C 277.298 147.845,277.514 148.216,277.388 148.420 C 277.262 148.624,277.437 148.684,277.777 148.554 C 278.117 148.423,278.307 148.174,278.200 148.000 C 278.093 147.826,278.261 147.585,278.575 147.465 C 278.954 147.319,279.101 147.474,279.014 147.928 C 278.879 148.631,280.970 148.837,281.969 148.219 C 282.206 148.073,282.400 148.142,282.400 148.374 C 282.400 148.819,283.786 148.747,284.256 148.277 C 284.658 147.876,285.286 147.936,285.030 148.352 C 284.910 148.546,286.542 148.680,288.678 148.652 C 292.453 148.601,293.600 148.927,293.600 150.052 C 293.600 150.269,293.766 150.344,293.970 150.219 C 294.173 150.093,294.416 150.307,294.509 150.695 C 294.649 151.280,294.752 151.230,295.114 150.400 C 295.455 149.616,295.555 149.560,295.575 150.143 C 295.591 150.634,295.803 150.808,296.200 150.655 C 296.530 150.529,296.800 150.583,296.800 150.775 C 296.800 150.968,297.161 151.031,297.602 150.915 C 298.043 150.800,298.708 150.952,299.079 151.253 C 299.653 151.718,299.703 151.716,299.415 151.238 C 299.182 150.852,299.224 150.768,299.549 150.968 C 299.809 151.129,299.971 151.559,299.911 151.925 C 299.824 152.443,300.328 152.691,302.200 153.051 C 303.520 153.305,304.437 153.532,304.238 153.556 C 303.254 153.675,305.373 155.108,306.424 155.036 C 307.071 154.991,307.600 155.099,307.600 155.277 C 307.600 155.455,307.889 155.600,308.243 155.600 C 308.681 155.600,308.808 155.823,308.642 156.300 C 308.420 156.937,308.448 156.935,308.962 156.275 C 309.487 155.598,309.544 155.632,309.794 156.775 C 310.054 157.958,310.902 158.406,311.389 157.617 C 311.750 157.034,312.695 157.554,312.934 158.468 C 313.051 158.915,313.338 159.162,313.573 159.017 C 313.808 158.872,314.000 159.033,314.000 159.376 C 314.000 159.733,314.342 160.000,314.800 160.000 C 315.240 160.000,315.562 160.135,315.515 160.300 C 315.316 161.003,316.489 162.451,317.075 162.226 C 317.505 162.061,317.620 162.172,317.457 162.595 C 317.250 163.136,317.644 163.383,318.500 163.247 C 318.665 163.221,318.800 163.571,318.800 164.024 C 318.800 164.477,318.979 164.737,319.197 164.602 C 319.415 164.467,319.910 164.560,320.297 164.809 C 320.961 165.235,320.960 165.248,320.280 165.035 C 319.587 164.818,319.587 164.856,320.280 166.034 C 320.786 166.894,321.038 167.071,321.129 166.630 C 321.245 166.066,321.326 166.068,321.914 166.657 C 322.769 167.512,322.885 168.400,322.141 168.400 C 321.817 168.400,321.649 168.556,321.767 168.746 C 321.884 168.936,322.435 169.042,322.990 168.981 C 323.546 168.920,324.023 169.035,324.050 169.235 C 324.078 169.436,324.123 169.960,324.150 170.400 C 324.178 170.840,324.290 171.170,324.400 171.132 C 324.959 170.943,326.400 172.124,326.400 172.771 C 326.400 173.180,326.681 173.622,327.025 173.754 C 327.369 173.886,327.555 174.149,327.438 174.338 C 327.321 174.527,327.503 175.024,327.842 175.441 C 328.182 175.858,328.353 175.987,328.223 175.728 C 328.093 175.468,328.146 175.157,328.341 175.036 C 328.536 174.916,328.674 175.399,328.648 176.109 C 328.617 176.931,328.777 177.365,329.089 177.304 C 329.440 177.235,329.478 177.469,329.224 178.137 C 329.018 178.679,329.020 179.303,329.229 179.633 C 329.436 179.961,329.590 180.007,329.594 179.743 C 329.597 179.491,329.874 179.180,330.209 179.052 C 330.704 178.862,330.740 178.964,330.400 179.600 C 330.060 180.235,330.096 180.338,330.589 180.149 C 331.090 179.957,331.172 180.238,331.056 181.746 C 330.917 183.530,331.888 186.000,332.727 186.000 C 333.111 186.000,333.128 186.091,333.369 189.400 C 333.533 191.662,334.291 194.872,334.366 193.624 C 334.469 191.883,335.458 194.784,335.431 196.750 C 335.406 198.530,335.567 199.143,336.200 199.684 C 336.989 200.359,336.986 200.366,336.000 200.199 C 335.083 200.045,335.060 200.076,335.716 200.571 C 336.357 201.055,336.368 201.175,335.822 201.720 C 335.277 202.266,335.337 202.462,336.399 203.599 C 337.575 204.858,337.585 204.910,337.688 210.134 C 337.745 213.030,337.935 215.505,338.111 215.633 C 338.287 215.761,338.248 216.346,338.025 216.933 C 337.748 217.663,337.751 218.000,338.034 218.000 C 338.265 218.000,338.309 218.221,338.134 218.500 C 337.714 219.170,337.712 220.093,338.128 220.682 C 338.316 220.948,338.352 221.354,338.209 221.585 C 338.066 221.816,338.231 222.114,338.575 222.246 C 339.362 222.548,339.389 223.067,338.618 223.067 C 338.297 223.067,338.144 222.872,338.276 222.633 C 338.409 222.395,338.266 222.447,337.959 222.750 C 337.526 223.176,337.513 223.341,337.900 223.483 C 338.175 223.584,338.400 223.842,338.400 224.057 C 338.400 224.272,338.175 224.312,337.900 224.147 C 337.569 223.948,337.588 224.079,337.957 224.533 C 338.263 224.910,338.401 225.332,338.263 225.470 C 338.125 225.608,338.307 225.936,338.667 226.199 C 339.186 226.579,339.213 226.744,338.799 227.001 C 338.431 227.228,338.372 227.168,338.600 226.800 C 338.819 226.446,338.768 226.373,338.442 226.574 C 338.071 226.803,338.080 227.018,338.481 227.512 C 338.813 227.923,338.830 228.052,338.528 227.870 C 338.268 227.714,337.942 227.770,337.804 227.993 C 337.666 228.217,337.795 228.400,338.091 228.400 C 338.387 228.400,338.629 228.740,338.629 229.155 C 338.629 229.605,338.421 229.830,338.114 229.712 C 337.365 229.424,337.485 230.025,338.300 230.643 C 338.685 230.935,338.794 231.180,338.543 231.187 C 338.291 231.194,337.974 231.490,337.838 231.845 C 337.660 232.309,337.763 232.423,338.205 232.254 C 338.712 232.059,338.742 232.160,338.381 232.835 C 337.894 233.746,338.466 234.800,339.449 234.800 C 339.914 234.800,340.000 242.869,340.000 286.600 L 340.000 338.400 311.400 338.400 L 282.800 338.400 282.773 287.900 C 282.736 221.035,282.753 223.467,282.331 222.936 C 282.100 222.646,282.119 222.374,282.381 222.212 C 282.611 222.069,282.797 221.738,282.794 221.476 C 282.790 221.177,282.652 221.214,282.424 221.574 C 282.114 222.064,281.963 222.067,281.394 221.595 C 280.775 221.082,280.775 221.008,281.388 220.559 C 281.811 220.250,281.896 219.983,281.624 219.815 C 281.391 219.671,281.200 219.773,281.200 220.043 C 281.200 220.313,281.081 220.414,280.935 220.269 C 280.790 220.123,280.654 218.968,280.633 217.702 C 280.612 216.436,280.433 215.147,280.236 214.838 C 279.988 214.451,280.020 214.365,280.338 214.562 C 280.592 214.719,280.800 214.657,280.800 214.424 C 280.800 214.191,280.429 214.000,279.976 214.000 C 279.523 214.000,279.256 213.832,279.383 213.628 C 279.509 213.423,279.430 213.142,279.207 213.004 C 278.983 212.866,278.795 212.988,278.788 213.276 C 278.781 213.585,278.601 213.499,278.350 213.067 C 278.115 212.664,278.039 211.719,278.180 210.967 C 278.346 210.081,278.281 209.600,277.995 209.600 C 277.752 209.600,277.658 209.429,277.788 209.220 C 278.060 208.779,276.630 207.904,276.253 208.281 C 276.011 208.523,275.837 207.777,275.968 207.055 C 276.002 206.865,275.708 206.458,275.315 206.149 C 274.876 205.805,274.811 205.629,275.147 205.694 C 275.448 205.752,275.748 205.475,275.815 205.078 C 275.912 204.495,275.826 204.447,275.368 204.827 C 274.831 205.272,274.618 205.058,274.775 204.232 C 274.814 204.030,274.530 204.120,274.146 204.432 C 273.690 204.802,273.552 204.824,273.749 204.497 C 273.943 204.173,273.732 203.875,273.157 203.662 C 272.568 203.444,272.423 203.233,272.732 203.042 C 272.989 202.883,273.197 202.538,273.194 202.276 C 273.190 201.990,273.033 202.039,272.800 202.400 C 272.471 202.909,272.411 202.890,272.406 202.276 C 272.403 201.878,272.220 201.664,272.000 201.800 C 271.780 201.936,271.600 201.842,271.600 201.590 C 271.600 201.339,271.397 201.201,271.148 201.284 C 270.900 201.367,270.193 200.932,269.579 200.317 C 268.762 199.501,268.049 199.192,266.931 199.172 C 265.797 199.151,265.602 199.065,266.179 198.839 C 266.912 198.552,266.904 198.520,266.038 198.294 C 265.444 198.139,265.226 197.881,265.422 197.564 C 265.638 197.215,265.478 197.139,264.863 197.300 C 264.348 197.434,263.998 197.339,263.994 197.063 C 263.990 196.804,263.817 196.864,263.600 197.200 C 263.387 197.530,263.209 197.620,263.206 197.400 C 263.202 197.180,262.011 196.977,260.553 196.948 C 258.921 196.916,257.788 196.704,257.598 196.397 C 257.428 196.122,257.119 196.003,256.911 196.131 C 256.703 196.260,256.533 196.111,256.533 195.800 C 256.533 195.489,256.711 195.345,256.928 195.479 C 257.157 195.621,257.196 195.518,257.021 195.235 C 256.855 194.966,256.467 194.842,256.160 194.960 C 255.852 195.078,255.597 194.956,255.594 194.687 C 255.590 194.378,255.444 194.419,255.194 194.800 C 254.844 195.333,254.756 195.333,254.406 194.800 C 254.158 194.422,254.010 194.380,254.006 194.686 C 254.003 194.953,253.613 195.379,253.139 195.632 C 252.406 196.025,252.315 195.997,252.527 195.447 C 252.797 194.742,252.612 194.695,251.403 195.167 C 250.928 195.353,250.065 195.252,249.267 194.919 C 248.530 194.611,248.036 194.535,248.170 194.751 C 248.303 194.966,248.004 195.272,247.506 195.430 C 246.585 195.722,246.129 195.612,246.288 195.137 C 246.361 194.916,246.049 194.923,244.851 195.169 C 244.769 195.186,244.930 195.474,245.208 195.810 C 245.954 196.708,245.636 196.818,241.946 196.933 C 240.098 196.990,238.365 197.175,238.093 197.342 C 237.812 197.516,237.600 197.451,237.600 197.190 C 237.600 196.939,237.375 196.816,237.100 196.917 C 236.825 197.017,236.655 197.333,236.723 197.618 C 236.822 198.037,236.725 198.035,236.213 197.611 C 235.865 197.322,235.467 197.200,235.327 197.340 C 235.188 197.479,234.787 197.376,234.437 197.110 C 234.087 196.844,233.933 196.784,234.097 196.976 C 234.260 197.169,234.193 197.568,233.948 197.863 C 233.703 198.158,233.659 198.406,233.851 198.414 C 234.043 198.422,233.751 198.677,233.201 198.981 C 232.505 199.367,232.052 199.409,231.706 199.122 C 231.349 198.826,231.136 198.901,230.949 199.388 C 230.742 199.928,230.619 199.958,230.350 199.534 C 230.091 199.125,230.011 199.164,230.006 199.700 C 230.003 200.085,229.809 200.400,229.576 200.400 C 229.343 200.400,229.288 200.175,229.453 199.900 C 229.637 199.595,229.475 199.626,229.038 199.981 C 228.351 200.539,228.352 200.573,229.052 200.818 C 229.729 201.056,229.720 201.108,228.923 201.534 C 228.273 201.882,228.027 201.880,227.909 201.526 C 227.732 200.996,226.800 201.434,226.800 202.047 C 226.800 202.267,226.980 202.336,227.200 202.200 C 227.420 202.064,227.600 202.227,227.600 202.562 C 227.600 203.282,226.163 204.148,225.573 203.783 C 224.846 203.334,223.852 203.939,224.344 204.532 C 224.971 205.288,223.743 207.017,223.011 206.409 C 222.629 206.092,222.430 206.145,222.251 206.611 C 222.091 207.029,222.176 207.157,222.505 206.991 C 222.777 206.853,222.730 206.980,222.400 207.272 C 222.070 207.564,221.742 208.072,221.671 208.401 C 221.499 209.205,220.800 209.909,220.800 209.280 C 220.800 209.016,220.502 208.800,220.138 208.800 C 219.528 208.800,219.530 208.859,220.155 209.551 C 220.685 210.135,220.718 210.346,220.308 210.503 C 220.019 210.614,219.741 211.203,219.691 211.812 C 219.579 213.160,218.857 214.107,218.149 213.836 C 217.861 213.725,217.519 213.807,217.389 214.017 C 217.259 214.228,217.454 214.400,217.822 214.400 C 218.442 214.400,218.444 214.473,217.846 215.386 C 217.491 215.928,217.200 217.178,217.200 218.162 C 217.200 219.147,216.992 220.081,216.738 220.238 C 216.433 220.427,216.386 220.346,216.600 220.000 C 216.815 219.652,216.767 219.573,216.459 219.764 C 216.203 219.922,216.069 220.469,216.162 220.979 C 216.291 221.690,216.174 221.866,215.665 221.733 C 215.071 221.578,215.000 222.093,215.002 226.543 C 215.003 229.283,214.913 231.486,214.802 231.437 C 214.691 231.388,214.201 231.765,213.714 232.274 C 213.227 232.783,213.038 233.200,213.294 233.200 C 213.638 233.200,213.643 233.317,213.311 233.649 C 213.064 233.896,212.969 234.375,213.099 234.714 C 213.267 235.152,213.182 235.236,212.806 235.004 C 212.417 234.763,212.372 234.826,212.638 235.238 C 213.094 235.948,213.160 238.000,212.726 238.000 C 212.064 238.000,212.425 238.801,213.100 238.832 C 213.518 238.850,213.599 238.944,213.300 239.065 C 213.025 239.176,212.800 239.622,212.800 240.057 C 212.800 240.583,212.967 240.747,213.300 240.547 C 213.686 240.315,213.695 240.378,213.339 240.823 C 212.846 241.440,212.826 243.502,213.305 244.258 C 213.466 244.512,213.329 244.818,212.998 244.946 C 212.669 245.072,212.400 245.371,212.400 245.611 C 212.400 245.851,212.561 245.948,212.758 245.826 C 213.128 245.597,213.621 246.510,213.572 247.333 C 213.556 247.590,213.389 247.440,213.200 247.000 C 213.005 246.547,212.844 265.931,212.828 291.667 C 212.813 316.674,212.691 337.419,212.557 337.767 C 212.339 338.336,209.552 338.400,185.157 338.400 L 158.000 338.400 158.000 244.800 L 158.000 151.200 184.389 151.200 L 210.777 151.200 210.889 163.162 C 210.956 170.372,210.854 175.034,210.632 174.896 C 210.419 174.765,210.393 174.991,210.570 175.434 C 210.739 175.855,210.980 176.455,211.106 176.766 C 211.254 177.128,211.168 177.227,210.868 177.042 C 210.162 176.606,210.307 177.026,211.077 177.651 C 211.449 177.953,211.630 177.994,211.479 177.742 C 211.328 177.490,211.468 177.183,211.789 177.059 C 212.111 176.936,212.498 177.035,212.649 177.279 C 212.815 177.548,212.741 177.611,212.462 177.438 C 212.208 177.281,212.000 177.324,212.000 177.534 C 212.000 178.140,213.252 178.455,213.812 177.990 C 214.176 177.688,214.368 177.705,214.484 178.052 C 214.573 178.319,214.882 177.967,215.171 177.269 C 215.461 176.571,215.877 176.000,216.098 176.000 C 216.318 176.000,216.260 176.315,215.968 176.700 C 215.511 177.304,215.518 177.329,216.019 176.880 C 216.339 176.594,216.612 175.964,216.626 175.480 C 216.673 173.918,217.279 172.489,217.559 173.282 C 217.763 173.860,217.870 173.814,218.263 172.981 C 218.613 172.238,218.613 172.064,218.263 172.268 C 218.008 172.416,218.142 172.148,218.559 171.672 C 219.046 171.117,219.645 170.865,220.227 170.971 C 220.998 171.110,221.109 170.991,220.962 170.181 C 220.826 169.431,221.056 169.088,222.033 168.583 C 222.943 168.113,223.223 167.732,223.076 167.170 C 222.953 166.699,223.079 166.400,223.400 166.400 C 223.728 166.400,223.847 166.100,223.716 165.600 C 223.586 165.101,223.713 164.777,224.053 164.739 C 224.354 164.706,224.780 164.654,225.000 164.624 C 225.220 164.594,225.991 163.972,226.713 163.241 C 227.582 162.362,228.282 161.981,228.787 162.112 C 229.212 162.224,229.639 162.075,229.754 161.776 C 229.880 161.446,229.752 161.320,229.420 161.448 C 229.124 161.561,228.774 161.481,228.643 161.269 C 228.373 160.833,229.494 160.287,230.007 160.605 C 230.192 160.718,230.456 160.453,230.596 160.014 C 230.735 159.575,231.063 159.258,231.324 159.308 C 231.586 159.359,231.769 159.216,231.730 158.990 C 231.692 158.765,232.187 158.278,232.830 157.909 C 233.474 157.539,234.000 157.399,234.000 157.596 C 234.000 158.142,235.613 157.712,236.469 156.938 C 236.887 156.560,237.148 156.041,237.049 155.784 C 236.938 155.495,237.228 155.357,237.808 155.421 C 238.533 155.500,238.690 155.374,238.498 154.862 C 238.275 154.266,238.324 154.260,238.990 154.800 C 239.678 155.359,239.715 155.328,239.530 154.353 C 239.345 153.377,239.428 153.310,240.766 153.347 C 241.584 153.370,242.167 153.204,242.122 152.960 C 242.079 152.726,242.304 152.533,242.622 152.533 C 242.940 152.533,243.200 152.638,243.200 152.767 C 243.201 153.548,245.147 152.971,245.804 151.995 C 246.263 151.311,246.778 150.970,247.141 151.109 C 247.474 151.237,247.624 151.163,247.486 150.940 C 247.161 150.414,250.106 150.473,250.494 151.000 C 250.676 151.248,250.790 151.210,250.794 150.900 C 250.797 150.625,251.060 150.400,251.377 150.400 C 251.695 150.400,252.233 150.002,252.574 149.516 C 253.086 148.785,253.594 148.626,255.498 148.600 C 256.766 148.583,258.017 148.437,258.279 148.275 C 258.541 148.113,259.319 148.080,260.008 148.201 C 260.911 148.360,261.179 148.290,260.969 147.949 C 260.783 147.648,260.848 147.583,261.149 147.769 C 261.410 147.930,262.202 148.122,262.911 148.195 C 263.620 148.269,263.994 148.247,263.742 148.146 C 263.491 148.044,263.377 147.610,263.489 147.181 C 263.764 146.130,275.694 145.972,277.024 147.001 M61.500 291.100 C 61.443 316.785,61.397 295.770,61.397 244.400 C 61.397 193.030,61.443 172.015,61.500 197.700 C 61.557 223.385,61.557 265.415,61.500 291.100 M117.200 244.800 L 117.200 338.400 89.500 338.400 L 61.800 338.400 61.902 244.800 L 62.003 151.200 89.602 151.200 L 117.200 151.200 117.200 244.800 M245.348 152.057 C 244.988 152.455,244.528 152.679,244.327 152.555 C 243.829 152.247,244.628 151.333,245.395 151.333 C 245.922 151.333,245.916 151.430,245.348 152.057 M1.600 386.600 C 1.874 386.930,2.380 387.200,2.725 387.200 C 3.228 387.200,3.198 387.083,2.576 386.613 C 1.561 385.844,0.966 385.837,1.600 386.600 " stroke="none" fill="#fcfcfc" fill-rule="evenodd"></path><path id="path1" d="" stroke="none" fill="#100fcfc" fill-rule="evenodd"></path><path id="path2" d="" stroke="none" fill="#100fcfc" fill-rule="evenodd"></path><path id="path3" d="" stroke="none" fill="#100fcfc" fill-rule="evenodd"></path><path id="path4" d="" stroke="none" fill="#100fcfc" fill-rule="evenodd"></path></g></svg>