<svg id="svg" version="1.1" xmlns="http://www.w3.org/2000/svg" xmlns:xlink="http://www.w3.org/1999/xlink" width="400" height="400" viewBox="0, 0, 400,400"><g id="svgg"><path id="path0" d="M10.800 0.567 C 10.800 0.878,10.985 1.225,11.210 1.337 C 11.436 1.449,11.391 1.488,11.110 1.424 C 10.830 1.360,10.263 1.482,9.852 1.694 C 9.440 1.906,9.202 1.920,9.322 1.726 C 9.443 1.531,9.192 1.371,8.766 1.371 C 8.339 1.371,8.054 1.558,8.131 1.786 C 8.301 2.287,6.094 3.989,5.222 4.028 C 4.778 4.048,4.829 4.155,5.400 4.400 C 6.084 4.694,6.099 4.748,5.500 4.772 C 5.115 4.787,4.787 5.115,4.772 5.500 C 4.748 6.099,4.694 6.084,4.400 5.400 C 4.155 4.829,4.048 4.778,4.028 5.222 C 3.989 6.094,2.287 8.301,1.786 8.131 C 1.558 8.054,1.371 8.339,1.371 8.766 C 1.371 9.192,1.531 9.443,1.726 9.322 C 1.920 9.202,1.906 9.440,1.694 9.852 C 1.482 10.263,1.360 10.830,1.424 11.110 C 1.488 11.391,1.449 11.436,1.337 11.210 C -0.023 8.468,0.000 5.187,0.000 200.000 L 0.000 389.200 0.867 389.200 C 1.343 389.200,1.615 389.318,1.470 389.463 C 1.325 389.608,1.430 390.003,1.703 390.340 C 1.977 390.677,2.014 390.842,1.786 390.706 C 1.558 390.570,1.371 390.785,1.371 391.184 C 1.371 391.583,1.558 391.839,1.786 391.754 C 2.339 391.548,4.145 394.242,3.813 394.779 C 3.670 395.010,3.743 395.200,3.976 395.200 C 4.209 395.200,4.400 395.492,4.400 395.849 C 4.400 396.380,4.509 396.408,5.000 396.000 C 5.415 395.656,5.600 395.641,5.600 395.951 C 5.600 396.198,5.839 396.400,6.130 396.400 C 6.726 396.400,8.512 398.154,8.217 398.450 C 8.112 398.555,8.717 398.611,9.562 398.574 C 10.878 398.518,11.069 398.614,10.902 399.254 C 10.712 399.981,13.386 400.000,113.353 400.000 L 216.000 400.000 216.000 323.270 L 216.000 246.539 215.031 245.629 C 214.472 245.104,214.124 244.392,214.210 243.949 C 214.296 243.501,214.188 243.284,213.952 243.430 C 213.729 243.568,213.447 243.302,213.326 242.840 C 213.206 242.378,212.937 242.000,212.730 242.000 C 212.522 242.000,212.436 242.135,212.538 242.300 C 212.640 242.465,201.806 242.600,188.462 242.600 L 164.200 242.600 164.305 214.900 L 164.411 187.200 188.705 187.153 C 202.067 187.127,213.148 187.131,213.330 187.163 C 213.511 187.194,213.545 187.035,213.406 186.810 C 213.267 186.584,213.433 186.400,213.776 186.400 C 214.119 186.400,214.400 186.064,214.400 185.654 C 214.400 185.244,214.757 184.454,215.193 183.899 C 215.961 182.923,215.987 182.210,216.007 161.845 C 216.020 148.589,216.170 140.800,216.414 140.800 C 216.626 140.800,216.800 140.519,216.800 140.176 C 216.800 139.825,216.608 139.671,216.360 139.825 C 216.053 140.014,216.058 139.838,216.377 139.242 C 216.747 138.552,216.716 138.343,216.217 138.151 C 215.878 138.021,215.600 137.489,215.600 136.970 C 215.600 136.294,215.771 136.091,216.200 136.255 C 216.530 136.382,216.800 136.286,216.800 136.043 C 216.800 135.799,216.530 135.600,216.200 135.600 C 215.867 135.600,215.600 135.244,215.600 134.800 C 215.600 134.360,215.774 134.000,215.987 134.000 C 216.201 134.000,216.271 134.270,216.145 134.600 C 216.018 134.930,216.103 135.200,216.334 135.200 C 216.864 135.200,216.597 133.724,215.915 132.882 C 215.523 132.399,215.520 132.318,215.900 132.547 C 216.175 132.712,216.414 132.702,216.431 132.524 C 216.447 132.346,216.523 131.875,216.598 131.478 C 216.709 130.895,216.626 130.846,216.168 131.227 C 215.266 131.975,215.462 130.938,216.400 130.000 C 216.840 129.560,216.998 129.200,216.751 129.200 C 216.428 129.200,216.434 129.041,216.770 128.636 C 217.077 128.266,217.099 127.985,216.835 127.821 C 216.601 127.677,216.560 127.198,216.738 126.686 C 216.908 126.199,216.989 125.350,216.920 124.800 C 216.494 121.440,216.891 118.604,217.839 118.240 C 218.219 118.095,218.386 117.740,218.246 117.376 C 218.111 117.023,218.178 116.863,218.405 117.003 C 218.622 117.137,218.813 117.102,218.828 116.924 C 218.843 116.746,218.933 115.450,219.028 114.044 C 219.150 112.226,219.402 111.335,219.900 110.957 C 220.285 110.665,220.437 110.420,220.239 110.413 C 220.040 110.406,220.265 110.064,220.739 109.653 C 221.645 108.867,221.927 108.151,221.138 108.638 C 220.831 108.828,220.786 108.746,221.005 108.392 C 221.185 108.100,221.386 107.308,221.451 106.631 C 221.654 104.506,221.713 104.382,222.419 104.606 C 222.829 104.736,223.203 104.569,223.348 104.191 C 223.488 103.826,223.424 103.662,223.195 103.803 C 222.978 103.937,222.800 103.867,222.800 103.647 C 222.800 103.427,222.972 103.141,223.183 103.011 C 223.393 102.881,223.464 102.510,223.340 102.187 C 223.216 101.864,223.308 101.600,223.545 101.600 C 223.781 101.600,223.871 101.330,223.745 101.000 C 223.600 100.623,223.749 100.400,224.147 100.400 C 224.907 100.400,225.943 98.507,225.773 97.431 C 225.654 96.685,226.605 94.400,227.034 94.400 C 227.151 94.400,227.155 94.550,227.041 94.733 C 226.928 94.917,227.061 95.067,227.336 95.067 C 227.637 95.067,227.805 94.616,227.758 93.936 C 227.677 92.758,228.912 90.796,229.729 90.806 C 230.043 90.810,230.022 90.925,229.666 91.150 C 229.227 91.429,229.233 91.527,229.700 91.706 C 230.106 91.862,230.258 91.622,230.234 90.862 C 230.215 90.278,230.360 89.770,230.555 89.734 C 230.751 89.698,231.063 89.428,231.249 89.134 C 231.516 88.713,231.589 88.709,231.594 89.116 C 231.599 89.537,231.702 89.537,232.156 89.116 C 232.558 88.742,232.586 88.519,232.256 88.306 C 231.933 88.098,231.953 88.010,232.324 88.006 C 232.612 88.003,232.736 87.820,232.600 87.600 C 232.464 87.380,232.522 87.200,232.730 87.200 C 232.937 87.200,233.207 86.816,233.330 86.347 C 233.494 85.720,233.771 85.551,234.377 85.710 C 234.830 85.828,235.117 85.789,235.014 85.623 C 234.911 85.457,235.226 84.946,235.714 84.488 C 237.334 82.966,237.630 82.482,237.088 82.245 C 236.820 82.128,237.140 82.070,237.800 82.116 C 238.823 82.188,238.986 82.068,238.907 81.311 C 238.848 80.751,239.125 80.254,239.655 79.971 C 240.300 79.625,240.427 79.632,240.200 80.000 C 239.981 80.355,240.151 80.348,240.851 79.973 C 241.423 79.666,241.601 79.400,241.299 79.300 C 241.025 79.208,240.803 78.833,240.806 78.467 C 240.811 77.925,240.879 77.905,241.166 78.359 C 241.452 78.810,241.623 78.752,242.056 78.059 C 242.351 77.586,242.740 77.200,242.920 77.200 C 243.100 77.200,243.136 77.380,243.000 77.600 C 242.446 78.496,243.158 77.924,243.782 76.971 C 244.453 75.947,244.451 75.944,243.528 76.420 C 242.785 76.803,242.694 76.798,243.073 76.396 C 243.334 76.119,243.964 75.850,244.473 75.798 C 245.915 75.649,246.003 75.620,245.957 75.300 C 245.774 74.030,246.531 73.330,248.015 73.401 C 248.870 73.441,249.474 73.320,249.357 73.131 C 249.240 72.942,248.949 72.908,248.711 73.055 C 248.458 73.212,248.391 73.138,248.551 72.879 C 248.702 72.635,249.090 72.536,249.413 72.660 C 249.736 72.784,250.000 72.686,250.000 72.443 C 250.000 72.199,250.281 72.000,250.624 72.000 C 250.967 72.000,251.155 71.851,251.042 71.668 C 250.929 71.486,251.234 71.369,251.719 71.409 C 252.237 71.451,252.817 71.135,253.128 70.641 C 253.493 70.058,253.589 70.015,253.440 70.500 C 253.271 71.052,253.456 71.194,254.313 71.172 C 255.116 71.151,255.221 71.073,254.715 70.872 C 254.241 70.684,254.139 70.423,254.383 70.028 C 254.726 69.473,255.222 69.307,257.100 69.117 C 257.755 69.050,258.015 68.750,258.054 68.013 C 258.106 67.064,258.120 67.057,258.283 67.906 C 258.379 68.404,258.627 68.707,258.835 68.578 C 259.043 68.450,259.091 68.132,258.942 67.872 C 258.794 67.613,258.819 67.533,258.999 67.697 C 259.179 67.860,259.571 67.790,259.871 67.541 C 260.684 66.866,263.599 66.407,263.606 66.954 C 263.609 67.199,263.775 67.143,263.974 66.828 C 264.173 66.514,264.639 66.212,265.010 66.157 C 265.380 66.103,265.914 65.730,266.195 65.329 C 266.633 64.703,267.271 64.602,270.653 64.619 C 272.981 64.632,274.721 64.468,274.894 64.220 C 275.080 63.954,275.190 64.003,275.194 64.354 C 275.197 64.659,275.712 64.322,276.337 63.606 L 277.474 62.304 298.102 62.314 C 318.428 62.324,320.474 62.414,320.292 63.292 C 320.116 64.139,322.050 64.810,322.917 64.203 C 323.676 63.671,324.970 63.802,324.616 64.374 C 324.393 64.735,325.652 64.663,326.273 64.278 C 326.526 64.122,327.218 64.179,327.811 64.404 C 328.614 64.710,329.177 64.671,330.019 64.251 C 330.997 63.763,331.178 63.765,331.371 64.269 C 331.494 64.589,331.779 64.737,332.004 64.598 C 332.229 64.459,332.286 64.132,332.130 63.872 C 331.974 63.613,332.179 63.670,332.585 64.000 C 332.991 64.330,333.655 64.622,334.061 64.650 C 334.468 64.677,334.980 64.723,335.200 64.750 C 335.462 64.783,335.600 73.433,335.600 89.800 L 335.600 114.800 320.300 114.868 C 311.885 114.905,303.875 114.930,302.500 114.924 C 300.935 114.918,299.998 115.079,299.994 115.357 C 299.990 115.654,299.891 115.664,299.694 115.387 C 299.532 115.159,299.040 114.973,298.600 114.973 C 298.160 114.973,297.668 115.159,297.506 115.387 C 297.319 115.650,297.210 115.614,297.206 115.286 C 297.201 114.896,297.007 114.875,296.400 115.200 C 295.814 115.514,295.600 115.504,295.600 115.165 C 295.600 114.824,295.447 114.829,295.018 115.185 C 294.697 115.451,294.202 115.529,293.918 115.358 C 293.533 115.126,293.541 115.220,293.949 115.723 C 294.420 116.304,294.410 116.400,293.882 116.400 C 293.544 116.400,293.196 116.612,293.109 116.872 C 293.016 117.151,291.984 117.375,290.576 117.420 C 287.521 117.518,287.600 117.497,287.600 118.200 C 287.600 118.530,287.330 118.800,287.000 118.800 C 286.670 118.800,286.400 119.000,286.400 119.244 C 286.400 119.514,285.862 119.625,285.028 119.527 C 284.273 119.439,283.728 119.483,283.815 119.625 C 283.903 119.766,283.697 120.224,283.358 120.641 C 283.018 121.058,282.873 121.130,283.035 120.800 C 283.219 120.425,282.967 120.509,282.365 121.024 C 281.834 121.477,280.905 122.058,280.300 122.315 C 279.695 122.572,279.178 122.967,279.150 123.191 C 279.051 124.002,278.982 124.209,278.623 124.776 C 278.386 125.152,278.422 125.407,278.726 125.509 C 279.052 125.617,279.012 125.845,278.593 126.264 C 278.263 126.594,278.112 127.058,278.258 127.294 C 278.410 127.539,278.337 127.608,278.089 127.455 C 277.850 127.307,277.372 127.590,277.027 128.082 C 276.307 129.111,276.188 130.178,276.840 129.775 C 277.160 129.578,277.160 129.728,276.840 130.325 C 276.598 130.778,276.400 131.573,276.400 132.094 C 276.400 133.255,275.709 133.998,274.620 134.006 C 274.058 134.010,273.958 134.113,274.302 134.331 C 274.679 134.570,274.711 135.141,274.432 136.625 C 274.207 137.821,274.205 138.652,274.427 138.732 C 274.641 138.810,274.649 139.141,274.444 139.532 C 273.931 140.512,273.946 144.000,274.464 144.000 C 274.769 144.000,274.765 144.160,274.450 144.540 C 274.145 144.907,274.113 145.675,274.349 146.940 C 274.551 148.020,274.547 148.800,274.341 148.800 C 273.652 148.800,273.942 183.892,274.633 184.157 C 275.120 184.344,275.146 184.554,274.771 185.255 C 274.372 185.999,274.400 186.086,274.970 185.867 C 275.377 185.711,275.608 185.803,275.569 186.106 C 275.438 187.124,275.613 187.639,276.007 187.396 C 276.230 187.258,276.294 186.932,276.148 186.672 C 275.969 186.354,276.058 186.363,276.421 186.700 C 276.842 187.090,283.138 187.200,305.080 187.200 C 321.890 187.200,333.200 187.348,333.200 187.567 C 333.200 187.769,333.321 188.249,333.468 188.633 C 333.630 189.056,333.578 189.233,333.334 189.083 C 333.073 188.922,333.027 189.460,333.203 190.617 C 333.351 191.598,333.367 192.400,333.237 192.400 C 333.106 192.400,333.026 193.345,333.057 194.500 C 333.115 196.634,332.131 198.376,331.195 197.797 C 330.978 197.663,330.800 197.728,330.800 197.943 C 330.800 198.158,331.025 198.424,331.300 198.535 C 331.678 198.688,331.681 198.745,331.313 198.768 C 330.990 198.789,331.104 199.270,331.655 200.203 C 332.333 201.352,332.367 201.562,331.841 201.361 C 331.489 201.225,331.200 200.924,331.200 200.691 C 331.200 200.457,331.095 200.371,330.968 200.499 C 330.840 200.627,330.948 201.130,331.209 201.617 C 331.576 202.302,331.574 202.569,331.200 202.800 C 330.841 203.022,330.829 203.308,331.156 203.917 C 331.485 204.533,331.470 204.785,331.097 204.937 C 330.726 205.088,330.752 205.246,331.200 205.563 C 331.530 205.797,331.606 205.991,331.368 205.994 C 331.096 205.998,330.927 207.223,330.911 209.300 C 330.864 215.377,330.811 216.054,330.400 215.800 C 329.675 215.352,329.118 216.019,329.665 216.679 C 330.079 217.177,330.046 217.377,329.485 217.787 C 328.686 218.372,328.538 220.797,329.300 220.806 C 329.632 220.810,329.598 220.940,329.200 221.192 C 328.481 221.646,328.397 222.391,328.975 223.177 C 329.310 223.631,329.273 223.682,328.800 223.418 C 328.340 223.161,328.306 223.197,328.651 223.572 C 328.927 223.872,328.991 224.554,328.817 225.331 C 328.660 226.029,328.568 227.590,328.614 228.800 C 328.698 231.058,327.631 233.114,326.680 232.526 C 326.194 232.225,326.645 233.068,327.561 234.169 C 327.912 234.592,327.975 234.806,327.700 234.645 C 327.257 234.386,327.094 234.810,327.234 235.855 C 327.253 235.996,327.040 236.252,326.760 236.425 C 326.372 236.665,326.361 236.871,326.714 237.297 C 327.070 237.725,327.035 238.057,326.566 238.727 C 326.007 239.525,326.015 239.600,326.657 239.600 C 327.204 239.600,327.253 239.707,326.880 240.080 C 326.616 240.344,326.400 241.019,326.400 241.580 L 326.400 242.600 302.164 242.400 C 282.047 242.234,277.876 242.292,277.625 242.741 C 277.372 243.193,277.180 243.194,276.473 242.753 C 275.730 242.289,275.525 242.330,274.822 243.084 C 274.024 243.940,274.019 244.426,274.005 321.973 L 273.990 400.000 331.595 400.000 C 388.276 400.000,389.200 399.988,389.200 399.226 C 389.200 398.613,389.414 398.492,390.232 398.640 C 390.996 398.779,391.184 398.694,390.955 398.314 C 390.748 397.969,390.902 397.993,391.423 398.387 C 391.850 398.710,392.063 398.813,391.896 398.616 C 391.530 398.186,393.121 396.400,393.870 396.400 C 394.161 396.400,394.400 396.207,394.400 395.971 C 394.400 395.736,394.657 395.286,394.971 394.971 C 395.286 394.657,395.736 394.400,395.971 394.400 C 396.207 394.400,396.400 394.161,396.400 393.870 C 396.400 393.121,398.186 391.530,398.616 391.896 C 398.813 392.063,398.710 391.850,398.387 391.423 C 397.993 390.902,397.969 390.748,398.314 390.955 C 398.694 391.184,398.779 390.996,398.640 390.232 C 398.492 389.414,398.613 389.200,399.226 389.200 C 399.990 389.200,400.000 386.773,400.000 199.953 C 400.000 15.480,399.981 10.712,399.254 10.902 C 398.614 11.069,398.518 10.878,398.574 9.562 C 398.611 8.717,398.555 8.112,398.450 8.217 C 398.154 8.512,396.400 6.726,396.400 6.130 C 396.400 5.839,396.198 5.600,395.951 5.600 C 395.641 5.600,395.656 5.415,396.000 5.000 C 396.408 4.509,396.380 4.400,395.849 4.400 C 395.492 4.400,395.200 4.209,395.200 3.976 C 395.200 3.743,395.010 3.670,394.779 3.813 C 394.242 4.145,391.548 2.339,391.754 1.786 C 391.839 1.558,391.583 1.371,391.184 1.371 C 390.785 1.371,390.570 1.558,390.706 1.786 C 390.842 2.014,390.677 1.977,390.340 1.703 C 390.003 1.430,389.608 1.325,389.463 1.470 C 389.318 1.615,389.200 1.343,389.200 0.867 L 389.200 0.000 200.000 0.000 C 37.035 0.000,10.800 0.079,10.800 0.567 M277.500 63.076 C 277.115 63.176,276.800 63.514,276.800 63.825 C 276.800 64.275,276.965 64.251,277.600 63.707 C 278.286 63.119,278.635 62.691,278.300 62.846 C 278.245 62.872,277.885 62.975,277.500 63.076 " stroke="none" fill="#fcfcfc" fill-rule="evenodd"></path><path id="path1" d="" stroke="none" fill="#100fcfc" fill-rule="evenodd"></path><path id="path2" d="" stroke="none" fill="#100fcfc" fill-rule="evenodd"></path><path id="path3" d="" stroke="none" fill="#100fcfc" fill-rule="evenodd"></path><path id="path4" d="" stroke="none" fill="#100fcfc" fill-rule="evenodd"></path></g></svg>