<svg id="svg" version="1.1" xmlns="http://www.w3.org/2000/svg" xmlns:xlink="http://www.w3.org/1999/xlink" width="400" height="400" viewBox="0, 0, 400,400"><g id="svgg"><path id="path0" d="M31.229 0.600 C 31.204 1.325,30.974 1.387,28.758 1.262 C 27.266 1.178,26.137 1.304,25.858 1.586 C 25.513 1.934,25.597 1.978,26.200 1.765 C 26.844 1.537,26.906 1.584,26.517 2.004 C 26.124 2.429,25.919 2.431,25.417 2.014 C 24.998 1.667,24.800 1.646,24.800 1.951 C 24.800 2.688,24.980 3.007,25.330 2.890 C 25.511 2.830,25.550 2.957,25.417 3.173 C 25.284 3.388,24.910 3.464,24.587 3.340 C 24.264 3.216,24.000 3.298,24.000 3.522 C 24.000 3.746,23.685 3.879,23.300 3.817 C 22.915 3.755,22.296 3.861,21.924 4.053 C 21.496 4.274,21.146 4.236,20.969 3.950 C 20.777 3.640,20.574 3.703,20.323 4.152 C 20.122 4.512,20.064 4.980,20.195 5.191 C 20.326 5.403,19.930 5.702,19.316 5.855 C 18.079 6.163,17.134 7.147,17.386 7.867 C 17.476 8.124,17.302 8.429,17.001 8.544 C 16.699 8.660,16.383 8.548,16.298 8.294 C 16.044 7.533,14.895 8.877,15.107 9.688 C 15.233 10.171,15.067 10.400,14.591 10.400 C 14.204 10.400,13.630 10.715,13.314 11.100 C 12.999 11.485,12.855 11.575,12.994 11.300 C 13.409 10.481,13.021 10.724,11.775 12.062 C 11.129 12.756,10.870 13.193,11.200 13.032 C 11.564 12.855,11.524 12.967,11.100 13.314 C 10.715 13.630,10.400 14.204,10.400 14.591 C 10.400 15.067,10.171 15.233,9.688 15.107 C 8.877 14.895,7.533 16.044,8.294 16.298 C 8.548 16.383,8.660 16.699,8.544 17.001 C 8.429 17.302,8.124 17.476,7.867 17.386 C 7.147 17.134,6.163 18.079,5.855 19.316 C 5.702 19.930,5.403 20.326,5.191 20.195 C 4.980 20.064,4.512 20.122,4.152 20.323 C 3.703 20.574,3.640 20.777,3.950 20.969 C 4.271 21.167,4.282 21.474,3.987 22.024 C 3.676 22.605,3.701 22.802,4.086 22.806 C 4.447 22.810,4.422 22.927,4.000 23.200 C 3.670 23.413,3.542 23.591,3.716 23.594 C 3.889 23.597,3.799 23.853,3.516 24.162 C 3.232 24.471,2.910 24.719,2.800 24.714 C 1.697 24.664,1.520 24.822,2.014 25.417 C 2.431 25.919,2.429 26.124,2.004 26.517 C 1.584 26.906,1.537 26.844,1.765 26.200 C 1.978 25.597,1.934 25.513,1.586 25.858 C 1.304 26.137,1.178 27.266,1.262 28.758 C 1.387 30.974,1.325 31.204,0.600 31.229 L -0.200 31.256 0.600 31.600 C 1.284 31.894,1.299 31.948,0.700 31.972 C -0.365 32.015,-0.394 368.265,0.670 368.471 C 1.230 368.579,1.325 369.042,1.244 371.265 C 1.164 373.483,1.270 374.002,1.874 374.353 C 2.273 374.586,2.375 374.781,2.100 374.788 C 1.825 374.795,1.600 374.963,1.600 375.163 C 1.600 375.362,1.943 375.436,2.361 375.326 C 3.088 375.136,3.917 376.417,3.665 377.341 C 3.479 378.025,4.069 379.205,4.472 378.956 C 4.740 378.790,4.786 379.034,4.601 379.650 C 4.323 380.580,4.330 380.584,4.960 379.800 L 5.602 379.000 5.337 379.800 C 5.192 380.240,5.224 380.462,5.410 380.293 C 5.595 380.125,5.975 380.530,6.254 381.193 C 6.533 381.857,7.040 382.400,7.381 382.400 C 7.733 382.400,8.000 382.744,8.000 383.200 C 8.000 383.640,8.180 384.000,8.400 384.000 C 8.620 384.000,8.755 384.214,8.700 384.475 C 8.645 384.736,9.029 384.961,9.554 384.975 C 10.276 384.994,10.535 385.251,10.620 386.035 C 10.768 387.409,13.182 389.870,13.653 389.128 C 13.906 388.729,13.989 388.722,13.994 389.100 C 13.997 389.375,14.270 389.600,14.600 389.600 C 15.171 389.600,15.270 389.810,15.361 391.200 C 15.382 391.530,15.791 391.856,16.269 391.924 C 16.747 391.992,17.797 392.669,18.602 393.427 C 19.406 394.186,20.275 394.702,20.532 394.574 C 20.790 394.446,20.680 394.603,20.288 394.923 C 19.656 395.440,19.648 395.533,20.209 395.748 C 20.574 395.888,20.738 395.824,20.597 395.595 C 20.463 395.378,20.524 395.200,20.734 395.200 C 20.943 395.200,21.225 395.489,21.361 395.842 C 21.531 396.287,21.897 396.412,22.548 396.249 C 23.553 395.997,25.082 397.219,24.646 397.926 C 24.347 398.410,26.312 398.800,29.050 398.800 C 30.820 398.800,31.205 398.924,31.228 399.500 C 31.252 400.099,31.306 400.084,31.600 399.400 C 31.894 398.716,31.948 398.701,31.972 399.300 C 32.015 400.383,368.266 400.392,368.474 399.309 C 368.587 398.724,369.017 398.633,371.274 398.718 C 372.989 398.783,374.045 398.650,374.232 398.348 C 374.415 398.052,374.351 397.983,374.062 398.162 C 373.808 398.319,373.600 398.257,373.600 398.024 C 373.600 397.791,373.870 397.600,374.200 397.600 C 374.530 397.600,374.800 397.774,374.800 397.987 C 374.800 398.201,375.062 398.274,375.382 398.151 C 375.840 397.976,375.861 397.816,375.482 397.406 C 375.217 397.119,374.820 396.984,374.600 397.106 C 374.380 397.228,374.334 397.180,374.498 396.999 C 374.663 396.818,375.293 396.608,375.898 396.532 C 377.839 396.289,378.371 396.163,378.655 395.878 C 378.808 395.725,378.693 395.600,378.400 395.600 C 378.107 395.600,377.982 395.484,378.124 395.343 C 378.265 395.202,378.616 395.281,378.904 395.520 C 379.267 395.822,379.606 395.828,380.013 395.539 C 380.514 395.185,380.507 395.154,379.967 395.324 C 379.601 395.439,379.333 395.293,379.333 394.979 C 379.333 394.680,379.503 394.540,379.711 394.669 C 379.919 394.797,380.221 394.690,380.381 394.431 C 380.541 394.172,381.041 393.932,381.492 393.898 C 381.985 393.861,382.233 393.629,382.113 393.318 C 382.004 393.033,382.124 392.800,382.381 392.800 C 382.637 392.800,382.736 392.620,382.600 392.400 C 382.464 392.180,382.678 391.997,383.076 391.994 C 384.173 391.985,384.764 391.470,384.927 390.383 C 385.033 389.681,385.363 389.365,386.083 389.279 C 387.324 389.129,389.085 387.336,389.266 386.038 C 389.359 385.372,389.703 385.030,390.383 384.928 C 391.470 384.764,391.985 384.173,391.994 383.076 C 391.997 382.678,392.180 382.464,392.400 382.600 C 392.620 382.736,392.800 382.637,392.800 382.381 C 392.800 382.124,393.033 382.004,393.318 382.113 C 393.629 382.233,393.861 381.985,393.898 381.492 C 393.932 381.041,394.172 380.541,394.431 380.381 C 394.690 380.221,394.797 379.919,394.669 379.711 C 394.540 379.503,394.680 379.333,394.979 379.333 C 395.293 379.333,395.439 379.601,395.324 379.967 C 395.154 380.507,395.185 380.514,395.539 380.013 C 395.828 379.606,395.822 379.267,395.520 378.904 C 395.281 378.616,395.202 378.265,395.343 378.124 C 395.484 377.982,395.600 378.107,395.600 378.400 C 395.600 378.693,395.725 378.808,395.878 378.655 C 396.163 378.371,396.289 377.839,396.532 375.898 C 396.608 375.293,396.818 374.663,396.999 374.498 C 397.180 374.334,397.228 374.380,397.106 374.600 C 396.984 374.820,397.119 375.217,397.406 375.482 C 397.816 375.861,397.976 375.840,398.151 375.382 C 398.274 375.062,398.201 374.800,397.987 374.800 C 397.483 374.800,397.500 373.568,398.015 372.800 C 398.319 372.346,398.372 372.470,398.234 373.308 C 398.129 373.940,398.211 374.317,398.425 374.185 C 398.631 374.057,398.800 372.703,398.800 371.176 C 398.800 368.975,398.924 368.400,399.400 368.400 C 400.402 368.400,400.302 32.012,399.300 31.972 C 398.701 31.948,398.716 31.894,399.400 31.600 C 400.084 31.306,400.099 31.252,399.500 31.228 C 398.924 31.205,398.800 30.820,398.800 29.050 C 398.800 26.312,398.410 24.347,397.926 24.646 C 397.418 24.960,395.926 23.569,396.149 22.989 C 396.246 22.735,396.173 22.280,395.986 21.977 C 395.789 21.658,395.819 21.218,396.058 20.930 C 396.370 20.554,396.263 20.472,395.625 20.595 C 395.159 20.685,394.877 20.599,394.998 20.404 C 395.118 20.209,394.974 19.903,394.678 19.725 C 394.137 19.398,393.425 18.037,393.528 17.525 C 393.559 17.373,393.227 17.318,392.792 17.402 C 392.038 17.547,391.826 17.211,391.970 16.100 C 392.029 15.643,391.414 15.444,390.100 15.493 C 389.814 15.503,389.600 15.029,389.600 14.386 C 389.600 13.185,387.432 10.610,386.766 11.021 C 386.565 11.145,386.400 11.046,386.400 10.800 C 386.400 10.554,386.240 10.451,386.045 10.572 C 385.558 10.873,384.670 9.734,384.989 9.218 C 385.131 8.988,384.956 8.800,384.600 8.800 C 384.229 8.800,384.069 8.611,384.226 8.357 C 384.411 8.059,384.222 8.003,383.650 8.184 C 383.071 8.368,382.800 8.282,382.800 7.916 C 382.800 7.203,381.317 5.959,380.384 5.889 C 379.780 5.843,379.731 5.722,380.120 5.242 C 380.513 4.758,380.481 4.695,379.945 4.895 C 379.430 5.088,379.338 4.954,379.515 4.270 C 379.709 3.515,379.655 3.469,379.105 3.919 C 378.667 4.278,378.389 4.306,378.205 4.009 C 378.059 3.772,377.728 3.619,377.470 3.668 C 376.369 3.876,375.128 3.120,375.326 2.361 C 375.436 1.943,375.362 1.600,375.163 1.600 C 374.963 1.600,374.795 1.825,374.788 2.100 C 374.781 2.375,374.586 2.273,374.353 1.874 C 374.002 1.270,373.483 1.164,371.265 1.244 C 369.042 1.325,368.579 1.230,368.471 0.670 C 368.265 -0.394,32.015 -0.365,31.972 0.700 C 31.948 1.299,31.894 1.284,31.600 0.600 L 31.256 -0.200 31.229 0.600 M338.000 48.503 C 338.000 48.670,338.365 48.580,338.812 48.303 C 339.476 47.892,339.688 47.902,339.972 48.358 C 340.164 48.667,340.607 48.806,340.963 48.670 C 341.805 48.346,343.159 48.895,344.383 50.055 C 344.924 50.567,345.554 51.007,345.783 51.032 C 346.012 51.057,346.509 51.106,346.887 51.139 C 347.322 51.178,347.491 51.420,347.346 51.797 C 347.208 52.156,347.412 52.504,347.858 52.672 C 348.630 52.962,349.565 53.963,349.587 54.524 C 349.594 54.702,349.392 54.719,349.138 54.562 C 348.852 54.385,348.785 54.452,348.962 54.738 C 349.119 54.992,349.537 55.200,349.890 55.200 C 350.244 55.200,350.413 55.320,350.266 55.468 C 350.119 55.615,350.301 56.070,350.672 56.480 C 351.043 56.889,351.367 57.804,351.392 58.512 C 351.417 59.220,351.673 60.227,351.959 60.748 C 352.245 61.270,352.294 61.582,352.068 61.442 C 351.841 61.302,351.542 61.370,351.404 61.593 C 351.266 61.817,351.298 62.000,351.476 62.000 C 351.654 62.000,351.752 71.923,351.693 84.051 C 351.616 100.101,351.711 106.251,352.042 106.651 C 352.391 107.071,352.369 107.200,351.949 107.200 C 351.544 107.201,351.384 107.906,351.340 109.887 C 351.287 112.259,351.156 112.679,350.218 113.486 C 349.368 114.217,349.295 114.400,349.854 114.400 C 350.490 114.400,350.484 114.450,349.793 114.956 C 349.375 115.261,348.830 115.433,348.581 115.337 C 348.332 115.242,347.874 115.487,347.564 115.882 C 347.039 116.550,347.054 116.558,347.770 116.000 C 348.518 115.417,348.521 115.429,347.868 116.432 C 347.499 116.999,347.333 117.613,347.499 117.796 C 347.664 117.979,347.572 117.997,347.293 117.836 C 347.015 117.676,346.908 117.349,347.055 117.111 C 347.217 116.849,347.137 116.792,346.855 116.966 C 346.598 117.125,346.491 117.423,346.617 117.628 C 346.744 117.832,346.662 118.000,346.436 118.000 C 346.210 118.000,346.129 118.272,346.257 118.605 C 346.423 119.037,346.306 119.139,345.845 118.962 C 345.443 118.808,345.200 118.923,345.200 119.268 C 345.200 119.672,344.769 119.780,343.600 119.669 C 342.447 119.559,341.998 119.668,341.994 120.058 C 341.989 120.475,341.899 120.462,341.600 120.000 C 341.254 119.464,341.167 119.512,341.214 120.214 C 341.318 121.771,340.846 121.800,315.494 121.800 L 291.131 121.800 290.129 120.635 C 289.397 119.784,289.043 119.607,288.814 119.978 C 288.592 120.337,288.420 120.356,288.226 120.043 C 288.076 119.799,287.342 119.600,286.596 119.600 C 285.088 119.600,282.198 117.103,282.574 116.124 C 282.698 115.801,282.473 115.600,281.987 115.600 C 281.554 115.600,281.200 115.409,281.200 115.176 C 281.200 114.943,281.041 114.851,280.847 114.971 C 280.653 115.091,280.499 114.697,280.506 114.095 C 280.527 112.239,280.069 110.725,279.210 109.810 C 278.100 108.629,277.894 60.449,278.994 59.349 C 279.327 59.016,279.600 58.856,279.600 58.995 C 279.600 59.134,279.799 59.124,280.043 58.974 C 280.351 58.783,280.321 58.596,279.943 58.356 C 279.543 58.103,279.532 58.011,279.900 58.006 C 280.186 58.003,280.400 57.493,280.400 56.816 C 280.400 55.974,280.861 55.162,282.000 54.000 C 282.880 53.102,283.600 52.487,283.600 52.633 C 283.600 52.779,283.878 52.667,284.218 52.385 C 284.558 52.103,284.744 51.631,284.631 51.336 C 284.426 50.802,284.651 50.712,286.233 50.694 C 286.692 50.688,287.067 50.443,287.067 50.148 C 287.067 49.730,286.928 49.715,286.433 50.080 C 286.085 50.336,286.243 50.101,286.785 49.557 C 287.657 48.681,288.079 48.576,290.485 48.637 C 291.978 48.675,293.200 48.593,293.200 48.453 C 293.200 48.314,303.280 48.200,315.600 48.200 C 327.920 48.200,338.000 48.337,338.000 48.503 M201.400 124.800 C 201.547 125.037,201.027 125.220,200.124 125.250 L 198.600 125.300 200.400 125.596 C 201.390 125.758,202.260 125.735,202.334 125.543 C 202.408 125.352,202.678 125.331,202.934 125.497 C 203.653 125.963,205.765 125.921,206.094 125.435 C 206.291 125.143,206.390 125.139,206.394 125.421 C 206.398 125.687,207.974 125.851,210.682 125.867 C 213.496 125.885,215.016 126.049,215.116 126.347 C 215.199 126.596,215.567 126.803,215.933 126.806 C 216.451 126.811,216.481 126.888,216.066 127.151 C 215.660 127.408,215.732 127.541,216.367 127.707 C 216.871 127.839,217.103 127.766,216.952 127.523 C 216.815 127.301,217.130 127.351,217.652 127.634 C 218.173 127.917,219.904 128.181,221.499 128.222 C 224.126 128.289,224.537 128.415,225.891 129.572 C 226.712 130.273,227.441 130.677,227.510 130.470 C 227.652 130.045,229.592 130.817,229.597 131.300 C 229.599 131.465,229.915 131.603,230.300 131.606 C 230.898 131.611,230.913 131.669,230.400 132.000 C 229.764 132.411,230.044 132.492,232.360 132.568 C 232.980 132.589,233.360 132.867,233.433 133.352 C 233.606 134.515,234.307 134.995,235.920 135.055 C 238.481 135.149,238.504 135.158,238.284 136.000 C 238.169 136.439,238.266 136.917,238.499 137.061 C 238.749 137.216,238.806 137.133,238.638 136.862 C 238.469 136.588,238.607 136.400,238.976 136.400 C 239.319 136.400,239.600 136.591,239.600 136.824 C 239.600 137.057,239.768 137.144,239.972 137.017 C 240.177 136.891,240.447 136.953,240.573 137.156 C 240.698 137.359,241.189 137.423,241.663 137.299 C 242.254 137.145,242.435 137.220,242.239 137.537 C 242.082 137.792,242.163 138.000,242.419 138.000 C 242.676 138.000,242.787 138.258,242.666 138.573 C 242.512 138.975,242.681 139.100,243.234 138.993 C 243.667 138.910,243.916 139.012,243.787 139.221 C 243.658 139.429,243.833 139.600,244.176 139.600 C 244.519 139.600,244.779 139.735,244.753 139.900 C 244.618 140.755,244.863 141.151,245.400 140.945 C 245.780 140.799,246.000 140.950,246.000 141.357 C 246.000 141.746,246.336 142.000,246.849 142.000 C 247.595 142.000,247.631 142.081,247.149 142.669 C 246.658 143.268,246.700 143.313,247.540 143.096 C 248.056 142.963,248.373 142.960,248.243 143.090 C 247.895 143.438,248.828 144.430,249.255 144.166 C 249.456 144.042,249.570 144.171,249.510 144.452 C 249.449 144.733,249.670 144.972,250.000 144.982 C 250.330 144.992,250.604 145.180,250.609 145.400 C 250.621 145.929,252.283 147.622,253.882 148.736 C 254.639 149.263,255.076 149.857,254.950 150.185 C 254.794 150.593,254.986 150.687,255.668 150.536 C 256.339 150.388,256.448 150.438,256.057 150.715 C 255.672 150.989,255.645 151.180,255.964 151.378 C 256.211 151.530,256.286 151.868,256.130 152.128 C 255.948 152.430,256.077 152.413,256.488 152.081 C 256.982 151.680,257.197 151.671,257.426 152.042 C 257.615 152.347,257.555 152.419,257.262 152.238 C 257.008 152.081,256.800 152.143,256.800 152.376 C 256.800 152.609,256.935 152.801,257.100 152.801 C 258.108 152.807,260.040 154.470,259.622 154.974 C 259.271 155.396,259.327 155.503,259.876 155.458 C 260.372 155.417,260.586 155.696,260.599 156.400 C 260.613 157.138,260.807 157.367,261.339 157.276 C 262.488 157.077,263.323 157.966,262.705 158.730 C 262.413 159.091,262.390 159.240,262.650 159.084 C 262.937 158.912,263.100 159.188,263.100 159.843 C 263.100 160.409,263.404 161.170,263.777 161.536 C 264.334 162.083,264.431 162.095,264.327 161.600 C 264.257 161.270,264.020 160.851,263.800 160.670 C 263.558 160.469,263.623 160.399,263.965 160.491 C 264.478 160.629,264.772 161.332,264.890 162.700 C 264.914 162.975,265.083 163.200,265.267 163.200 C 265.450 163.200,265.600 163.391,265.600 163.624 C 265.600 163.857,265.421 163.937,265.203 163.802 C 264.974 163.660,264.840 163.977,264.888 164.549 C 264.933 165.095,265.112 165.455,265.285 165.348 C 265.458 165.240,265.600 165.423,265.600 165.753 C 265.600 166.083,265.811 166.483,266.068 166.642 C 266.383 166.836,266.452 166.713,266.281 166.266 C 265.933 165.360,266.496 165.422,267.078 166.354 C 267.337 166.769,267.450 167.489,267.328 167.954 C 267.195 168.461,267.295 168.800,267.577 168.800 C 267.847 168.800,267.919 169.013,267.747 169.300 C 267.543 169.640,267.663 169.624,268.123 169.251 C 268.738 168.752,268.781 168.825,268.596 170.051 C 268.484 170.793,268.499 171.175,268.629 170.900 C 269.194 169.710,269.614 170.479,269.610 172.700 C 269.610 173.195,269.806 173.600,270.048 173.600 C 270.308 173.600,270.391 173.980,270.253 174.531 C 270.060 175.300,270.173 175.456,270.906 175.431 C 271.737 175.402,271.793 175.571,271.801 178.117 C 271.807 180.082,271.974 180.939,272.405 181.211 C 272.803 181.463,272.835 181.590,272.500 181.594 C 272.225 181.597,272.000 181.881,272.000 182.224 C 272.000 182.567,272.180 182.736,272.400 182.600 C 273.008 182.224,272.878 182.665,272.171 183.371 C 271.600 183.943,271.600 184.000,272.171 184.000 C 272.517 184.000,272.800 184.180,272.800 184.400 C 272.800 184.620,272.991 184.800,273.224 184.800 C 273.457 184.800,273.512 184.575,273.347 184.300 C 273.112 183.909,273.174 183.903,273.634 184.275 C 274.095 184.648,274.218 185.794,274.201 189.575 C 274.190 192.229,274.342 194.400,274.539 194.400 C 274.736 194.400,274.687 194.654,274.430 194.964 C 274.076 195.390,274.075 195.599,274.423 195.814 C 274.761 196.023,274.740 196.202,274.343 196.480 C 273.886 196.801,273.887 196.895,274.345 197.079 C 274.804 197.262,274.805 197.350,274.347 197.633 C 273.909 197.903,273.946 198.072,274.536 198.504 C 275.049 198.879,275.216 199.393,275.094 200.220 C 274.924 201.369,274.917 201.363,274.810 200.000 C 274.702 198.625,274.695 198.633,274.405 200.400 C 274.230 201.467,274.268 202.302,274.498 202.450 C 274.738 202.605,274.742 202.788,274.508 202.933 C 274.076 203.201,274.094 204.382,274.543 205.107 C 274.710 205.378,274.702 205.600,274.524 205.600 C 274.346 205.601,274.166 207.684,274.125 210.230 C 274.078 213.100,273.869 215.076,273.576 215.429 C 273.207 215.873,273.217 216.000,273.618 216.000 C 273.901 216.000,274.001 216.133,273.838 216.295 C 273.676 216.457,273.241 216.592,272.872 216.595 C 272.381 216.599,272.201 216.950,272.204 217.900 C 272.206 218.615,272.084 219.200,271.931 219.200 C 271.588 219.200,271.744 220.862,272.149 221.517 C 272.313 221.783,272.275 222.000,272.063 222.000 C 271.852 222.000,271.718 222.558,271.766 223.241 C 271.816 223.963,271.633 224.566,271.328 224.683 C 271.040 224.793,270.904 225.045,271.026 225.242 C 271.148 225.439,270.979 225.600,270.651 225.600 C 270.078 225.600,269.471 226.746,269.665 227.459 C 269.923 228.403,269.105 229.624,268.370 229.391 C 267.766 229.199,267.661 229.294,267.870 229.839 C 268.036 230.272,267.979 230.434,267.718 230.273 C 267.448 230.106,267.338 230.579,267.408 231.607 C 267.493 232.853,267.373 233.207,266.858 233.232 C 266.443 233.251,266.385 233.338,266.700 233.465 C 267.459 233.771,267.297 234.229,266.429 234.229 C 266.006 234.229,265.762 234.042,265.888 233.814 C 266.014 233.586,265.883 233.617,265.596 233.883 C 265.171 234.276,265.169 234.481,265.586 234.983 C 266.053 235.546,265.888 235.772,265.100 235.647 C 264.935 235.621,264.800 236.061,264.800 236.624 C 264.800 237.332,264.954 237.557,265.300 237.355 C 265.575 237.194,265.485 237.423,265.099 237.864 C 264.714 238.304,264.519 238.785,264.666 238.932 C 264.813 239.080,264.715 239.200,264.449 239.200 C 264.183 239.200,264.018 238.904,264.082 238.541 C 264.147 238.179,263.997 237.812,263.748 237.724 C 263.498 237.636,263.217 238.101,263.120 238.762 C 263.006 239.541,263.094 239.869,263.372 239.702 C 263.608 239.561,263.533 239.775,263.206 240.177 C 262.879 240.579,262.609 241.190,262.606 241.535 C 262.603 241.880,262.150 242.287,261.600 242.441 C 260.968 242.617,260.858 242.735,261.300 242.760 C 261.685 242.782,262.000 242.974,262.000 243.187 C 262.000 243.401,261.723 243.468,261.384 243.338 C 261.045 243.208,260.803 243.259,260.847 243.451 C 261.056 244.364,260.275 245.215,259.453 244.971 C 258.607 244.719,258.606 244.722,259.400 245.364 C 259.840 245.720,260.020 245.988,259.800 245.958 C 258.426 245.776,258.059 246.032,258.243 247.048 C 258.418 248.015,258.341 248.082,257.238 247.920 C 256.580 247.824,256.126 247.880,256.228 248.045 C 256.330 248.210,256.230 248.458,256.007 248.596 C 255.783 248.734,255.597 249.242,255.594 249.724 C 255.589 250.378,255.499 250.460,255.239 250.049 C 254.825 249.396,253.860 249.858,254.136 250.576 C 254.240 250.849,253.839 251.359,253.244 251.710 C 252.649 252.062,251.923 252.796,251.631 253.343 C 251.338 253.889,250.870 254.248,250.590 254.141 C 249.862 253.861,249.389 254.821,250.049 255.239 C 250.460 255.499,250.378 255.589,249.724 255.594 C 249.242 255.597,248.734 255.783,248.596 256.007 C 248.458 256.230,248.210 256.330,248.045 256.228 C 247.880 256.126,247.824 256.580,247.920 257.238 C 248.082 258.341,248.015 258.418,247.048 258.243 C 246.032 258.059,245.776 258.426,245.958 259.800 C 245.988 260.020,245.720 259.840,245.364 259.400 C 244.722 258.606,244.719 258.607,244.971 259.453 C 245.215 260.275,244.364 261.056,243.451 260.847 C 243.259 260.803,243.208 261.045,243.338 261.384 C 243.468 261.723,243.401 262.000,243.187 262.000 C 242.974 262.000,242.782 261.685,242.760 261.300 C 242.735 260.858,242.617 260.968,242.441 261.600 C 242.287 262.150,241.880 262.603,241.535 262.606 C 241.190 262.609,240.579 262.879,240.177 263.206 C 239.775 263.533,239.561 263.608,239.702 263.372 C 239.869 263.094,239.541 263.006,238.762 263.120 C 238.101 263.217,237.636 263.498,237.724 263.748 C 237.812 263.997,238.179 264.147,238.541 264.082 C 238.904 264.018,239.200 264.183,239.200 264.449 C 239.200 264.715,239.080 264.813,238.932 264.666 C 238.785 264.519,238.304 264.714,237.864 265.099 C 237.423 265.485,237.194 265.575,237.355 265.300 C 237.557 264.954,237.332 264.800,236.624 264.800 C 236.061 264.800,235.621 264.935,235.647 265.100 C 235.772 265.888,235.546 266.053,234.983 265.586 C 234.481 265.169,234.276 265.171,233.883 265.596 C 233.617 265.883,233.586 266.014,233.814 265.888 C 234.042 265.762,234.229 266.006,234.229 266.429 C 234.229 267.297,233.771 267.459,233.465 266.700 C 233.338 266.385,233.251 266.443,233.232 266.858 C 233.207 267.373,232.853 267.493,231.607 267.408 C 230.579 267.338,230.106 267.448,230.273 267.718 C 230.434 267.979,230.272 268.036,229.839 267.870 C 229.294 267.661,229.199 267.766,229.391 268.370 C 229.654 269.201,228.463 269.851,227.056 269.644 C 226.636 269.582,226.421 269.711,226.563 269.940 C 226.700 270.163,226.602 270.475,226.345 270.634 C 226.052 270.815,225.984 270.750,226.162 270.462 C 226.319 270.208,226.257 270.000,226.024 270.000 C 225.791 270.000,225.600 270.281,225.600 270.624 C 225.600 270.967,225.439 271.148,225.242 271.026 C 225.045 270.904,224.793 271.040,224.683 271.328 C 224.566 271.633,223.963 271.816,223.241 271.766 C 222.558 271.718,222.000 271.852,222.000 272.063 C 222.000 272.275,221.783 272.313,221.517 272.149 C 220.862 271.744,219.200 271.588,219.200 271.931 C 219.200 272.084,218.615 272.206,217.900 272.204 C 216.950 272.201,216.599 272.381,216.595 272.872 C 216.592 273.241,216.457 273.676,216.295 273.838 C 216.133 274.001,216.000 273.901,216.000 273.618 C 216.000 273.219,215.872 273.208,215.434 273.572 C 215.114 273.837,213.379 274.069,211.434 274.106 C 209.545 274.141,208.000 274.334,208.000 274.534 C 208.000 274.736,207.778 274.723,207.500 274.504 C 206.881 274.015,205.600 274.006,205.600 274.490 C 205.600 274.687,205.378 274.710,205.107 274.543 C 204.382 274.094,203.201 274.076,202.933 274.508 C 202.788 274.742,202.605 274.738,202.450 274.498 C 202.302 274.268,201.467 274.230,200.400 274.405 L 198.600 274.700 200.200 274.814 L 201.800 274.928 200.418 275.095 C 199.411 275.217,198.882 275.064,198.472 274.531 C 198.035 273.964,197.863 273.922,197.706 274.345 C 197.541 274.787,197.442 274.792,197.182 274.371 C 196.919 273.945,196.747 273.946,196.230 274.375 C 195.741 274.781,195.600 274.787,195.600 274.400 C 195.600 274.003,195.479 274.003,195.000 274.400 C 194.670 274.674,194.400 274.733,194.400 274.531 C 194.400 274.327,192.164 274.172,189.362 274.182 C 186.591 274.192,184.223 274.037,184.100 273.838 C 183.977 273.639,184.129 273.608,184.438 273.768 C 184.747 273.928,184.651 273.776,184.224 273.430 C 183.648 272.963,183.596 272.792,184.024 272.768 C 186.292 272.640,181.761 271.786,179.115 271.843 C 175.802 271.914,174.738 271.733,175.541 271.236 C 175.804 271.074,175.651 270.774,175.142 270.457 C 174.688 270.173,174.417 270.104,174.541 270.304 C 174.664 270.503,174.513 270.667,174.205 270.667 C 173.897 270.667,173.679 270.472,173.722 270.233 C 173.765 269.995,173.260 269.753,172.600 269.696 C 170.581 269.520,170.400 269.477,170.400 269.167 C 170.400 269.002,170.625 268.761,170.900 268.631 C 171.175 268.502,170.895 268.464,170.277 268.547 C 169.450 268.658,169.209 268.553,169.364 268.149 C 169.571 267.609,168.967 267.409,167.500 267.532 C 167.115 267.564,166.800 267.402,166.800 267.172 C 166.800 266.941,166.592 266.881,166.338 267.038 C 166.063 267.209,165.985 267.149,166.145 266.889 C 166.292 266.651,166.227 266.340,166.000 266.200 C 165.773 266.060,165.695 265.770,165.827 265.556 C 165.974 265.318,165.645 265.274,164.974 265.442 C 164.183 265.641,163.962 265.586,164.173 265.244 C 164.381 264.907,164.051 264.798,163.034 264.867 C 162.247 264.920,161.378 264.732,161.102 264.448 C 160.696 264.032,160.751 263.959,161.385 264.067 C 161.845 264.145,162.223 263.948,162.297 263.593 C 162.396 263.114,162.040 262.998,160.617 263.046 C 159.365 263.088,158.894 262.968,159.082 262.653 C 159.231 262.404,159.056 262.441,158.693 262.735 C 158.114 263.205,158.000 263.131,157.761 262.135 C 157.379 260.540,157.195 260.306,156.663 260.748 C 156.014 261.286,154.845 260.362,154.931 259.379 C 154.979 258.840,154.784 258.636,154.299 258.718 C 153.868 258.790,153.421 258.445,153.135 257.818 C 152.880 257.258,152.510 256.800,152.312 256.800 C 152.115 256.800,152.081 257.008,152.238 257.262 C 152.419 257.555,152.347 257.615,152.042 257.426 C 151.671 257.197,151.680 256.982,152.081 256.488 C 152.413 256.077,152.430 255.948,152.128 256.130 C 151.868 256.286,151.530 256.211,151.378 255.964 C 151.180 255.645,150.989 255.672,150.715 256.057 C 150.438 256.448,150.388 256.339,150.536 255.668 C 150.687 254.986,150.593 254.794,150.185 254.950 C 149.857 255.076,149.263 254.639,148.736 253.882 C 147.622 252.283,145.929 250.621,145.400 250.609 C 145.180 250.604,144.992 250.330,144.982 250.000 C 144.972 249.670,144.702 249.460,144.382 249.533 C 144.062 249.607,143.933 249.533,144.097 249.370 C 144.462 249.004,143.631 247.933,143.192 248.205 C 143.017 248.313,142.979 247.996,143.107 247.501 C 143.313 246.698,143.266 246.660,142.669 247.149 C 142.081 247.631,142.000 247.595,142.000 246.849 C 142.000 246.336,141.746 246.000,141.357 246.000 C 140.950 246.000,140.799 245.780,140.945 245.400 C 141.148 244.871,140.770 244.626,139.930 244.743 C 139.781 244.763,139.544 244.256,139.404 243.616 C 139.209 242.730,138.855 242.388,137.921 242.183 C 137.246 242.034,136.891 241.791,137.132 241.642 C 137.373 241.493,137.466 240.975,137.339 240.490 C 137.213 240.006,136.982 239.687,136.827 239.783 C 136.672 239.879,136.605 239.382,136.678 238.679 C 136.804 237.475,136.788 237.456,136.394 238.368 C 135.805 239.731,135.007 238.834,135.134 236.949 C 135.207 235.861,135.095 235.555,134.682 235.713 C 134.380 235.829,134.133 235.679,134.133 235.379 C 134.133 235.080,134.283 234.928,134.467 235.041 C 134.650 235.155,134.800 235.051,134.800 234.811 C 134.800 234.571,134.531 234.272,134.202 234.146 C 133.874 234.019,133.728 233.710,133.879 233.458 C 134.030 233.206,133.814 233.270,133.400 233.600 C 132.961 233.950,132.772 233.991,132.947 233.700 C 133.119 233.414,133.047 233.200,132.781 233.200 C 132.520 233.200,132.421 232.921,132.557 232.568 C 132.918 231.628,132.387 229.777,131.953 230.462 C 131.690 230.877,131.611 230.841,131.606 230.300 C 131.603 229.915,131.464 229.600,131.298 229.600 C 130.878 229.600,129.895 227.293,130.144 226.890 C 130.256 226.710,130.182 226.300,129.980 225.981 C 129.685 225.515,129.611 225.558,129.604 226.200 C 129.579 228.539,128.319 224.301,128.236 221.600 C 128.186 219.950,127.914 218.173,127.632 217.652 C 127.351 217.130,127.301 216.815,127.523 216.952 C 127.766 217.103,127.839 216.871,127.707 216.367 C 127.541 215.732,127.408 215.660,127.151 216.066 C 126.888 216.481,126.811 216.451,126.806 215.933 C 126.803 215.567,126.596 215.199,126.347 215.116 C 126.049 215.016,125.885 213.496,125.867 210.682 C 125.851 207.974,125.687 206.398,125.421 206.394 C 125.139 206.390,125.143 206.291,125.435 206.094 C 125.921 205.765,125.963 203.653,125.497 202.934 C 125.331 202.678,125.356 202.408,125.554 202.334 C 125.753 202.260,125.783 201.357,125.620 200.300 C 125.459 199.255,125.443 198.400,125.585 198.400 C 125.727 198.400,125.841 195.444,125.837 191.830 L 125.831 185.260 126.984 184.130 C 127.619 183.509,127.989 183.253,127.807 183.562 C 127.579 183.950,127.626 184.031,127.958 183.826 C 128.326 183.598,128.329 183.397,127.970 182.964 C 127.713 182.654,127.659 182.400,127.851 182.400 C 128.043 182.400,128.200 181.967,128.200 181.438 C 128.200 180.909,128.065 180.560,127.900 180.662 C 127.735 180.764,127.600 180.657,127.600 180.424 C 127.600 180.191,127.758 180.000,127.950 180.000 C 128.143 180.000,128.234 179.032,128.151 177.848 C 128.043 176.290,128.166 175.560,128.597 175.203 C 128.924 174.931,129.090 174.505,128.966 174.255 C 128.842 174.005,129.043 174.160,129.413 174.600 C 130.066 175.377,130.081 175.362,129.912 174.100 C 129.817 173.385,129.908 172.800,130.116 172.800 C 130.323 172.800,130.401 172.446,130.288 172.014 C 130.175 171.581,130.199 171.263,130.341 171.307 C 130.924 171.487,132.643 169.249,132.680 168.262 C 132.747 166.488,132.780 166.400,133.376 166.400 C 133.693 166.400,134.081 166.192,134.238 165.938 C 134.415 165.652,134.348 165.585,134.062 165.762 C 133.808 165.919,133.600 165.836,133.600 165.577 C 133.600 165.315,133.930 165.193,134.346 165.302 C 134.979 165.467,135.082 165.279,135.028 164.048 C 134.954 162.354,135.519 161.194,136.276 161.484 C 136.649 161.628,136.727 161.476,136.537 160.979 C 136.350 160.492,136.411 160.360,136.732 160.558 C 136.989 160.717,137.222 160.657,137.250 160.424 C 137.278 160.191,137.334 159.775,137.375 159.500 C 137.416 159.225,137.281 158.775,137.076 158.500 C 136.817 158.154,136.895 158.000,137.331 158.000 C 137.677 158.000,138.144 157.685,138.368 157.300 C 138.693 156.742,138.783 156.722,138.813 157.200 C 138.834 157.539,139.014 157.393,139.226 156.863 C 139.433 156.348,139.501 155.763,139.377 155.563 C 139.254 155.363,139.478 155.197,139.876 155.194 C 140.490 155.189,140.509 155.129,140.000 154.800 C 139.487 154.469,139.502 154.411,140.100 154.406 C 140.485 154.403,140.800 154.610,140.800 154.867 C 140.800 155.450,141.372 154.915,141.437 154.272 C 141.563 153.028,142.157 152.001,142.747 152.006 C 143.315 152.011,143.322 152.063,142.800 152.400 C 142.470 152.613,142.320 152.791,142.467 152.794 C 142.614 152.797,143.005 152.904,143.336 153.031 C 143.756 153.192,143.903 153.041,143.821 152.531 C 143.756 152.129,143.813 151.620,143.946 151.400 C 144.079 151.180,144.206 150.910,144.228 150.800 C 144.383 150.038,144.956 149.200,145.323 149.200 C 145.615 149.200,145.601 149.359,145.280 149.680 C 145.016 149.944,144.800 150.339,144.800 150.558 C 144.800 150.776,145.205 150.418,145.700 149.760 C 146.844 148.241,148.241 146.844,149.760 145.700 C 150.418 145.205,150.776 144.800,150.558 144.800 C 150.339 144.800,149.944 145.016,149.680 145.280 C 149.359 145.601,149.200 145.615,149.200 145.323 C 149.200 144.939,150.539 144.149,150.639 144.474 C 150.660 144.543,150.930 144.398,151.239 144.151 C 151.547 143.905,152.115 143.754,152.500 143.816 C 153.288 143.943,153.299 143.923,152.944 142.999 C 152.740 142.468,152.620 142.441,152.350 142.866 C 152.086 143.283,152.011 143.257,152.006 142.747 C 152.001 142.157,153.028 141.563,154.272 141.437 C 154.915 141.372,155.450 140.800,154.867 140.800 C 154.610 140.800,154.403 140.485,154.406 140.100 C 154.411 139.502,154.469 139.487,154.800 140.000 C 155.129 140.509,155.189 140.490,155.194 139.876 C 155.197 139.478,155.363 139.254,155.563 139.377 C 155.763 139.501,156.348 139.433,156.863 139.226 C 157.393 139.014,157.539 138.834,157.200 138.813 C 156.722 138.783,156.742 138.693,157.300 138.368 C 157.685 138.144,158.000 137.677,158.000 137.331 C 158.000 136.895,158.154 136.817,158.500 137.076 C 158.775 137.281,159.225 137.416,159.500 137.375 C 159.775 137.334,160.191 137.278,160.424 137.250 C 160.657 137.222,160.717 136.989,160.558 136.732 C 160.360 136.411,160.492 136.350,160.979 136.537 C 161.476 136.727,161.628 136.649,161.484 136.276 C 161.194 135.519,162.354 134.954,164.048 135.028 C 165.279 135.082,165.467 134.979,165.302 134.346 C 165.193 133.930,165.315 133.600,165.577 133.600 C 165.836 133.600,165.919 133.808,165.762 134.062 C 165.585 134.348,165.652 134.415,165.938 134.238 C 166.192 134.081,166.400 133.693,166.400 133.376 C 166.400 133.028,166.796 132.800,167.400 132.800 C 167.950 132.800,168.400 132.584,168.400 132.320 C 168.400 131.977,168.523 131.963,168.831 132.271 C 169.256 132.696,171.495 130.951,171.307 130.341 C 171.263 130.199,171.581 130.175,172.014 130.288 C 172.446 130.401,172.800 130.305,172.800 130.075 C 172.800 129.800,173.212 129.774,174.000 130.000 C 175.345 130.386,175.546 130.141,174.508 129.382 C 173.904 128.940,173.968 128.900,175.008 129.069 C 175.829 129.202,176.032 129.145,175.662 128.884 C 174.977 128.403,176.339 128.066,178.500 128.183 C 179.325 128.227,180.000 128.115,180.000 127.932 C 180.000 127.749,180.191 127.600,180.424 127.600 C 180.657 127.600,180.764 127.735,180.662 127.900 C 180.560 128.065,180.909 128.200,181.438 128.200 C 181.967 128.200,182.400 128.043,182.400 127.851 C 182.400 127.659,182.654 127.713,182.964 127.970 C 183.397 128.329,183.598 128.326,183.826 127.958 C 184.031 127.626,183.950 127.579,183.562 127.807 C 183.253 127.989,183.509 127.619,184.130 126.984 L 185.260 125.831 191.828 125.837 C 197.810 125.843,198.416 125.779,198.625 125.122 C 198.875 124.335,200.963 124.093,201.400 124.800 M78.549 171.518 C 78.813 171.944,78.366 175.175,78.050 175.136 C 76.800 174.983,76.329 175.233,76.800 175.800 C 77.134 176.202,77.168 176.565,76.905 176.900 C 76.689 177.175,76.498 179.290,76.479 181.600 C 76.430 187.971,76.209 190.355,75.619 190.902 C 75.253 191.241,75.167 191.250,75.348 190.928 C 75.494 190.668,75.385 190.324,75.107 190.164 C 74.828 190.003,74.720 190.005,74.866 190.168 C 75.012 190.332,74.875 191.081,74.561 191.833 C 74.220 192.647,74.153 193.200,74.395 193.200 C 74.618 193.200,74.800 192.990,74.800 192.733 C 74.800 192.477,74.916 192.382,75.057 192.524 C 75.198 192.665,75.110 193.027,74.860 193.327 C 74.611 193.628,74.525 193.992,74.670 194.137 C 74.815 194.282,74.678 194.405,74.367 194.412 C 73.964 194.421,74.005 194.544,74.508 194.837 C 74.919 195.076,75.092 195.449,74.920 195.725 C 74.432 196.505,74.439 197.200,74.935 197.206 C 75.198 197.210,75.139 197.381,74.800 197.600 C 74.470 197.813,74.380 197.993,74.600 198.000 C 74.820 198.007,74.730 198.187,74.400 198.400 C 74.000 198.658,73.967 198.790,74.300 198.794 C 74.605 198.798,74.800 199.355,74.800 200.224 C 74.800 201.071,74.962 201.547,75.200 201.400 C 75.420 201.264,75.600 201.351,75.600 201.594 C 75.600 201.837,75.304 201.982,74.941 201.918 C 74.579 201.853,74.196 202.050,74.090 202.356 C 73.983 202.661,74.055 202.813,74.249 202.693 C 74.444 202.573,74.610 202.998,74.618 203.637 C 74.627 204.277,74.469 204.800,74.268 204.800 C 74.067 204.800,74.124 205.068,74.396 205.396 C 74.668 205.723,75.078 205.875,75.307 205.734 C 75.549 205.584,75.604 205.670,75.438 205.938 C 75.281 206.192,74.871 206.400,74.527 206.400 C 73.990 206.400,73.980 206.496,74.451 207.077 C 74.753 207.449,74.794 207.630,74.542 207.479 C 74.246 207.302,74.105 207.538,74.142 208.152 C 74.178 208.730,74.395 209.023,74.700 208.906 C 74.987 208.796,75.205 209.030,75.213 209.457 C 75.225 210.178,75.242 210.178,75.783 209.464 C 76.270 208.822,76.345 209.410,76.374 214.064 C 76.418 221.121,76.549 223.285,76.972 223.962 C 77.213 224.347,77.178 224.434,76.862 224.238 C 76.172 223.812,76.304 224.762,77.036 225.493 C 77.527 225.984,77.743 226.016,77.981 225.631 C 78.526 224.748,78.694 225.994,78.536 229.749 C 78.392 233.146,78.420 233.288,79.193 233.086 C 79.638 232.970,79.911 233.021,79.800 233.200 C 79.689 233.380,79.767 233.948,79.974 234.463 C 80.314 235.311,80.355 235.324,80.409 234.600 C 80.562 232.555,81.084 236.060,80.995 238.527 C 80.941 239.997,81.066 241.200,81.272 241.200 C 81.479 241.200,81.538 241.376,81.405 241.592 C 81.020 242.215,81.995 243.688,82.631 243.444 C 83.129 243.252,83.301 243.642,83.166 244.655 C 83.147 244.796,83.282 245.021,83.466 245.155 C 84.270 245.744,84.939 246.846,84.418 246.723 C 84.133 246.655,83.811 246.844,83.703 247.142 C 83.555 247.549,83.741 247.609,84.450 247.384 C 85.292 247.117,85.335 247.155,84.848 247.742 C 84.379 248.307,84.394 248.400,84.953 248.400 C 85.470 248.400,85.591 248.788,85.543 250.300 C 85.446 253.379,85.536 253.908,86.037 253.200 C 86.358 252.746,86.510 252.722,86.665 253.102 C 86.777 253.379,87.033 253.503,87.234 253.379 C 87.435 253.255,87.600 253.813,87.600 254.619 C 87.600 255.712,87.743 256.031,88.161 255.870 C 88.498 255.741,88.805 255.975,88.931 256.459 C 89.083 257.040,88.983 257.202,88.571 257.044 C 88.257 256.924,88.000 256.914,88.000 257.022 C 88.000 257.131,88.450 257.391,89.000 257.600 C 89.917 257.949,90.201 258.583,90.030 259.900 C 89.994 260.175,90.163 260.400,90.406 260.400 C 90.649 260.400,90.744 260.568,90.617 260.773 C 90.490 260.978,90.785 261.424,91.271 261.765 C 91.891 262.199,92.174 262.836,92.217 263.890 C 92.257 264.863,92.477 265.411,92.839 265.437 C 94.188 265.536,94.363 265.631,94.160 266.160 C 94.042 266.467,94.141 266.840,94.379 266.987 C 94.618 267.135,94.709 267.423,94.583 267.628 C 94.456 267.832,94.563 268.000,94.819 268.000 C 95.076 268.000,95.179 268.278,95.047 268.621 C 94.911 268.977,94.978 269.137,95.205 268.997 C 95.422 268.863,95.600 268.961,95.600 269.215 C 95.600 269.469,95.955 270.175,96.388 270.783 C 96.822 271.392,97.047 272.044,96.888 272.232 C 96.730 272.420,96.950 272.310,97.377 271.987 C 97.804 271.664,98.033 271.602,97.885 271.848 C 97.737 272.095,97.973 272.708,98.408 273.210 C 98.844 273.712,99.200 274.285,99.200 274.485 C 99.200 274.684,99.378 274.737,99.595 274.603 C 99.830 274.458,99.884 274.637,99.727 275.045 C 99.549 275.511,99.615 275.638,99.932 275.442 C 100.189 275.283,100.400 275.363,100.400 275.619 C 100.400 275.876,100.664 275.984,100.987 275.860 C 101.310 275.736,101.681 275.807,101.811 276.017 C 101.941 276.228,101.887 276.400,101.690 276.400 C 101.178 276.400,101.355 277.823,101.958 278.549 C 102.239 278.888,102.357 279.346,102.220 279.567 C 102.083 279.789,102.563 280.140,103.286 280.349 C 104.009 280.557,104.364 280.744,104.076 280.764 C 103.788 280.784,103.666 280.983,103.804 281.207 C 103.942 281.430,104.206 281.520,104.390 281.406 C 104.575 281.292,104.621 281.604,104.493 282.099 C 104.279 282.933,104.317 282.955,105.007 282.400 C 105.605 281.919,105.685 281.913,105.411 282.368 C 105.157 282.790,105.234 282.872,105.714 282.688 C 106.141 282.525,106.443 282.707,106.608 283.226 C 106.745 283.658,107.029 283.906,107.239 283.776 C 107.448 283.647,107.594 283.689,107.563 283.870 C 107.439 284.580,107.613 285.321,107.848 285.086 C 107.984 284.950,108.358 285.101,108.680 285.423 C 109.001 285.744,109.458 285.888,109.694 285.742 C 109.951 285.583,110.007 285.665,109.834 285.945 C 109.675 286.202,109.332 286.307,109.072 286.177 C 108.813 286.047,108.949 286.224,109.376 286.570 C 109.804 286.917,110.299 287.200,110.476 287.200 C 110.654 287.200,110.800 287.393,110.800 287.629 C 110.800 288.376,111.907 289.270,112.123 288.696 C 112.225 288.423,112.593 288.830,112.939 289.600 C 113.495 290.836,113.844 290.939,113.614 289.800 C 113.570 289.580,113.681 289.548,113.862 289.728 C 114.042 289.909,114.192 290.312,114.195 290.624 C 114.198 290.936,114.294 291.148,114.409 291.096 C 114.787 290.923,116.549 292.785,116.271 293.062 C 116.122 293.211,115.997 293.078,115.994 292.767 C 115.989 292.288,115.931 292.290,115.620 292.781 C 115.096 293.610,115.520 294.071,116.382 293.609 C 116.909 293.328,117.246 293.373,117.575 293.770 C 117.923 294.190,117.909 294.380,117.517 294.561 C 117.108 294.750,117.105 294.849,117.500 295.033 C 117.775 295.162,118.000 295.532,118.000 295.857 C 118.000 296.182,118.183 296.334,118.407 296.196 C 118.630 296.058,118.692 295.749,118.545 295.511 C 118.383 295.249,118.463 295.192,118.745 295.366 C 119.002 295.525,119.139 295.778,119.049 295.928 C 118.814 296.316,119.861 297.206,120.179 296.888 C 120.324 296.743,120.312 296.963,120.153 297.378 C 119.952 297.902,120.006 298.043,120.332 297.842 C 120.589 297.683,120.800 297.765,120.800 298.025 C 120.800 298.359,120.999 298.336,121.477 297.949 C 121.862 297.636,122.032 297.603,121.870 297.872 C 121.714 298.132,121.770 298.458,121.993 298.596 C 122.217 298.734,122.400 298.635,122.400 298.375 C 122.400 298.025,122.539 298.018,122.937 298.348 C 123.232 298.593,123.592 298.675,123.737 298.530 C 123.882 298.385,124.000 298.567,124.000 298.933 C 124.000 299.300,124.191 299.600,124.424 299.600 C 124.657 299.600,124.717 299.811,124.558 300.068 C 124.364 300.382,124.486 300.453,124.930 300.282 C 125.337 300.126,125.554 300.215,125.495 300.514 C 125.443 300.781,125.898 301.057,126.507 301.127 C 127.118 301.198,127.503 301.433,127.367 301.654 C 127.230 301.875,127.431 301.997,127.818 301.927 C 128.203 301.857,128.594 302.070,128.689 302.400 C 128.842 302.933,128.814 302.933,128.437 302.400 C 128.125 301.959,128.011 301.939,128.006 302.324 C 128.003 302.629,127.791 302.727,127.500 302.559 C 127.210 302.392,127.140 302.424,127.333 302.636 C 127.697 303.033,127.862 303.073,129.500 303.156 C 130.346 303.199,130.464 303.298,130.010 303.586 C 129.529 303.890,129.603 304.027,130.410 304.325 C 130.954 304.527,131.355 304.851,131.300 305.046 C 131.245 305.241,131.515 305.409,131.900 305.420 C 133.503 305.465,134.676 306.089,133.800 306.431 C 133.043 306.727,133.048 306.745,133.900 306.772 C 134.395 306.787,134.755 307.014,134.700 307.275 C 134.645 307.536,134.960 307.775,135.400 307.807 C 135.840 307.838,136.624 307.894,137.143 307.932 C 137.748 307.976,138.012 308.191,137.881 308.533 C 137.691 309.028,139.806 310.117,140.663 309.965 C 141.689 309.783,142.401 310.083,142.406 310.700 C 142.409 311.085,142.601 311.670,142.832 312.000 C 143.157 312.463,143.197 312.372,143.010 311.600 C 142.777 310.642,142.788 310.635,143.283 311.430 C 143.627 311.982,144.169 312.238,144.899 312.192 C 146.251 312.108,147.600 312.997,147.600 313.971 C 147.600 314.571,147.886 314.679,149.248 314.597 C 151.256 314.476,153.057 315.242,152.133 315.825 C 151.670 316.117,151.790 316.220,152.668 316.288 C 153.291 316.336,154.250 316.455,154.800 316.554 C 155.350 316.653,155.935 316.748,156.100 316.767 C 156.265 316.785,156.400 317.049,156.400 317.354 C 156.400 318.260,158.422 319.408,158.844 318.742 C 159.132 318.288,159.189 318.289,159.194 318.749 C 159.199 319.214,159.303 319.214,159.877 318.749 C 160.249 318.447,160.446 318.380,160.315 318.601 C 160.166 318.849,160.859 318.987,162.138 318.962 C 164.408 318.919,165.298 319.117,165.000 319.600 C 164.893 319.774,165.085 320.024,165.428 320.155 C 165.795 320.296,165.930 320.601,165.757 320.897 C 165.595 321.174,165.884 321.040,166.400 320.600 C 166.916 320.160,167.214 320.012,167.063 320.271 C 166.677 320.934,168.094 321.314,171.400 321.432 C 175.133 321.565,175.086 321.556,174.400 322.000 C 173.831 322.368,174.577 322.625,175.700 322.447 C 175.865 322.421,176.000 322.599,176.000 322.843 C 176.000 323.099,175.706 323.174,175.300 323.019 C 174.799 322.828,174.722 322.876,175.029 323.186 C 175.626 323.788,177.134 324.030,177.419 323.569 C 177.549 323.359,177.823 323.291,178.028 323.417 C 178.232 323.544,178.403 323.412,178.406 323.124 C 178.410 322.768,178.507 322.741,178.706 323.039 C 179.071 323.586,179.033 323.582,185.662 323.702 C 188.666 323.756,191.038 323.938,190.934 324.107 C 190.830 324.275,190.579 324.311,190.377 324.186 C 190.175 324.061,190.116 324.237,190.246 324.577 C 190.377 324.917,190.676 325.077,190.910 324.932 C 191.165 324.774,191.246 324.903,191.111 325.254 C 190.955 325.661,191.160 325.840,191.785 325.840 C 192.481 325.840,192.644 325.656,192.507 325.020 C 192.373 324.397,192.425 324.333,192.723 324.755 C 192.962 325.093,193.526 325.231,194.167 325.108 C 194.746 324.998,195.316 325.064,195.434 325.255 C 195.552 325.446,195.987 325.421,196.400 325.200 C 196.926 324.918,197.237 324.936,197.438 325.261 C 197.630 325.571,197.539 325.618,197.162 325.403 C 196.726 325.154,196.704 325.195,197.065 325.586 C 197.719 326.295,198.358 325.772,198.151 324.700 L 197.977 323.800 198.376 324.700 C 198.773 325.598,200.896 326.015,201.348 325.284 C 201.456 325.110,200.882 325.041,200.072 325.132 C 199.262 325.222,198.690 325.202,198.800 325.086 C 199.308 324.553,201.799 324.620,201.799 325.167 C 201.800 325.478,202.050 325.817,202.356 325.919 C 202.661 326.020,202.810 325.939,202.685 325.738 C 202.561 325.536,202.806 325.371,203.229 325.371 C 203.653 325.371,204.003 325.558,204.006 325.786 C 204.009 326.014,204.187 325.930,204.400 325.600 C 204.745 325.067,204.789 325.067,204.800 325.600 C 204.811 326.133,204.855 326.133,205.200 325.600 C 205.413 325.270,205.591 325.197,205.594 325.438 C 205.600 325.912,207.381 325.952,207.844 325.489 C 207.999 325.334,208.397 325.430,208.729 325.703 C 209.253 326.136,209.270 326.085,208.856 325.309 C 208.443 324.533,208.469 324.452,209.060 324.678 C 209.547 324.865,209.676 324.775,209.516 324.358 C 209.327 323.866,210.176 323.778,215.046 323.788 C 218.211 323.795,220.800 323.660,220.800 323.490 C 220.800 323.319,221.617 323.241,222.614 323.316 C 224.022 323.422,224.382 323.330,224.219 322.905 C 224.104 322.605,224.187 322.468,224.405 322.603 C 224.622 322.737,224.800 323.117,224.800 323.447 C 224.800 323.777,224.972 323.941,225.183 323.811 C 225.393 323.681,225.473 323.333,225.360 323.039 C 224.996 322.091,226.220 321.333,227.959 321.428 C 228.976 321.483,229.602 321.343,229.606 321.059 C 229.610 320.777,229.745 320.809,229.956 321.143 C 230.186 321.506,230.387 321.544,230.564 321.258 C 230.742 320.970,231.157 320.956,231.837 321.214 C 232.537 321.480,232.765 321.467,232.583 321.172 C 232.425 320.917,232.617 320.797,233.060 320.873 C 233.562 320.959,233.765 320.788,233.692 320.342 C 233.543 319.432,235.239 318.945,238.400 318.990 C 240.276 319.017,241.147 318.857,241.530 318.414 C 241.821 318.076,241.945 318.025,241.806 318.300 C 241.495 318.913,241.803 318.934,242.857 318.369 C 243.300 318.132,243.575 317.712,243.469 317.436 C 243.363 317.160,243.484 316.914,243.738 316.890 C 245.313 316.743,247.253 315.982,248.124 315.170 C 248.728 314.608,249.358 314.477,250.838 314.608 C 252.336 314.740,252.720 314.658,252.560 314.240 C 252.312 313.592,253.417 312.400,254.267 312.400 C 254.602 312.400,255.399 312.028,256.038 311.573 C 257.276 310.691,257.679 310.939,256.500 311.857 C 255.839 312.372,255.841 312.388,256.531 312.146 C 256.932 312.006,257.417 311.483,257.606 310.984 C 257.873 310.281,258.228 310.095,259.176 310.161 C 260.010 310.219,260.400 310.064,260.400 309.674 C 260.400 309.187,260.501 309.184,261.077 309.651 C 261.654 310.120,261.703 310.117,261.411 309.632 C 261.154 309.206,261.235 309.128,261.734 309.319 C 262.216 309.504,262.400 309.358,262.400 308.787 C 262.400 308.035,262.595 307.949,264.600 307.807 C 265.040 307.775,265.355 307.536,265.300 307.275 C 265.244 307.009,265.683 306.776,266.300 306.746 C 267.243 306.699,267.272 306.666,266.500 306.518 C 265.236 306.274,265.377 305.606,266.700 305.572 C 267.793 305.544,269.766 304.894,269.000 304.815 C 268.780 304.792,269.278 304.452,270.107 304.060 C 270.935 303.667,271.475 303.195,271.307 303.010 C 271.138 302.824,271.324 302.789,271.721 302.932 C 272.117 303.074,272.344 303.033,272.225 302.841 C 271.934 302.369,272.988 301.529,273.401 301.903 C 273.581 302.067,273.599 301.975,273.441 301.700 C 273.273 301.409,273.371 301.197,273.676 301.194 C 274.057 301.189,274.036 301.082,273.600 300.800 C 272.790 300.276,273.787 300.258,274.760 300.778 C 275.279 301.057,275.467 301.008,275.467 300.596 C 275.467 300.288,275.272 300.131,275.033 300.247 C 274.795 300.364,274.933 300.188,275.340 299.856 C 275.747 299.525,275.963 299.064,275.820 298.832 C 275.653 298.562,276.000 298.462,276.788 298.554 C 277.464 298.633,278.131 298.512,278.270 298.287 C 278.426 298.034,278.323 298.000,278.000 298.200 C 277.646 298.419,277.573 298.368,277.774 298.042 C 278.003 297.671,278.218 297.680,278.711 298.081 C 279.256 298.524,279.312 298.499,279.092 297.913 C 278.951 297.535,279.035 297.102,279.279 296.951 C 279.538 296.791,279.612 296.858,279.455 297.111 C 279.308 297.349,279.370 297.658,279.593 297.796 C 279.817 297.934,280.000 297.864,280.000 297.639 C 280.000 297.415,280.379 296.878,280.843 296.446 C 281.306 296.014,281.577 295.486,281.445 295.273 C 281.313 295.059,281.483 294.777,281.823 294.646 C 282.223 294.493,282.342 294.571,282.159 294.866 C 281.979 295.157,282.054 295.214,282.365 295.021 C 282.634 294.855,282.764 294.482,282.653 294.193 C 282.446 293.655,283.431 293.048,283.969 293.381 C 284.133 293.482,284.267 293.311,284.267 293.000 C 284.267 292.689,284.072 292.533,283.833 292.652 C 283.595 292.772,283.845 292.508,284.389 292.066 C 284.933 291.624,285.518 291.349,285.689 291.455 C 285.860 291.561,286.000 291.372,286.000 291.036 C 286.000 290.629,286.224 290.511,286.669 290.682 C 287.168 290.873,287.276 290.775,287.093 290.299 C 286.869 289.713,287.656 288.599,288.037 288.963 C 288.127 289.049,288.432 288.867,288.716 288.560 C 288.999 288.252,289.112 288.000,288.967 288.000 C 288.821 288.000,288.917 287.741,289.180 287.424 C 289.443 287.107,289.947 286.958,290.299 287.093 C 290.775 287.276,290.873 287.168,290.682 286.669 C 290.511 286.224,290.629 286.000,291.036 286.000 C 291.372 286.000,291.561 285.860,291.455 285.689 C 291.349 285.518,291.624 284.933,292.066 284.389 C 292.508 283.845,292.772 283.595,292.652 283.833 C 292.533 284.072,292.689 284.267,293.000 284.267 C 293.311 284.267,293.482 284.133,293.381 283.969 C 293.048 283.431,293.655 282.446,294.193 282.653 C 294.482 282.764,294.855 282.634,295.021 282.365 C 295.214 282.054,295.157 281.979,294.866 282.159 C 294.571 282.342,294.493 282.223,294.646 281.823 C 294.777 281.483,295.059 281.313,295.273 281.445 C 295.486 281.577,296.014 281.306,296.446 280.843 C 296.878 280.379,297.415 280.000,297.639 280.000 C 297.864 280.000,297.934 279.817,297.796 279.593 C 297.658 279.370,297.349 279.308,297.111 279.455 C 296.858 279.612,296.791 279.538,296.951 279.279 C 297.102 279.035,297.535 278.951,297.913 279.092 C 298.499 279.312,298.524 279.256,298.081 278.711 C 297.680 278.218,297.671 278.003,298.042 277.774 C 298.373 277.569,298.422 277.652,298.198 278.038 C 298.013 278.357,298.024 278.461,298.223 278.280 C 298.416 278.104,298.586 277.474,298.601 276.880 C 298.617 276.256,298.834 275.842,299.114 275.900 C 299.382 275.955,299.613 275.595,299.628 275.100 C 299.654 274.286,299.685 274.273,299.955 274.960 C 300.217 275.628,300.316 275.568,300.773 274.466 C 301.059 273.775,301.480 273.326,301.708 273.467 C 301.937 273.608,302.008 273.536,301.866 273.307 C 301.558 272.808,302.551 271.884,302.958 272.291 C 303.114 272.448,303.114 272.221,302.957 271.788 C 302.801 271.355,302.824 271.138,303.010 271.307 C 303.195 271.475,303.667 270.935,304.060 270.107 C 304.452 269.278,304.792 268.780,304.815 269.000 C 304.894 269.766,305.544 267.793,305.572 266.700 C 305.606 265.377,306.274 265.236,306.518 266.500 C 306.666 267.272,306.699 267.243,306.746 266.300 C 306.776 265.690,307.009 265.245,307.269 265.300 C 307.561 265.362,307.743 264.833,307.750 263.900 C 307.759 262.611,307.888 262.400,308.668 262.400 C 309.350 262.400,309.511 262.235,309.319 261.734 C 309.128 261.235,309.206 261.154,309.632 261.411 C 310.117 261.703,310.120 261.654,309.651 261.077 C 309.184 260.501,309.187 260.400,309.674 260.400 C 310.064 260.400,310.219 260.010,310.161 259.176 C 310.095 258.228,310.281 257.873,310.984 257.606 C 311.483 257.417,312.006 256.932,312.146 256.531 C 312.388 255.841,312.372 255.839,311.857 256.500 C 310.970 257.639,310.678 257.297,311.514 256.100 C 311.937 255.495,312.403 254.505,312.549 253.900 C 312.784 252.928,313.382 252.576,314.500 252.753 C 314.665 252.779,314.800 252.530,314.800 252.200 C 314.800 251.870,314.614 251.600,314.386 251.600 C 314.101 251.600,314.101 251.360,314.384 250.829 C 314.611 250.405,314.703 249.814,314.589 249.515 C 314.474 249.216,314.723 248.604,315.141 248.155 C 315.980 247.255,316.741 245.333,316.890 243.738 C 316.914 243.484,317.160 243.363,317.436 243.469 C 317.712 243.575,318.132 243.300,318.369 242.857 C 318.934 241.803,318.913 241.495,318.300 241.806 C 318.025 241.945,318.078 241.821,318.419 241.530 C 318.848 241.163,319.040 240.263,319.046 238.600 C 319.057 235.550,319.473 233.866,320.150 234.125 C 320.434 234.235,320.667 234.079,320.667 233.779 C 320.667 233.480,320.512 233.331,320.323 233.447 C 320.135 233.564,320.342 233.015,320.785 232.227 C 321.780 230.455,321.793 230.369,321.134 229.951 C 320.840 229.765,320.788 229.609,321.018 229.606 C 321.253 229.603,321.450 228.627,321.468 227.369 C 321.487 226.142,321.704 224.936,321.951 224.689 C 322.283 224.357,322.400 224.475,322.400 225.144 C 322.400 225.641,322.564 225.946,322.765 225.822 C 322.966 225.698,322.998 225.104,322.838 224.503 C 322.611 223.657,322.732 223.254,323.373 222.719 C 323.838 222.330,323.981 222.021,323.700 222.013 C 323.172 221.999,322.981 220.800,323.506 220.800 C 323.675 220.800,323.798 218.415,323.780 215.500 C 323.744 209.686,323.812 209.200,324.666 209.200 C 324.986 209.200,325.136 209.020,325.000 208.800 C 324.864 208.580,325.078 208.397,325.476 208.394 C 325.908 208.390,326.027 208.269,325.771 208.094 C 325.066 207.611,324.762 206.400,325.346 206.400 C 326.140 206.400,325.967 205.243,325.133 204.979 C 324.730 204.851,324.400 204.568,324.400 204.349 C 324.400 204.131,324.544 204.042,324.719 204.150 C 324.895 204.258,325.300 204.182,325.619 203.980 C 326.103 203.673,326.086 203.611,325.513 203.606 C 325.067 203.602,324.906 203.389,325.055 203.000 C 325.182 202.670,325.098 202.400,324.870 202.400 C 324.641 202.400,324.469 201.849,324.488 201.176 C 324.510 200.415,324.641 200.143,324.835 200.457 C 325.007 200.735,325.066 201.093,324.967 201.253 C 324.868 201.414,324.955 201.648,325.159 201.775 C 325.377 201.909,325.455 201.337,325.348 200.403 C 325.217 199.264,325.314 198.798,325.682 198.794 C 326.051 198.790,326.028 198.677,325.600 198.400 C 325.270 198.187,325.180 198.007,325.400 198.000 C 325.620 197.993,325.537 197.821,325.216 197.618 C 324.712 197.299,324.725 197.146,325.310 196.499 C 325.834 195.921,325.881 195.641,325.515 195.275 C 325.148 194.908,325.173 194.799,325.620 194.794 C 326.114 194.789,326.111 194.725,325.600 194.363 C 325.108 194.015,325.098 193.900,325.545 193.721 C 326.006 193.537,326.006 193.448,325.545 193.152 C 325.092 192.859,325.101 192.734,325.600 192.406 C 325.956 192.172,326.008 192.010,325.727 192.006 C 325.467 192.003,325.136 191.627,324.991 191.171 C 324.846 190.715,324.515 190.424,324.254 190.524 C 323.730 190.725,323.295 181.566,323.679 178.400 C 323.763 177.705,323.627 177.437,323.232 177.523 C 322.742 177.628,322.742 177.550,323.232 176.946 C 323.679 176.395,323.685 176.316,323.257 176.573 C 322.844 176.822,322.777 176.701,322.979 176.065 C 323.163 175.486,322.992 175.014,322.422 174.526 C 321.902 174.081,321.600 173.339,321.600 172.506 L 321.600 171.190 336.500 171.295 L 351.400 171.400 351.600 254.700 C 351.726 307.184,351.659 338.000,351.420 338.000 C 351.211 338.000,351.248 338.208,351.501 338.461 C 351.832 338.792,351.843 339.145,351.541 339.710 C 351.206 340.336,351.231 340.430,351.660 340.171 C 352.106 339.903,352.110 339.958,351.683 340.484 C 351.262 341.004,351.262 341.154,351.682 341.294 C 352.046 341.415,351.880 341.882,351.116 342.884 C 350.521 343.663,350.147 344.413,350.284 344.551 C 350.421 344.688,350.211 344.800,349.818 344.800 C 349.196 344.800,349.174 344.889,349.651 345.475 C 350.133 346.068,350.113 346.117,349.479 345.879 C 349.076 345.728,348.859 345.771,348.986 345.977 C 349.111 346.179,349.030 346.458,348.807 346.596 C 348.583 346.734,348.400 347.197,348.400 347.624 C 348.400 348.133,348.125 348.400,347.600 348.400 C 347.156 348.400,346.800 348.667,346.800 349.000 C 346.800 349.330,346.609 349.600,346.376 349.600 C 346.143 349.600,346.054 349.437,346.177 349.237 C 346.300 349.038,346.041 348.969,345.601 349.084 C 345.160 349.199,344.800 349.572,344.800 349.913 C 344.800 350.254,344.680 350.413,344.532 350.266 C 344.385 350.119,343.959 350.275,343.586 350.613 C 342.977 351.164,328.285 351.226,202.640 351.207 C 108.029 351.193,62.125 351.319,61.611 351.594 C 61.192 351.819,60.761 351.861,60.655 351.689 C 60.548 351.516,59.772 351.401,58.931 351.431 C 57.911 351.469,57.110 351.225,56.530 350.702 C 56.051 350.270,55.468 350.034,55.234 350.179 C 54.966 350.344,54.906 350.190,55.070 349.761 C 55.292 349.183,55.155 349.121,54.166 349.352 C 53.313 349.551,53.161 349.515,53.600 349.218 C 54.231 348.791,53.774 348.605,52.500 348.770 C 51.731 348.870,51.907 348.083,52.700 347.876 C 53.227 347.738,53.177 347.681,52.500 347.646 C 52.005 347.621,51.600 347.409,51.600 347.176 C 51.600 346.943,51.375 346.882,51.100 347.041 C 50.825 347.199,50.735 347.179,50.901 346.997 C 51.066 346.814,50.886 346.293,50.501 345.839 C 49.835 345.055,49.835 345.041,50.500 345.556 C 51.503 346.333,51.363 345.909,50.172 344.562 C 48.895 343.120,48.346 341.805,48.670 340.963 C 48.806 340.607,48.667 340.164,48.358 339.972 C 47.902 339.688,47.892 339.476,48.303 338.812 C 48.580 338.365,48.670 338.000,48.503 338.000 C 48.182 338.000,48.265 172.554,48.586 171.700 C 48.803 171.126,78.197 170.948,78.549 171.518 M124.873 200.172 C 124.961 200.927,124.890 201.456,124.716 201.348 C 124.403 201.155,124.255 198.800,124.556 198.800 C 124.642 198.800,124.785 199.417,124.873 200.172 " stroke="none" fill="#fcfcfc" fill-rule="evenodd"></path><path id="path1" d="" stroke="none" fill="#100fcfc" fill-rule="evenodd"></path><path id="path2" d="" stroke="none" fill="#100fcfc" fill-rule="evenodd"></path><path id="path3" d="" stroke="none" fill="#100fcfc" fill-rule="evenodd"></path><path id="path4" d="" stroke="none" fill="#100fcfc" fill-rule="evenodd"></path></g></svg>