<?xml version="1.0" standalone="no"?>
<!DOCTYPE svg PUBLIC "-//W3C//DTD SVG 20010904//EN"
 "http://www.w3.org/TR/2001/REC-SVG-20010904/DTD/svg10.dtd">
<svg version="1.0" xmlns="http://www.w3.org/2000/svg"
 width="128.000000pt" height="128.000000pt" viewBox="0 0 128.000000 128.000000"
 preserveAspectRatio="xMidYMid meet">
<metadata>
Created by potrace 1.16, written by Peter Selinger 2001-2019
</metadata>
<g transform="translate(0.000000,128.000000) scale(0.100000,-0.100000)"
fill="#000000" stroke="none">
<path d="M465 1261 c-216 -62 -394 -243 -449 -457 -21 -81 -21 -247 0 -328 57
-220 248 -410 465 -461 82 -19 236 -19 318 0 166 39 329 167 408 320 55 107
73 181 73 305 0 124 -18 198 -73 305 -78 151 -236 276 -403 319 -84 22 -259
20 -339 -3z m454 -279 c19 -9 44 -30 55 -45 20 -27 21 -41 21 -297 0 -256 -1
-270 -21 -297 -43 -59 -65 -63 -334 -63 -269 0 -291 4 -334 63 -20 27 -21 41
-21 297 0 256 1 270 21 297 43 59 65 63 334 63 214 0 249 -2 279 -18z"/>
<path d="M790 855 l0 -65 65 0 65 0 0 65 0 65 -65 0 -65 0 0 -65z"/>
<path d="M569 753 c-80 -49 -79 -179 1 -227 36 -21 104 -21 140 0 81 48 81
180 0 228 -36 20 -107 20 -141 -1z"/>
<path d="M340 555 c0 -163 0 -166 25 -190 l24 -25 251 0 251 0 24 25 c25 24
25 27 25 190 l0 165 -59 0 -59 0 5 -64 c5 -57 3 -70 -21 -110 -75 -129 -257
-129 -332 0 -23 39 -26 53 -22 109 l4 65 -58 0 -58 0 0 -165z"/>
</g>
</svg>
