<?xml version="1.0" standalone="no"?>
<!DOCTYPE svg PUBLIC "-//W3C//DTD SVG 20010904//EN"
 "http://www.w3.org/TR/2001/REC-SVG-20010904/DTD/svg10.dtd">
<svg version="1.0" xmlns="http://www.w3.org/2000/svg"
 width="128.000000pt" height="128.000000pt" viewBox="0 0 128.000000 128.000000"
 preserveAspectRatio="xMidYMid meet">
<metadata>
Created by potrace 1.16, written by Peter Selinger 2001-2019
</metadata>
<g transform="translate(0.000000,128.000000) scale(0.100000,-0.100000)"
fill="#000000" stroke="none">
<path d="M34 1246 l-34 -34 0 -572 0 -572 34 -34 34 -34 572 0 572 0 34 34 34
34 0 572 0 572 -34 34 -34 34 -572 0 -572 0 -34 -34z m317 -131 c37 -20 69
-70 69 -110 0 -65 -66 -135 -128 -135 -57 0 -121 58 -129 117 -13 101 96 175
188 128z m686 -340 c21 -18 51 -57 68 -90 l30 -60 0 -235 0 -235 -96 -3 c-93
-3 -97 -2 -103 20 -3 13 -6 105 -6 206 0 115 -4 191 -11 205 -18 36 -52 57
-91 57 -59 0 -87 -16 -108 -62 -17 -37 -20 -67 -20 -220 0 -97 -3 -183 -6
-192 -5 -13 -24 -16 -100 -16 l-94 0 0 325 0 325 94 0 c101 0 106 -3 106 -57
l0 -26 34 33 c51 50 80 60 178 57 79 -2 89 -4 125 -32z m-652 -300 l0 -320
-95 0 -95 0 -3 310 c-1 170 0 316 3 323 3 9 28 12 97 10 l93 -3 0 -320z"/>
</g>
</svg>
