<svg id="svg" version="1.1" xmlns="http://www.w3.org/2000/svg" xmlns:xlink="http://www.w3.org/1999/xlink" width="400" height="320" viewBox="0, 0, 400,320"><g id="svgg"><path id="path0" d="M258.240 0.480 C 258.240 0.744,258.060 0.980,257.840 1.005 C 256.625 1.140,254.802 1.291,254.269 1.301 C 253.430 1.316,252.424 1.891,252.636 2.234 C 252.904 2.668,252.172 2.984,251.002 2.940 C 250.421 2.918,249.849 3.055,249.733 3.244 C 249.589 3.476,249.427 3.447,249.233 3.154 C 249.005 2.808,248.825 2.866,248.342 3.440 C 247.666 4.245,247.295 4.381,247.544 3.733 C 247.634 3.498,247.498 3.307,247.242 3.307 C 246.897 3.307,246.845 3.486,247.039 3.997 C 247.312 4.715,246.998 4.791,243.280 4.906 C 242.884 4.918,242.560 5.043,242.560 5.184 C 242.560 5.325,242.380 5.404,242.160 5.360 C 241.940 5.316,241.794 5.455,241.836 5.668 C 241.880 5.894,241.711 5.980,241.433 5.873 C 241.089 5.741,241.010 5.837,241.152 6.208 C 241.304 6.605,241.218 6.676,240.783 6.509 C 240.350 6.343,240.280 6.399,240.489 6.746 C 240.723 7.133,240.684 7.136,240.221 6.761 C 239.869 6.475,239.680 6.447,239.680 6.681 C 239.680 6.878,239.338 7.040,238.919 7.040 C 238.501 7.040,237.961 7.284,237.719 7.581 C 237.428 7.940,237.414 8.042,237.676 7.885 C 237.942 7.725,238.012 7.804,237.889 8.125 C 237.768 8.440,237.388 8.563,236.773 8.485 C 236.260 8.420,235.840 8.496,235.840 8.653 C 235.840 8.811,235.639 8.863,235.392 8.768 C 235.146 8.674,234.836 8.772,234.703 8.988 C 234.538 9.254,234.605 9.304,234.911 9.146 C 235.158 9.017,235.080 9.139,234.739 9.416 C 234.397 9.693,233.893 9.922,233.619 9.925 C 233.180 9.929,233.178 9.967,233.600 10.240 C 234.012 10.506,234.000 10.557,233.520 10.595 C 233.212 10.620,232.780 10.658,232.560 10.680 C 232.340 10.702,232.142 10.900,232.120 11.120 C 232.098 11.340,232.062 11.659,232.040 11.830 C 232.018 12.000,231.799 12.063,231.552 11.968 C 231.306 11.874,231.013 11.945,230.900 12.128 C 230.787 12.310,230.293 12.379,229.801 12.280 C 229.115 12.143,228.907 12.223,228.907 12.621 C 228.907 12.979,229.010 13.038,229.237 12.811 C 229.724 12.324,230.087 12.409,229.876 12.960 C 229.774 13.224,229.491 13.440,229.246 13.440 C 229.001 13.440,228.798 13.620,228.795 13.840 C 228.792 14.107,228.687 14.080,228.480 13.760 C 228.241 13.390,228.169 13.379,228.165 13.714 C 228.162 13.985,227.962 14.072,227.635 13.947 C 227.176 13.771,227.166 13.814,227.555 14.288 C 227.953 14.774,227.925 14.812,227.291 14.648 C 226.901 14.548,226.594 14.559,226.609 14.673 C 226.716 15.498,226.494 15.742,225.760 15.602 C 225.320 15.518,224.960 15.597,224.960 15.778 C 224.960 15.959,224.863 16.010,224.744 15.891 C 224.625 15.772,224.266 16.072,223.946 16.557 C 223.626 17.043,223.363 17.289,223.362 17.104 C 223.361 16.919,223.533 16.595,223.744 16.384 C 224.043 16.085,224.041 16.000,223.736 16.000 C 223.520 16.000,223.259 16.426,223.155 16.947 C 223.050 17.469,222.874 17.884,222.763 17.870 C 222.073 17.783,221.760 17.998,221.760 18.560 C 221.760 18.912,221.616 19.200,221.440 19.200 C 221.264 19.200,221.120 19.488,221.120 19.840 C 221.120 20.411,220.790 20.628,220.086 20.520 C 219.957 20.500,219.617 20.843,219.329 21.282 C 218.727 22.201,218.240 22.319,218.240 21.547 C 218.240 20.708,217.894 21.270,217.786 22.285 C 217.712 22.981,217.522 23.200,216.993 23.200 C 216.191 23.200,215.525 24.026,216.060 24.357 C 216.274 24.489,216.145 24.711,215.723 24.937 C 215.338 25.143,215.040 25.171,215.040 25.000 C 215.040 24.641,214.206 24.717,213.849 25.109 C 213.712 25.259,213.770 25.285,213.978 25.166 C 214.186 25.047,214.446 25.096,214.557 25.275 C 214.667 25.454,214.497 25.610,214.179 25.622 C 213.650 25.643,213.653 25.666,214.217 25.887 C 214.768 26.103,214.777 26.150,214.297 26.334 C 214.001 26.447,213.760 26.777,213.760 27.067 C 213.760 27.458,213.552 27.555,212.957 27.441 C 212.265 27.309,212.210 27.356,212.557 27.784 C 212.900 28.206,212.870 28.246,212.355 28.053 C 211.854 27.865,211.816 27.905,212.133 28.287 C 212.446 28.665,212.411 28.724,211.938 28.611 C 211.051 28.397,210.488 28.940,210.367 30.125 C 210.200 31.754,210.072 32.277,209.771 32.551 C 209.621 32.688,209.601 32.620,209.728 32.400 C 210.026 31.881,209.592 31.905,208.880 32.445 C 208.572 32.679,208.320 33.251,208.320 33.715 C 208.320 34.180,208.176 34.560,208.000 34.560 C 207.824 34.560,207.680 34.804,207.680 35.101 C 207.680 35.574,207.619 35.564,207.199 35.021 C 206.747 34.437,206.728 34.461,206.880 35.420 C 206.969 35.982,206.895 36.532,206.716 36.643 C 206.536 36.753,206.472 36.978,206.574 37.142 C 206.675 37.306,206.605 37.458,206.419 37.480 C 206.232 37.502,205.915 37.538,205.712 37.560 C 205.306 37.604,204.800 38.742,205.019 39.120 C 205.095 39.252,204.997 39.360,204.800 39.360 C 204.603 39.360,204.534 39.509,204.647 39.691 C 204.775 39.898,204.546 39.966,204.033 39.873 C 203.583 39.792,203.229 39.823,203.245 39.943 C 203.262 40.062,203.239 40.304,203.194 40.480 C 203.149 40.656,203.091 41.304,203.065 41.920 C 203.032 42.703,202.872 43.030,202.533 43.006 C 202.259 42.987,202.027 43.262,201.999 43.640 C 201.971 44.007,201.715 44.479,201.429 44.688 C 201.044 44.969,200.990 45.220,201.221 45.654 C 201.506 46.191,200.953 47.247,200.581 46.874 C 200.511 46.805,200.433 47.032,200.406 47.381 C 200.377 47.765,200.496 47.929,200.709 47.797 C 200.919 47.668,200.968 47.729,200.831 47.951 C 200.705 48.154,200.395 48.320,200.141 48.320 C 199.888 48.320,199.680 48.488,199.680 48.693 C 199.680 48.899,199.587 48.974,199.474 48.861 C 199.361 48.748,199.440 48.449,199.650 48.196 C 199.889 47.908,199.914 47.665,199.718 47.543 C 199.209 47.229,199.087 47.733,199.101 50.091 C 199.120 53.342,199.109 53.391,198.507 52.640 C 198.119 52.157,198.039 52.132,198.179 52.539 C 198.281 52.836,198.208 53.131,198.017 53.194 C 197.826 53.258,197.610 54.311,197.536 55.535 C 197.374 58.238,197.202 58.891,196.819 58.270 C 196.672 58.032,196.384 57.941,196.180 58.067 C 195.902 58.239,195.910 58.419,196.212 58.783 C 196.541 59.179,196.525 59.337,196.124 59.635 C 195.762 59.904,195.644 60.547,195.673 62.080 C 195.721 64.571,195.552 65.529,195.173 64.916 C 194.977 64.600,194.857 64.652,194.681 65.129 C 194.552 65.476,194.292 65.866,194.103 65.995 C 193.898 66.135,193.993 66.232,194.339 66.235 C 194.657 66.238,194.827 66.386,194.717 66.565 C 194.606 66.744,194.368 66.799,194.187 66.687 C 193.974 66.556,193.913 66.895,194.014 67.642 C 194.104 68.313,194.033 68.800,193.846 68.800 C 193.643 68.800,193.655 68.961,193.878 69.229 C 194.074 69.466,194.152 69.741,194.052 69.841 C 193.733 70.160,193.676 71.680,193.983 71.680 C 194.145 71.680,194.166 71.860,194.030 72.080 C 193.695 72.622,193.633 76.748,193.943 77.836 C 194.083 78.327,194.063 78.792,193.896 78.895 C 193.494 79.143,193.518 82.152,193.925 82.403 C 194.104 82.514,194.150 82.767,194.026 82.967 C 193.706 83.485,193.679 89.280,193.997 89.280 C 194.143 89.280,194.108 89.568,193.920 89.920 C 193.660 90.405,193.677 90.561,193.989 90.565 C 194.278 90.568,194.257 90.662,193.920 90.880 C 193.543 91.124,193.534 91.191,193.879 91.195 C 194.221 91.199,194.235 91.300,193.944 91.652 C 193.675 91.976,193.668 92.164,193.920 92.320 C 194.170 92.474,194.157 92.674,193.876 93.013 C 193.559 93.394,193.572 93.546,193.941 93.779 C 194.315 94.016,194.319 94.071,193.961 94.075 C 193.653 94.079,193.617 94.200,193.840 94.480 C 194.015 94.700,194.118 95.128,194.069 95.430 C 194.020 95.733,194.074 95.968,194.190 95.952 C 194.753 95.877,195.284 96.022,195.105 96.202 C 194.993 96.313,195.033 96.647,195.191 96.944 C 195.458 97.442,195.061 97.479,190.129 97.425 C 184.201 97.360,183.240 97.204,183.511 96.348 C 183.654 95.898,183.498 95.787,182.725 95.787 C 182.194 95.787,181.758 95.943,181.755 96.133 C 181.752 96.324,181.624 96.281,181.469 96.037 C 181.254 95.697,180.974 95.668,180.270 95.914 C 179.581 96.154,179.251 96.127,178.952 95.806 C 178.663 95.497,178.332 95.463,177.756 95.681 C 177.208 95.890,176.960 95.875,176.960 95.633 C 176.960 95.380,176.839 95.382,176.531 95.638 C 176.294 95.834,176.003 95.896,175.883 95.776 C 175.763 95.656,174.840 95.581,173.832 95.610 C 171.573 95.674,170.775 95.455,171.013 94.834 C 171.114 94.572,171.054 94.453,170.876 94.562 C 170.702 94.670,170.560 94.615,170.560 94.440 C 170.560 94.265,170.188 94.190,169.734 94.272 C 169.123 94.383,168.973 94.315,169.156 94.011 C 169.353 93.682,169.300 93.683,168.890 94.016 C 168.608 94.244,168.301 94.307,168.207 94.156 C 168.114 94.005,166.826 93.869,165.346 93.854 C 162.882 93.829,162.584 93.755,161.809 92.980 C 161.160 92.331,160.647 92.134,159.602 92.134 C 158.417 92.133,157.448 92.092,153.643 91.882 C 153.051 91.849,152.922 91.700,153.053 91.200 C 153.254 90.429,152.682 89.979,152.289 90.599 C 152.096 90.905,152.008 90.920,152.005 90.649 C 152.002 90.388,151.571 90.294,150.713 90.367 C 150.005 90.427,149.371 90.387,149.303 90.278 C 149.235 90.169,148.413 90.080,147.476 90.080 C 146.045 90.080,145.642 89.943,144.952 89.221 C 144.384 88.627,143.991 88.448,143.681 88.640 C 143.433 88.793,143.080 88.823,142.895 88.707 C 142.711 88.590,142.058 88.462,141.444 88.421 C 140.831 88.380,140.279 88.196,140.217 88.011 C 140.156 87.827,139.981 87.753,139.829 87.847 C 139.678 87.940,139.609 87.728,139.677 87.375 C 139.745 87.022,139.666 86.650,139.500 86.548 C 139.335 86.446,139.200 86.491,139.200 86.648 C 139.200 86.805,138.984 86.933,138.720 86.933 C 138.456 86.933,138.240 86.785,138.240 86.603 C 138.240 86.387,138.131 86.381,137.927 86.585 C 137.499 87.013,134.980 86.756,135.254 86.312 C 135.383 86.103,135.273 86.045,134.969 86.162 C 134.591 86.307,134.514 86.193,134.647 85.686 C 134.765 85.233,134.702 85.093,134.450 85.249 C 134.247 85.375,134.080 85.357,134.080 85.209 C 134.080 85.061,133.720 84.910,133.280 84.873 C 132.824 84.836,132.478 84.977,132.475 85.204 C 132.472 85.450,132.381 85.479,132.235 85.280 C 131.985 84.940,131.524 84.792,130.252 84.645 C 129.819 84.594,129.411 84.393,129.346 84.197 C 129.280 84.000,129.086 83.840,128.914 83.840 C 128.743 83.840,128.705 84.006,128.831 84.209 C 128.972 84.439,128.918 84.492,128.689 84.350 C 128.412 84.179,128.409 83.944,128.678 83.421 C 128.965 82.863,128.957 82.797,128.639 83.097 C 128.358 83.361,127.994 83.380,127.419 83.162 C 126.968 82.990,126.303 82.873,125.940 82.900 C 124.539 83.007,124.166 82.854,123.974 82.091 C 123.782 81.327,123.251 81.151,122.840 81.714 C 122.730 81.864,122.262 81.740,121.800 81.437 C 121.338 81.134,120.960 81.004,120.960 81.147 C 120.960 81.291,120.781 81.229,120.563 81.011 C 120.246 80.694,120.259 80.555,120.626 80.329 C 120.979 80.111,120.865 79.990,120.143 79.813 C 119.624 79.686,119.094 79.424,118.965 79.231 C 118.826 79.023,118.726 79.141,118.720 79.520 C 118.713 79.962,118.631 80.036,118.456 79.759 C 118.315 79.538,117.562 79.315,116.780 79.263 C 115.566 79.182,115.355 79.064,115.323 78.454 C 115.285 77.720,114.880 77.037,114.880 77.707 C 114.880 77.912,114.728 78.080,114.541 78.080 C 114.355 78.080,114.270 77.971,114.352 77.837 C 114.435 77.704,113.878 77.602,113.115 77.610 C 112.352 77.619,111.473 77.440,111.163 77.213 C 110.852 76.986,110.769 76.800,110.979 76.800 C 111.188 76.800,111.360 76.646,111.360 76.458 C 111.360 76.262,111.087 76.203,110.720 76.320 C 110.252 76.468,110.080 76.378,110.080 75.982 C 110.080 75.538,109.994 75.513,109.600 75.840 C 109.296 76.092,109.120 76.113,109.120 75.898 C 109.120 75.710,108.828 75.613,108.471 75.682 C 108.115 75.750,107.907 75.670,108.010 75.503 C 108.113 75.336,107.973 75.200,107.699 75.200 C 107.234 75.200,107.047 74.805,107.180 74.106 C 107.211 73.944,107.026 73.986,106.769 74.199 C 106.402 74.504,106.273 74.499,106.166 74.177 C 106.080 73.920,105.561 73.792,104.774 73.834 C 104.085 73.872,103.692 73.825,103.902 73.730 C 104.475 73.473,104.031 72.648,103.441 72.875 C 103.112 73.001,103.014 72.941,103.161 72.704 C 103.413 72.296,102.211 71.889,101.250 72.056 C 100.918 72.114,100.651 71.972,100.647 71.734 C 100.643 71.500,100.390 71.126,100.085 70.903 C 99.780 70.679,99.624 70.403,99.738 70.288 C 100.054 69.972,99.105 70.049,98.579 70.382 C 98.146 70.655,96.320 70.002,96.320 69.573 C 96.320 69.479,96.454 69.485,96.618 69.586 C 96.782 69.688,97.000 69.634,97.103 69.468 C 97.328 69.104,95.364 68.452,93.854 68.389 C 93.398 68.370,93.041 67.587,93.298 67.171 C 93.397 67.011,93.177 66.880,92.809 66.880 C 92.441 66.880,92.057 66.664,91.956 66.400 C 91.854 66.136,91.634 65.920,91.467 65.920 C 91.299 65.920,91.251 66.064,91.360 66.240 C 91.469 66.416,91.405 66.560,91.219 66.560 C 90.772 66.560,90.788 66.140,91.254 65.674 C 91.750 65.178,90.962 64.876,89.090 64.845 C 88.168 64.830,87.680 64.679,87.680 64.411 C 87.680 64.185,87.436 64.000,87.139 64.000 C 86.642 64.000,86.644 63.966,87.160 63.589 C 87.686 63.205,87.679 63.177,87.062 63.177 C 86.698 63.177,86.400 63.313,86.400 63.478 C 86.400 63.644,86.097 63.505,85.726 63.170 C 85.356 62.834,84.960 62.616,84.846 62.684 C 84.733 62.752,84.495 62.525,84.317 62.178 C 84.140 61.832,83.816 61.608,83.598 61.681 C 83.379 61.754,83.113 61.585,83.006 61.307 C 82.899 61.028,82.596 60.800,82.332 60.800 C 82.029 60.800,81.922 60.616,82.042 60.303 C 82.147 60.030,82.103 59.887,81.944 59.985 C 81.785 60.084,81.599 59.998,81.532 59.795 C 81.464 59.592,80.984 59.398,80.464 59.363 C 79.945 59.329,79.351 59.278,79.145 59.250 C 78.939 59.223,78.672 58.749,78.551 58.197 C 78.408 57.548,78.244 57.335,78.085 57.592 C 77.919 57.861,77.772 57.879,77.630 57.648 C 77.514 57.461,77.184 57.398,76.897 57.508 C 76.547 57.643,76.452 57.585,76.608 57.332 C 76.740 57.118,76.625 56.873,76.342 56.764 C 76.068 56.659,75.922 56.446,76.018 56.290 C 76.115 56.135,75.970 56.093,75.697 56.198 C 75.423 56.303,75.200 56.253,75.200 56.088 C 75.200 55.922,74.876 55.814,74.480 55.846 C 73.570 55.920,72.812 55.653,73.204 55.395 C 73.368 55.288,73.164 54.871,72.751 54.469 C 72.338 54.067,72.000 53.887,72.000 54.069 C 72.000 54.251,71.732 54.148,71.405 53.840 C 70.872 53.338,70.861 53.238,71.306 52.880 C 71.739 52.531,71.714 52.480,71.101 52.480 C 70.716 52.480,70.400 52.336,70.400 52.160 C 70.400 51.984,70.292 51.857,70.160 51.878 C 69.543 51.975,69.099 51.812,69.262 51.549 C 69.634 50.947,69.065 50.368,68.070 50.335 C 66.527 50.285,65.448 49.892,65.970 49.569 C 66.320 49.353,66.317 49.234,65.950 48.893 C 65.583 48.552,65.546 48.563,65.737 48.960 C 65.932 49.367,65.903 49.365,65.544 48.948 C 65.311 48.678,64.881 48.506,64.590 48.566 C 64.298 48.626,63.964 48.520,63.846 48.330 C 63.729 48.140,63.751 48.005,63.896 48.030 C 64.514 48.137,64.639 47.971,64.253 47.555 C 63.954 47.233,63.775 47.211,63.605 47.475 C 63.467 47.689,63.368 47.535,63.365 47.101 C 63.362 46.683,63.219 46.449,63.035 46.563 C 62.856 46.674,62.807 46.934,62.926 47.142 C 63.049 47.356,63.018 47.406,62.855 47.257 C 62.565 46.992,62.541 46.883,62.444 45.440 C 62.401 44.799,62.328 44.736,62.080 45.120 C 61.816 45.528,61.769 45.531,61.765 45.136 C 61.761 44.790,61.668 44.764,61.397 45.035 C 60.925 45.507,60.275 44.891,59.973 43.688 C 59.816 43.060,59.682 42.938,59.491 43.247 C 59.280 43.588,59.146 43.594,58.829 43.277 C 58.611 43.059,58.085 42.880,57.662 42.880 C 57.109 42.880,56.943 42.745,57.076 42.400 C 57.177 42.136,57.125 41.920,56.960 41.920 C 56.795 41.920,56.736 41.723,56.828 41.482 C 56.948 41.170,56.762 41.070,56.182 41.133 C 55.568 41.201,55.267 41.013,54.959 40.371 C 54.735 39.903,54.373 39.502,54.156 39.480 C 53.938 39.458,53.564 39.422,53.324 39.400 C 53.061 39.376,52.902 39.010,52.924 38.480 C 52.955 37.721,52.841 37.605,52.097 37.633 C 51.314 37.663,51.252 37.582,51.417 36.753 C 51.529 36.194,51.464 35.840,51.250 35.840 C 51.058 35.840,50.983 36.056,51.084 36.320 C 51.344 36.998,50.972 36.916,50.147 36.113 C 49.758 35.735,49.634 35.536,49.872 35.672 C 50.221 35.870,50.234 35.787,49.941 35.239 C 49.513 34.439,48.887 34.318,49.184 35.092 C 49.322 35.451,49.266 35.549,49.014 35.394 C 48.808 35.266,48.640 34.962,48.640 34.717 C 48.640 34.471,48.100 33.743,47.440 33.097 C 46.780 32.452,46.277 31.793,46.323 31.633 C 46.369 31.473,46.189 31.259,45.925 31.158 C 45.660 31.056,45.521 30.848,45.615 30.696 C 45.808 30.384,44.259 29.898,43.520 30.038 C 43.197 30.100,43.249 29.962,43.680 29.616 L 44.320 29.103 43.680 29.191 C 43.276 29.247,43.074 29.118,43.133 28.841 C 43.191 28.569,43.047 28.470,42.755 28.582 C 42.430 28.707,42.318 28.586,42.393 28.194 C 42.454 27.881,42.358 27.422,42.181 27.173 C 41.921 26.806,41.892 26.822,42.030 27.254 C 42.123 27.547,42.000 27.864,41.756 27.957 C 41.462 28.070,41.374 27.966,41.496 27.651 C 41.596 27.388,41.553 27.197,41.399 27.225 C 40.740 27.345,40.297 27.176,40.483 26.875 C 40.594 26.696,40.817 26.631,40.978 26.731 C 41.140 26.831,41.191 26.700,41.091 26.440 C 40.991 26.180,40.644 26.018,40.320 26.080 C 39.843 26.172,39.755 26.030,39.858 25.337 C 39.961 24.643,39.919 24.575,39.634 24.977 C 39.241 25.533,37.440 24.279,37.440 23.449 C 37.440 23.224,37.229 23.040,36.970 23.040 C 36.669 23.040,36.571 22.854,36.698 22.523 C 36.856 22.112,36.756 22.051,36.208 22.225 C 35.442 22.468,35.309 22.115,35.920 21.457 C 36.247 21.105,36.217 21.062,35.760 21.223 C 35.365 21.362,35.200 21.255,35.200 20.861 C 35.200 20.218,34.130 19.200,33.455 19.200 C 33.204 19.200,32.894 19.032,32.766 18.826 C 32.606 18.567,32.724 18.518,33.148 18.666 C 33.739 18.874,33.740 18.866,33.169 18.423 C 32.844 18.170,32.376 18.041,32.129 18.136 C 31.819 18.255,31.668 18.049,31.640 17.474 C 31.576 16.134,31.537 16.002,31.200 15.968 C 30.350 15.885,29.851 15.329,29.936 14.558 C 30.024 13.753,29.987 13.736,28.294 13.827 C 27.342 13.878,26.562 14.045,26.561 14.197 C 26.561 14.350,26.213 14.408,25.789 14.327 C 25.239 14.222,25.065 14.302,25.183 14.608 C 25.273 14.844,25.498 14.943,25.683 14.829 C 25.886 14.703,25.923 14.776,25.777 15.012 C 25.644 15.228,25.357 15.335,25.140 15.252 C 24.863 15.146,24.755 15.478,24.780 16.350 C 24.800 17.037,24.696 17.600,24.549 17.600 C 24.402 17.600,24.340 17.708,24.410 17.840 C 24.534 18.071,23.529 19.200,23.200 19.200 C 23.112 19.200,22.932 19.202,22.800 19.205 C 22.668 19.208,22.767 19.341,23.019 19.501 C 23.394 19.738,23.404 19.882,23.072 20.282 C 22.848 20.551,22.772 20.945,22.902 21.155 C 23.032 21.366,23.009 21.471,22.849 21.389 C 22.690 21.306,22.249 21.564,21.869 21.962 C 21.432 22.419,21.314 22.732,21.549 22.811 C 21.813 22.900,21.789 23.095,21.464 23.489 C 21.183 23.828,21.023 24.681,21.049 25.701 C 21.071 26.613,21.012 27.177,20.916 26.954 C 20.506 25.995,19.384 28.253,19.254 30.298 C 19.177 31.511,18.980 32.322,18.763 32.325 C 18.563 32.328,18.616 32.469,18.880 32.640 C 19.266 32.890,19.216 32.951,18.621 32.955 C 18.203 32.958,17.969 33.101,18.083 33.285 C 18.194 33.464,18.441 33.514,18.632 33.396 C 18.841 33.267,18.887 33.330,18.747 33.556 C 18.620 33.762,18.389 33.852,18.234 33.756 C 17.872 33.532,17.556 35.232,17.503 37.694 C 17.480 38.760,17.384 39.590,17.291 39.538 C 17.197 39.487,16.791 39.785,16.389 40.202 C 15.743 40.871,15.725 40.961,16.229 40.965 C 16.643 40.968,16.688 41.041,16.393 41.228 C 15.898 41.542,15.595 42.880,16.018 42.880 C 16.184 42.880,16.320 43.032,16.320 43.219 C 16.320 43.405,16.192 43.479,16.036 43.382 C 15.644 43.140,15.763 44.264,16.160 44.555 C 16.366 44.706,16.354 44.792,16.125 44.795 C 15.897 44.798,15.785 45.571,15.811 46.960 C 15.833 48.148,15.746 49.826,15.617 50.689 C 15.488 51.552,15.469 52.397,15.574 52.567 C 15.748 52.848,15.750 55.099,15.583 60.369 C 15.548 61.453,15.592 62.294,15.680 62.240 C 15.768 62.186,15.841 63.051,15.843 64.162 C 15.844 65.273,15.772 66.137,15.683 66.082 C 15.593 66.026,15.520 66.314,15.520 66.720 C 15.520 67.126,15.628 67.392,15.759 67.311 C 15.891 67.230,15.866 67.512,15.704 67.938 C 15.457 68.586,15.556 68.837,16.308 69.476 C 17.204 70.239,17.205 70.241,16.523 70.629 C 15.928 70.967,15.914 71.019,16.419 71.029 C 16.737 71.035,16.909 71.184,16.800 71.360 C 16.691 71.536,16.820 71.680,17.086 71.680 C 17.480 71.680,17.555 72.097,17.489 73.914 C 17.439 75.265,17.540 76.194,17.743 76.262 C 17.955 76.334,17.908 76.602,17.615 76.988 C 17.251 77.468,17.247 77.514,17.599 77.200 C 18.174 76.687,18.815 76.673,18.304 77.184 C 18.093 77.395,17.922 77.863,17.925 78.224 C 17.928 78.585,18.036 78.736,18.165 78.560 C 18.294 78.384,18.604 78.196,18.854 78.142 C 19.246 78.057,19.246 78.120,18.854 78.603 C 18.564 78.961,18.545 79.076,18.800 78.923 C 19.177 78.696,19.295 79.362,19.286 81.680 C 19.284 81.988,19.481 82.240,19.722 82.240 C 19.963 82.240,20.160 82.392,20.160 82.579 C 20.160 82.765,20.016 82.829,19.840 82.720 C 19.664 82.611,19.520 82.731,19.520 82.987 C 19.520 83.602,20.308 83.884,20.761 83.431 C 21.026 83.166,21.120 83.214,21.120 83.616 C 21.120 83.915,20.940 84.162,20.720 84.165 C 20.416 84.169,20.412 84.228,20.701 84.412 C 20.911 84.545,21.178 85.371,21.295 86.247 C 21.412 87.123,21.563 87.899,21.631 87.971 C 21.699 88.042,21.608 88.278,21.429 88.493 C 21.199 88.771,21.251 88.942,21.608 89.079 C 21.937 89.205,22.034 89.145,21.887 88.907 C 21.753 88.690,21.802 88.628,22.007 88.755 C 22.478 89.046,23.134 91.109,22.884 91.514 C 22.773 91.693,22.907 91.840,23.181 91.840 C 23.758 91.840,23.792 91.993,23.385 92.752 C 23.156 93.181,23.222 93.303,23.682 93.303 C 24.007 93.303,24.201 93.154,24.113 92.971 C 24.025 92.789,24.177 92.917,24.452 93.256 C 24.734 93.603,24.889 94.223,24.806 94.676 C 24.726 95.118,24.788 95.633,24.943 95.820 C 25.208 96.139,25.280 96.357,25.280 96.839 C 25.280 96.949,25.499 96.856,25.768 96.634 C 26.036 96.411,26.348 96.321,26.461 96.434 C 26.574 96.547,26.488 96.640,26.270 96.640 C 25.788 96.640,26.461 97.391,27.206 97.683 C 27.504 97.800,27.531 97.879,27.280 97.895 C 26.717 97.930,26.782 98.454,27.377 98.682 C 27.704 98.808,27.805 98.737,27.673 98.476 C 27.563 98.258,27.695 98.353,27.966 98.687 C 28.237 99.021,28.391 99.405,28.308 99.540 C 28.224 99.675,28.337 99.858,28.558 99.947 C 28.840 100.061,28.819 100.117,28.489 100.135 C 28.161 100.152,28.230 100.309,28.715 100.649 C 29.161 100.961,29.341 101.327,29.212 101.661 C 29.084 101.997,29.138 102.107,29.364 101.967 C 29.833 101.677,30.166 102.271,30.215 103.486 C 30.249 104.320,30.383 104.480,31.048 104.480 C 31.625 104.480,31.868 104.675,31.942 105.197 C 32.049 105.953,33.767 107.886,34.066 107.588 C 34.162 107.492,34.240 107.653,34.240 107.947 C 34.240 108.240,34.408 108.480,34.613 108.480 C 34.819 108.480,34.894 108.573,34.781 108.686 C 34.668 108.799,34.356 108.709,34.088 108.486 C 33.336 107.863,33.510 108.372,34.300 109.108 C 34.686 109.466,35.262 109.760,35.580 109.760 C 35.899 109.760,36.160 109.894,36.160 110.058 C 36.160 110.223,36.458 110.452,36.823 110.567 C 37.202 110.687,37.416 110.961,37.322 111.206 C 37.123 111.724,37.864 112.409,38.266 112.077 C 38.424 111.947,38.303 112.139,37.997 112.505 C 37.305 113.332,37.295 113.600,37.954 113.600 C 38.280 113.600,38.401 113.424,38.284 113.120 C 38.183 112.856,38.240 112.640,38.410 112.640 C 38.581 112.640,38.720 112.856,38.720 113.120 C 38.720 113.384,38.828 113.583,38.960 113.562 C 39.788 113.431,40.154 113.614,39.680 113.920 C 39.292 114.171,39.338 114.231,39.920 114.235 C 40.316 114.238,40.640 114.401,40.640 114.597 C 40.640 114.797,40.358 114.881,40.000 114.787 C 39.621 114.688,39.440 114.750,39.556 114.938 C 39.664 115.113,40.008 115.189,40.321 115.107 C 40.633 115.025,41.085 115.083,41.325 115.234 C 41.670 115.453,41.674 115.511,41.341 115.515 C 41.111 115.518,41.013 115.666,41.123 115.845 C 41.234 116.024,41.458 116.088,41.622 115.986 C 41.786 115.885,41.920 116.099,41.920 116.461 C 41.920 117.047,42.406 117.296,43.280 117.158 C 43.412 117.137,43.484 117.290,43.440 117.499 C 43.364 117.860,44.736 118.720,45.588 118.845 C 46.154 118.928,47.113 119.943,46.920 120.255 C 46.832 120.397,47.135 120.506,47.593 120.497 C 48.072 120.487,48.481 120.684,48.557 120.960 C 48.664 121.348,48.631 121.357,48.384 121.006 C 48.210 120.757,47.999 120.702,47.892 120.876 C 47.715 121.162,45.696 121.163,44.364 120.879 C 44.036 120.809,43.633 120.511,43.468 120.216 C 43.303 119.921,42.959 119.680,42.704 119.680 C 42.449 119.680,42.240 119.508,42.240 119.299 C 42.240 119.089,42.013 119.197,41.736 119.539 C 41.459 119.880,41.325 119.978,41.437 119.757 C 41.637 119.364,41.448 119.343,37.816 119.354 C 37.407 119.356,36.759 119.183,36.376 118.971 C 35.993 118.759,35.500 118.622,35.280 118.667 C 35.060 118.712,34.880 118.589,34.880 118.395 C 34.880 118.201,35.024 118.131,35.200 118.240 C 35.376 118.349,35.520 118.237,35.520 117.992 C 35.520 117.747,35.312 117.547,35.058 117.547 C 34.804 117.547,34.605 117.631,34.616 117.733 C 34.684 118.365,34.465 118.411,33.721 117.924 C 33.258 117.621,32.993 117.555,33.130 117.776 C 33.308 118.064,33.250 118.099,32.929 117.898 C 32.419 117.578,32.292 117.556,30.640 117.489 C 29.568 117.445,28.738 116.480,29.773 116.480 C 29.965 116.480,29.931 116.291,29.693 116.032 C 29.466 115.785,29.232 115.713,29.173 115.872 C 29.015 116.299,28.238 116.221,28.052 115.760 C 27.926 115.447,27.885 115.450,27.865 115.771 C 27.846 116.083,27.685 116.099,27.200 115.840 C 26.848 115.652,26.560 115.592,26.560 115.708 C 26.560 115.824,26.367 115.758,26.131 115.562 C 25.894 115.366,25.575 115.312,25.421 115.443 C 25.267 115.573,25.315 115.451,25.528 115.171 C 25.988 114.564,25.736 114.208,25.036 114.476 C 24.667 114.618,24.607 114.549,24.809 114.214 C 25.038 113.835,24.998 113.828,24.573 114.173 C 24.156 114.511,24.032 114.511,23.895 114.173 C 23.762 113.842,23.668 113.847,23.422 114.198 C 23.171 114.557,23.055 114.531,22.788 114.054 C 22.512 113.560,22.383 113.535,21.951 113.894 C 21.584 114.199,21.440 114.212,21.440 113.940 C 21.440 113.732,21.311 113.642,21.154 113.739 C 20.795 113.961,20.407 113.016,20.678 112.579 C 20.792 112.394,20.586 112.412,20.194 112.622 C 19.669 112.903,19.530 112.897,19.595 112.598 C 19.647 112.360,19.245 112.182,18.560 112.139 C 17.944 112.101,17.193 112.053,16.890 112.035 C 16.552 112.013,16.408 111.824,16.515 111.545 C 16.844 110.686,15.377 110.240,14.642 110.976 C 14.035 111.582,14.114 112.535,14.738 112.149 C 14.900 112.049,14.944 112.199,14.835 112.482 C 14.726 112.765,14.440 112.921,14.199 112.828 C 13.676 112.628,13.602 113.465,14.114 113.781 C 14.361 113.934,14.337 114.083,14.034 114.275 C 13.691 114.493,13.711 114.551,14.132 114.555 C 14.755 114.561,14.725 115.217,14.066 116.029 C 13.810 116.345,13.771 116.500,13.981 116.375 C 14.229 116.226,14.344 116.371,14.313 116.793 C 14.286 117.149,14.133 117.440,13.973 117.440 C 13.813 117.440,13.861 117.656,14.080 117.920 C 14.299 118.184,14.384 118.400,14.268 118.400 C 14.152 118.400,14.221 118.705,14.421 119.079 C 14.642 119.492,14.655 119.678,14.454 119.553 C 14.273 119.441,14.044 119.480,13.946 119.638 C 13.848 119.797,14.084 120.010,14.472 120.112 C 14.860 120.213,15.281 120.129,15.407 119.924 C 15.533 119.719,15.611 120.949,15.578 122.656 C 15.546 124.364,15.592 125.760,15.680 125.760 C 15.941 125.759,15.789 130.765,15.514 131.210 C 15.337 131.496,15.388 131.540,15.685 131.357 C 15.986 131.171,16.054 131.238,15.920 131.587 C 15.801 131.897,15.998 132.222,16.452 132.465 C 16.849 132.677,17.196 133.020,17.224 133.226 C 17.420 134.690,17.506 135.053,17.700 135.247 C 18.040 135.586,17.960 136.062,17.601 135.841 C 17.389 135.710,17.389 135.925,17.601 136.483 C 17.990 137.505,18.010 138.014,17.653 137.793 C 17.216 137.523,17.351 138.395,17.813 138.827 C 18.066 139.063,18.240 139.090,18.240 138.893 C 18.240 138.415,19.194 138.480,19.229 138.960 C 19.245 139.180,19.267 140.116,19.277 141.041 C 19.290 142.184,19.460 142.849,19.808 143.121 C 20.271 143.482,20.274 143.461,19.840 142.909 C 19.385 142.330,19.397 142.320,20.056 142.731 C 20.700 143.131,20.712 143.198,20.216 143.606 C 19.730 144.006,19.748 144.033,20.400 143.894 C 20.990 143.768,21.120 143.879,21.120 144.510 C 21.120 144.933,21.272 145.280,21.459 145.280 C 21.645 145.280,21.703 145.433,21.588 145.620 C 21.472 145.806,21.313 146.370,21.234 146.872 C 21.083 147.833,21.663 148.515,22.071 147.854 C 22.371 147.369,22.720 148.167,22.720 149.338 C 22.720 149.833,23.119 150.516,23.757 151.112 C 24.451 151.761,24.762 152.321,24.698 152.809 C 24.645 153.211,24.755 153.633,24.941 153.748 C 25.127 153.864,25.280 154.246,25.280 154.598 C 25.280 154.950,25.412 155.156,25.574 155.056 C 26.186 154.678,26.865 155.833,26.656 156.892 C 26.470 157.830,26.500 157.881,26.994 157.474 C 27.292 157.229,27.628 157.121,27.741 157.234 C 27.854 157.347,27.794 157.440,27.608 157.440 C 27.114 157.440,26.846 158.341,27.263 158.599 C 27.479 158.732,27.529 158.673,27.391 158.449 C 27.257 158.233,27.360 158.080,27.640 158.080 C 27.902 158.080,28.218 158.404,28.342 158.800 C 28.465 159.196,28.727 159.626,28.923 159.755 C 29.138 159.897,29.025 159.994,28.640 160.000 C 27.689 160.015,28.728 160.629,29.714 160.635 C 30.252 160.639,30.416 160.778,30.284 161.120 C 30.183 161.384,30.276 161.602,30.490 161.605 C 30.737 161.608,30.704 161.724,30.400 161.920 C 30.023 162.164,30.014 162.231,30.359 162.235 C 30.731 162.239,30.731 162.322,30.359 162.780 C 29.976 163.251,29.989 163.294,30.464 163.116 C 30.852 162.971,30.957 163.045,30.829 163.376 C 30.709 163.691,30.868 163.840,31.326 163.840 C 31.787 163.840,32.000 164.043,32.000 164.480 C 32.000 164.832,32.152 165.120,32.339 165.120 C 32.525 165.120,32.575 164.954,32.449 164.751 C 32.313 164.529,32.361 164.468,32.571 164.597 C 32.763 164.716,32.865 165.102,32.797 165.455 C 32.729 165.808,32.797 166.021,32.948 165.928 C 33.444 165.621,34.284 166.145,34.093 166.642 C 33.816 167.364,34.535 168.099,35.079 167.648 C 35.600 167.215,36.027 168.011,35.713 168.829 C 35.446 169.525,35.795 170.036,36.268 169.643 C 36.757 169.239,38.223 170.390,37.895 170.921 C 37.737 171.175,37.799 171.213,38.085 171.037 C 38.395 170.845,38.452 170.922,38.298 171.324 C 38.182 171.626,38.217 171.793,38.375 171.696 C 38.907 171.367,39.635 171.883,39.515 172.505 C 39.450 172.843,39.568 173.142,39.778 173.169 C 39.988 173.196,40.304 173.235,40.480 173.257 C 41.182 173.344,41.633 173.852,41.445 174.343 C 41.336 174.627,41.348 174.759,41.471 174.635 C 41.595 174.511,41.888 174.660,42.122 174.965 C 42.465 175.412,42.602 175.437,42.829 175.093 C 43.056 174.750,43.150 174.769,43.312 175.190 C 43.442 175.529,43.387 175.635,43.155 175.492 C 42.937 175.358,42.860 175.445,42.958 175.715 C 43.047 175.960,43.282 176.124,43.480 176.080 C 43.678 176.036,43.840 176.144,43.840 176.320 C 43.840 176.496,44.064 176.640,44.339 176.640 C 44.613 176.640,44.755 176.774,44.654 176.938 C 44.552 177.102,44.618 177.328,44.800 177.440 C 44.982 177.552,45.057 177.763,44.967 177.909 C 44.877 178.054,45.024 178.258,45.294 178.361 C 45.581 178.471,45.866 178.337,45.981 178.037 C 46.144 177.611,46.243 177.648,46.570 178.258 C 46.785 178.661,47.219 179.029,47.533 179.075 C 47.847 179.121,48.419 179.525,48.804 179.974 C 49.190 180.422,49.595 180.699,49.705 180.589 C 49.815 180.479,50.101 180.552,50.342 180.752 C 50.582 180.951,50.839 181.080,50.913 181.037 C 50.987 180.995,50.838 181.140,50.583 181.360 C 50.180 181.707,50.187 181.760,50.640 181.760 C 50.927 181.760,51.243 181.891,51.342 182.050 C 51.440 182.210,51.197 182.260,50.800 182.163 C 50.404 182.065,50.164 182.079,50.267 182.193 C 50.369 182.307,50.897 182.452,51.439 182.515 C 52.344 182.620,54.135 183.715,54.096 184.139 C 54.045 184.703,54.122 184.750,54.400 184.320 C 54.625 183.971,54.712 183.955,54.715 184.259 C 54.718 184.489,54.851 184.597,55.011 184.498 C 55.460 184.220,56.343 184.664,56.106 185.048 C 55.971 185.266,56.100 185.310,56.463 185.171 C 56.875 185.013,56.983 185.079,56.856 185.410 C 56.642 185.966,57.332 186.284,57.938 185.909 C 58.202 185.746,58.563 185.790,58.838 186.018 C 59.091 186.228,59.348 186.364,59.409 186.320 C 59.470 186.276,59.509 186.341,59.496 186.464 C 59.468 186.732,60.835 187.329,61.254 187.232 C 61.416 187.195,61.362 187.388,61.135 187.662 C 60.734 188.145,61.489 188.324,63.600 188.246 C 63.820 188.238,64.000 188.359,64.000 188.516 C 64.000 188.672,63.871 188.800,63.714 188.800 C 62.913 188.800,63.217 189.607,64.041 189.667 C 64.547 189.704,64.960 189.578,64.960 189.388 C 64.960 189.145,65.081 189.142,65.365 189.378 C 65.587 189.562,66.347 189.767,67.052 189.833 C 68.665 189.983,69.219 190.319,68.963 190.992 C 68.802 191.415,68.842 191.441,69.165 191.120 C 69.629 190.660,70.206 190.578,69.938 191.010 C 69.840 191.170,70.047 191.225,70.400 191.133 C 70.752 191.041,71.040 191.110,71.040 191.287 C 71.040 191.464,71.220 191.602,71.440 191.594 C 73.071 191.533,74.349 191.722,73.964 191.966 C 73.596 192.199,73.596 192.274,73.964 192.445 C 74.204 192.556,74.065 192.584,73.655 192.507 C 73.119 192.406,72.957 192.490,73.078 192.807 C 73.194 193.108,73.085 193.185,72.731 193.049 C 72.413 192.927,72.295 192.981,72.424 193.189 C 72.701 193.638,71.937 193.788,69.520 193.760 C 68.420 193.748,67.520 193.868,67.520 194.028 C 67.520 194.188,67.317 194.150,67.068 193.944 C 66.792 193.714,66.543 193.688,66.427 193.876 C 66.233 194.191,65.439 194.185,65.120 193.867 C 65.023 193.769,64.370 193.794,63.671 193.922 C 62.972 194.049,62.400 194.063,62.400 193.952 C 62.400 193.690,55.208 193.779,54.774 194.046 C 54.593 194.159,54.349 194.097,54.234 193.910 C 54.087 193.673,53.900 193.671,53.622 193.902 C 53.402 194.085,53.121 194.134,52.998 194.011 C 52.875 193.889,51.686 193.778,50.355 193.766 C 48.443 193.748,47.851 193.626,47.529 193.186 C 47.301 192.875,46.906 192.712,46.633 192.816 C 46.364 192.919,46.036 192.828,45.903 192.612 C 45.748 192.362,45.794 192.303,46.031 192.449 C 46.234 192.575,46.400 192.541,46.400 192.373 C 46.400 192.205,46.040 192.088,45.600 192.114 C 45.160 192.139,44.800 192.266,44.800 192.396 C 44.800 192.526,44.476 192.598,44.080 192.556 C 43.501 192.495,43.376 192.624,43.440 193.219 C 43.492 193.708,43.394 193.880,43.150 193.729 C 42.927 193.591,42.868 193.641,43.001 193.857 C 43.122 194.052,43.452 194.123,43.734 194.015 C 44.084 193.881,44.199 193.962,44.097 194.269 C 44.014 194.517,43.779 194.738,43.573 194.760 C 42.805 194.842,42.761 194.889,43.111 195.239 C 43.308 195.436,43.433 195.760,43.387 195.959 C 43.342 196.158,43.365 196.212,43.439 196.080 C 43.706 195.602,44.223 195.853,44.027 196.365 C 43.868 196.778,43.918 196.814,44.258 196.531 C 44.609 196.240,44.684 196.391,44.652 197.330 C 44.631 197.967,44.799 198.673,45.024 198.898 C 45.348 199.222,45.350 199.342,45.037 199.469 C 44.738 199.590,44.744 199.636,45.063 199.655 C 45.380 199.674,45.357 199.809,44.972 200.194 C 44.452 200.714,44.860 201.799,45.440 201.440 C 45.842 201.192,46.412 202.094,46.552 203.200 C 46.623 203.765,46.905 204.474,47.177 204.774 C 47.544 205.181,47.579 205.413,47.310 205.682 C 47.041 205.951,47.124 205.998,47.634 205.865 C 48.024 205.763,48.337 205.839,48.360 206.043 C 48.382 206.239,48.418 206.658,48.440 206.974 C 48.462 207.290,48.735 207.938,49.047 208.414 C 49.645 209.326,49.453 209.639,48.824 208.778 C 48.503 208.340,48.457 208.357,48.457 208.916 C 48.457 209.267,48.534 209.548,48.629 209.539 C 49.783 209.438,50.300 209.655,50.162 210.183 C 49.975 210.899,50.877 212.860,51.485 213.058 C 51.780 213.155,51.844 213.066,51.675 212.792 C 51.520 212.542,51.549 212.460,51.748 212.583 C 51.927 212.694,52.001 213.170,51.911 213.640 C 51.798 214.231,51.860 214.425,52.114 214.269 C 52.346 214.125,52.494 214.313,52.517 214.781 C 52.546 215.350,52.589 215.387,52.704 214.943 C 52.953 213.980,53.760 214.954,53.760 216.218 C 53.760 216.823,53.888 217.239,54.044 217.142 C 54.200 217.046,54.504 217.180,54.720 217.440 C 54.936 217.700,55.240 217.834,55.396 217.738 C 55.654 217.579,55.814 218.029,55.718 218.640 C 55.697 218.772,55.842 218.880,56.039 218.880 C 56.303 218.880,56.304 218.994,56.042 219.309 C 55.615 219.824,55.884 220.184,56.515 219.942 C 56.846 219.815,56.907 219.929,56.744 220.364 C 56.547 220.888,56.585 220.907,57.056 220.524 C 57.670 220.025,58.049 220.553,57.862 221.647 C 57.785 222.093,57.958 222.240,58.560 222.240 C 59.148 222.240,59.335 222.390,59.265 222.806 C 59.205 223.161,59.532 223.578,60.143 223.926 C 60.856 224.332,61.116 224.715,61.118 225.360 C 61.120 226.057,61.270 226.241,61.840 226.245 C 62.798 226.251,63.693 226.859,63.097 227.099 C 62.817 227.211,62.963 227.418,63.531 227.713 C 64.001 227.957,64.516 228.077,64.673 227.979 C 64.831 227.882,64.960 227.975,64.960 228.186 C 64.960 228.397,65.212 228.776,65.520 229.028 C 65.828 229.281,65.900 229.396,65.680 229.285 C 65.460 229.173,65.280 229.225,65.280 229.399 C 65.280 229.573,65.603 229.762,65.998 229.818 C 66.466 229.884,66.772 230.199,66.878 230.720 C 67.036 231.501,67.840 232.017,67.840 231.337 C 67.840 231.149,68.066 231.220,68.342 231.496 C 68.645 231.799,68.773 232.284,68.665 232.719 C 68.566 233.116,68.569 233.260,68.670 233.040 C 68.771 232.820,69.066 232.640,69.326 232.640 C 69.585 232.640,69.709 232.784,69.600 232.960 C 69.491 233.136,69.555 233.298,69.741 233.320 C 69.928 233.342,70.229 233.378,70.412 233.400 C 71.020 233.473,71.343 234.352,70.952 234.869 C 70.748 235.139,70.699 235.261,70.843 235.140 C 70.988 235.020,71.441 235.048,71.852 235.204 C 72.364 235.399,72.646 235.368,72.753 235.104 C 72.866 234.828,72.917 234.838,72.935 235.139 C 72.949 235.369,73.083 235.482,73.233 235.389 C 73.383 235.296,73.779 235.443,74.113 235.714 C 74.447 235.985,74.521 236.105,74.278 235.979 C 73.985 235.828,73.886 235.900,73.984 236.195 C 74.065 236.440,74.623 236.729,75.225 236.838 C 75.827 236.947,76.111 237.055,75.856 237.078 C 75.271 237.131,75.761 237.631,76.640 237.877 C 77.022 237.985,76.925 238.015,76.400 237.953 C 75.916 237.896,75.520 237.973,75.520 238.124 C 75.520 238.276,75.784 238.400,76.107 238.400 C 76.429 238.400,76.796 238.503,76.922 238.629 C 77.048 238.754,77.540 238.900,78.015 238.953 C 78.491 239.005,79.045 239.070,79.246 239.097 C 79.447 239.125,79.575 239.479,79.531 239.884 C 79.486 240.290,79.580 240.542,79.739 240.444 C 79.898 240.345,80.231 240.434,80.480 240.640 C 80.729 240.846,81.082 240.922,81.266 240.809 C 81.463 240.687,81.600 240.923,81.600 241.387 C 81.600 242.210,82.422 242.800,82.653 242.142 C 82.746 241.875,82.976 241.928,83.414 242.316 C 83.897 242.744,84.128 242.784,84.420 242.492 C 84.766 242.146,84.992 242.903,84.842 243.908 C 84.823 244.034,85.011 244.059,85.259 243.964 C 85.507 243.869,86.028 243.961,86.416 244.168 C 86.976 244.468,87.178 244.457,87.396 244.113 C 87.615 243.767,87.671 243.764,87.675 244.099 C 87.678 244.329,87.808 244.439,87.965 244.342 C 88.122 244.245,88.490 244.531,88.783 244.979 C 89.164 245.560,89.493 245.736,89.938 245.594 C 90.281 245.485,90.560 245.546,90.560 245.728 C 90.560 245.911,90.776 245.977,91.040 245.876 C 91.304 245.774,91.520 245.857,91.520 246.060 C 91.520 246.306,91.881 246.361,92.603 246.226 C 93.263 246.102,93.772 246.161,93.905 246.376 C 94.026 246.571,94.248 246.654,94.400 246.560 C 94.552 246.466,94.780 246.558,94.907 246.764 C 95.044 246.985,95.001 247.054,94.803 246.931 C 94.618 246.817,94.382 246.946,94.277 247.218 C 94.167 247.505,94.222 247.630,94.408 247.515 C 94.584 247.406,95.158 247.532,95.684 247.794 C 96.554 248.228,96.640 248.223,96.645 247.735 C 96.648 247.430,96.751 247.337,96.885 247.520 C 97.125 247.847,97.225 247.869,98.870 247.952 C 99.572 247.987,99.772 248.125,99.636 248.480 C 99.534 248.744,99.606 248.960,99.796 248.960 C 99.985 248.960,100.051 249.193,99.941 249.477 C 99.774 249.914,99.847 249.939,100.410 249.637 C 101.279 249.172,101.533 249.185,101.244 249.680 C 101.115 249.900,101.329 249.800,101.719 249.458 C 102.319 248.931,102.396 248.919,102.220 249.378 C 102.033 249.865,102.338 249.920,105.246 249.920 C 107.617 249.920,108.481 250.027,108.485 250.320 C 108.489 250.614,108.562 250.605,108.765 250.286 C 108.957 249.983,109.106 249.959,109.259 250.206 C 109.379 250.401,109.387 250.560,109.276 250.560 C 109.165 250.560,109.294 250.780,109.563 251.049 C 110.039 251.525,111.246 251.506,112.049 251.010 C 112.295 250.858,112.367 250.937,112.253 251.234 C 112.109 251.609,112.540 251.691,114.625 251.680 C 116.027 251.673,117.250 251.792,117.345 251.945 C 117.439 252.097,117.247 252.166,116.918 252.099 C 116.589 252.032,116.129 252.198,115.896 252.468 C 115.663 252.739,115.558 252.790,115.662 252.581 C 115.789 252.327,115.568 252.233,114.991 252.294 C 114.472 252.350,114.100 252.601,114.051 252.931 C 113.987 253.367,114.062 253.401,114.426 253.099 C 114.735 252.842,114.880 252.833,114.880 253.070 C 114.880 253.501,113.758 254.132,113.482 253.855 C 113.371 253.744,113.278 253.857,113.275 254.107 C 113.271 254.460,113.213 254.470,113.012 254.152 C 112.816 253.844,112.603 253.916,112.136 254.447 C 111.797 254.834,111.719 255.033,111.962 254.890 C 112.264 254.712,112.357 254.770,112.257 255.075 C 112.176 255.320,111.690 255.569,111.175 255.628 C 110.661 255.688,110.032 255.904,109.779 256.108 C 109.426 256.392,109.371 256.390,109.545 256.099 C 109.694 255.851,109.549 255.736,109.127 255.767 C 108.343 255.827,108.344 255.818,109.040 256.515 C 109.573 257.049,109.566 257.067,108.891 256.891 C 108.501 256.789,108.194 256.799,108.209 256.913 C 108.320 257.764,108.078 258.240,107.536 258.240 C 107.193 258.240,106.780 258.476,106.619 258.764 C 106.457 259.053,105.887 259.306,105.346 259.327 C 104.807 259.349,104.248 259.496,104.103 259.655 C 103.949 259.823,104.039 259.835,104.320 259.684 C 104.728 259.465,104.734 259.493,104.360 259.873 C 104.020 260.219,103.887 260.229,103.773 259.920 C 103.693 259.700,103.486 259.520,103.314 259.520 C 103.143 259.520,103.084 259.652,103.183 259.813 C 103.283 259.974,103.183 260.178,102.962 260.267 C 102.643 260.396,102.642 260.435,102.960 260.455 C 103.848 260.511,103.288 261.079,102.320 261.104 C 101.748 261.119,101.028 261.137,100.720 261.145 C 100.412 261.153,100.160 261.303,100.160 261.479 C 100.160 261.654,100.304 261.709,100.480 261.600 C 100.656 261.491,100.800 261.537,100.800 261.702 C 100.800 262.136,99.979 262.752,99.731 262.504 C 99.615 262.388,99.520 262.461,99.520 262.667 C 99.520 262.881,99.037 263.040,98.385 263.040 C 97.264 263.040,95.680 264.160,95.680 264.952 C 95.680 265.139,95.329 265.229,94.900 265.151 C 94.389 265.058,93.852 265.258,93.343 265.730 C 92.915 266.126,92.330 266.415,92.041 266.373 C 91.738 266.329,91.606 266.441,91.729 266.638 C 91.865 266.859,91.694 266.916,91.250 266.800 C 90.871 266.701,90.560 266.760,90.560 266.932 C 90.560 267.103,90.279 267.154,89.937 267.045 C 89.464 266.895,89.192 267.082,88.810 267.821 C 88.336 268.737,87.757 268.960,87.334 268.389 C 87.012 267.954,86.080 268.522,86.080 269.154 C 86.080 269.533,85.855 269.760,85.479 269.760 C 85.149 269.760,84.694 269.982,84.469 270.254 C 84.185 270.596,83.957 270.645,83.726 270.414 C 83.238 269.926,82.783 270.006,82.989 270.544 C 83.096 270.821,83.014 270.948,82.784 270.860 C 82.573 270.779,82.037 271.050,81.592 271.463 C 81.123 271.897,80.452 272.184,79.992 272.146 C 79.557 272.110,78.992 272.242,78.739 272.440 C 78.369 272.728,78.333 272.704,78.560 272.320 C 78.804 271.906,78.768 271.900,78.301 272.279 C 77.998 272.525,77.760 272.573,77.760 272.387 C 77.760 271.915,76.981 272.093,76.368 272.706 C 75.981 273.094,75.948 273.270,76.243 273.389 C 76.461 273.477,75.920 273.571,75.040 273.597 C 73.837 273.633,73.599 273.713,74.080 273.920 C 74.432 274.071,74.531 274.205,74.299 274.218 C 74.067 274.230,73.588 274.085,73.233 273.895 C 72.718 273.619,72.491 273.668,72.110 274.135 C 71.847 274.457,71.724 274.540,71.835 274.320 C 72.155 273.689,71.715 273.852,70.945 274.649 C 70.009 275.618,68.482 276.300,68.475 275.753 C 68.472 275.500,68.360 275.531,68.160 275.840 C 67.898 276.245,67.849 276.248,67.845 275.859 C 67.841 275.528,67.707 275.573,67.370 276.019 C 67.112 276.360,66.896 276.484,66.890 276.293 C 66.878 275.894,65.734 275.908,65.367 276.311 C 65.231 276.461,65.300 276.479,65.520 276.352 C 65.740 276.226,65.920 276.250,65.920 276.407 C 65.920 276.896,64.529 277.430,63.377 277.384 C 62.770 277.359,62.223 277.490,62.161 277.676 C 62.100 277.861,61.767 277.938,61.423 277.848 C 61.078 277.758,60.594 277.852,60.347 278.058 C 60.003 278.343,59.841 278.340,59.659 278.046 C 59.498 277.786,59.557 277.745,59.840 277.920 C 60.136 278.103,60.182 278.055,59.998 277.757 C 59.801 277.438,59.536 277.562,58.904 278.268 C 58.134 279.129,57.878 279.207,55.521 279.293 C 53.694 279.360,52.896 279.519,52.709 279.853 C 52.566 280.110,52.275 280.318,52.064 280.315 C 51.798 280.312,51.811 280.227,52.107 280.039 C 52.432 279.834,52.374 279.727,51.867 279.594 C 51.500 279.498,51.200 279.559,51.200 279.729 C 51.200 279.899,51.056 279.949,50.880 279.840 C 50.704 279.731,50.560 279.783,50.560 279.954 C 50.560 280.126,50.740 280.334,50.960 280.415 C 51.716 280.696,49.439 281.334,48.240 281.178 C 47.580 281.091,47.040 281.152,47.040 281.313 C 47.040 281.474,46.764 281.433,46.426 281.222 C 45.943 280.920,45.704 280.928,45.306 281.258 C 45.028 281.489,44.800 281.533,44.800 281.356 C 44.800 281.179,44.332 281.080,43.760 281.137 C 43.188 281.193,42.720 281.260,42.720 281.286 C 42.720 281.312,42.375 281.371,41.952 281.417 C 41.530 281.463,41.006 281.745,40.787 282.044 C 40.210 282.832,38.093 283.043,30.978 283.019 C 27.511 283.007,24.729 283.085,24.794 283.190 C 24.859 283.296,24.636 283.383,24.297 283.383 C 23.957 283.383,23.680 283.270,23.680 283.131 C 23.680 282.993,23.464 282.880,23.200 282.880 C 22.936 282.880,22.720 283.020,22.720 283.192 C 22.720 283.382,22.438 283.399,22.000 283.235 C 21.435 283.024,2.083 282.949,0.400 283.152 C -0.266 283.232,-0.114 285.435,0.560 285.462 C 1.039 285.482,1.027 285.525,0.480 285.760 C 0.031 285.953,-0.017 286.050,0.320 286.084 C 1.949 286.251,2.264 286.318,2.480 286.546 C 2.612 286.686,2.397 286.700,2.002 286.579 C 1.404 286.395,1.319 286.455,1.491 286.939 C 1.854 287.955,1.993 288.079,2.275 287.634 C 2.478 287.315,2.551 287.306,2.555 287.600 C 2.558 287.845,3.007 288.000,3.714 288.000 C 4.653 288.000,4.831 288.098,4.667 288.525 C 4.517 288.915,4.570 288.970,4.873 288.737 C 5.318 288.395,6.879 289.014,6.508 289.386 C 6.393 289.501,6.118 289.445,5.898 289.262 C 5.616 289.028,5.426 289.044,5.259 289.314 C 5.108 289.558,5.156 289.615,5.391 289.471 C 5.594 289.345,5.760 289.395,5.760 289.581 C 5.760 289.769,6.397 289.920,7.190 289.920 C 8.330 289.920,8.583 290.017,8.436 290.400 C 8.319 290.704,8.440 290.880,8.766 290.880 C 9.049 290.880,9.280 291.008,9.280 291.165 C 9.280 291.322,9.668 291.548,10.143 291.667 C 10.618 291.786,10.862 291.982,10.686 292.102 C 10.490 292.235,10.589 292.538,10.942 292.880 C 11.492 293.413,11.648 293.352,11.553 292.640 C 11.530 292.464,11.769 292.621,12.085 292.989 C 12.401 293.357,12.939 293.617,13.279 293.567 C 13.958 293.468,14.720 293.961,14.720 294.500 C 14.720 294.688,14.496 294.563,14.222 294.221 C 13.742 293.622,13.736 293.624,14.064 294.301 C 14.286 294.761,14.623 294.960,15.041 294.880 C 15.393 294.812,15.680 294.880,15.680 295.030 C 15.680 295.181,16.044 295.264,16.488 295.215 C 16.932 295.166,17.379 295.261,17.480 295.425 C 17.582 295.589,17.864 295.647,18.109 295.553 C 18.353 295.460,18.518 295.486,18.476 295.612 C 18.434 295.737,18.724 296.164,19.120 296.560 C 19.516 296.956,19.840 297.118,19.840 296.921 C 19.840 296.657,19.954 296.656,20.269 296.918 C 20.506 297.114,20.794 297.180,20.909 297.064 C 21.025 296.948,21.120 297.037,21.120 297.261 C 21.120 297.507,21.328 297.589,21.645 297.467 C 22.065 297.306,22.096 297.355,21.801 297.710 C 21.517 298.053,21.547 298.251,21.934 298.572 C 22.210 298.801,22.411 298.856,22.380 298.694 C 22.262 298.070,22.421 297.778,22.668 298.167 C 22.811 298.392,23.276 298.652,23.704 298.746 C 24.131 298.840,24.696 298.970,24.960 299.034 C 25.224 299.098,25.494 299.162,25.559 299.176 C 25.625 299.189,25.525 299.385,25.337 299.611 C 24.958 300.069,25.210 300.591,25.879 300.733 C 26.159 300.792,26.250 300.647,26.129 300.333 C 26.025 300.062,26.068 299.840,26.223 299.840 C 26.379 299.840,26.565 300.014,26.636 300.228 C 26.710 300.451,27.435 300.638,28.343 300.669 C 30.433 300.741,30.469 300.749,30.240 301.120 C 30.131 301.296,30.212 301.440,30.420 301.440 C 30.711 301.440,30.711 301.545,30.421 301.895 C 30.111 302.268,30.161 302.319,30.697 302.179 C 31.056 302.085,31.605 302.120,31.915 302.256 C 32.702 302.602,32.844 302.634,33.840 302.685 C 34.532 302.720,34.617 302.796,34.240 303.040 C 33.796 303.327,34.022 303.505,34.679 303.385 C 34.833 303.357,34.866 303.576,34.752 303.872 C 34.585 304.308,34.632 304.339,34.999 304.034 C 35.353 303.740,35.565 303.771,35.966 304.172 C 36.249 304.454,36.480 304.540,36.480 304.363 C 36.480 304.185,36.777 304.062,37.139 304.089 C 37.595 304.124,37.754 304.309,37.654 304.692 C 37.549 305.094,37.762 305.300,38.435 305.448 C 38.944 305.559,39.362 305.819,39.365 306.025 C 39.368 306.241,39.501 306.197,39.680 305.920 C 39.956 305.493,39.991 305.493,40.000 305.920 C 40.008 306.312,40.061 306.320,40.285 305.966 C 40.478 305.661,40.626 305.638,40.780 305.888 C 40.902 306.085,41.340 306.184,41.755 306.108 C 42.169 306.033,42.772 306.164,43.093 306.399 C 43.511 306.705,43.795 306.730,44.086 306.488 C 44.393 306.234,44.448 306.270,44.309 306.633 C 44.201 306.915,44.341 307.201,44.642 307.316 C 44.927 307.426,45.070 307.662,44.959 307.842 C 44.828 308.054,45.384 308.131,46.538 308.062 C 47.835 307.984,48.320 308.067,48.320 308.367 C 48.320 308.603,48.526 308.701,48.800 308.596 C 49.064 308.494,49.280 308.571,49.280 308.766 C 49.280 308.961,49.040 309.120,48.747 309.120 C 48.453 309.120,48.283 309.189,48.368 309.274 C 48.648 309.555,51.015 309.852,52.536 309.797 C 53.359 309.767,54.125 309.893,54.238 310.077 C 54.351 310.260,54.568 310.334,54.720 310.240 C 54.872 310.146,55.074 310.197,55.171 310.352 C 55.267 310.508,55.038 310.618,54.661 310.598 C 54.285 310.577,53.922 310.721,53.856 310.918 C 53.780 311.141,54.027 311.220,54.510 311.128 C 54.936 311.046,55.382 311.137,55.501 311.330 C 55.620 311.522,55.862 311.680,56.038 311.680 C 56.214 311.680,56.260 311.522,56.140 311.328 C 55.985 311.077,56.098 311.070,56.535 311.304 C 56.871 311.484,57.357 311.619,57.613 311.605 C 58.722 311.543,59.514 311.701,59.440 311.968 C 59.396 312.126,59.471 312.267,59.606 312.281 C 60.087 312.331,60.730 313.125,60.545 313.440 C 60.442 313.616,60.578 313.581,60.848 313.363 C 61.118 313.144,61.424 313.051,61.529 313.156 C 61.634 313.260,62.772 313.408,64.060 313.484 C 65.347 313.561,66.580 313.642,66.800 313.665 C 67.020 313.688,67.200 313.955,67.200 314.259 C 67.200 314.563,67.423 314.897,67.697 315.002 C 67.970 315.107,68.115 315.065,68.018 314.910 C 67.922 314.754,68.075 314.538,68.357 314.430 C 68.745 314.281,68.819 314.368,68.659 314.787 C 68.542 315.091,68.549 315.238,68.674 315.113 C 68.799 314.988,69.100 315.051,69.344 315.253 C 69.662 315.517,69.885 315.523,70.134 315.274 C 70.334 315.074,70.769 315.029,71.161 315.168 C 71.534 315.300,72.459 315.384,73.215 315.354 C 74.250 315.313,74.550 315.406,74.425 315.730 C 74.331 315.974,74.471 316.160,74.749 316.160 C 75.047 316.160,75.150 316.004,75.012 315.760 C 74.843 315.461,74.898 315.464,75.230 315.773 C 75.609 316.125,75.604 316.231,75.197 316.488 C 74.803 316.738,74.831 316.797,75.360 316.832 C 76.170 316.885,80.730 317.055,82.339 317.092 C 83.009 317.107,83.481 317.245,83.386 317.397 C 83.192 317.712,84.152 318.614,84.640 318.575 C 85.261 318.527,85.768 318.031,85.579 317.658 C 85.474 317.450,85.745 317.667,86.181 318.140 C 86.617 318.612,87.048 318.925,87.139 318.835 C 87.403 318.570,88.957 318.466,88.798 318.724 C 88.718 318.853,90.054 318.935,91.766 318.906 C 95.258 318.849,95.680 318.919,95.680 319.554 C 95.680 319.932,100.309 320.000,126.080 320.000 C 152.889 320.000,156.480 319.943,156.480 319.520 C 156.480 319.012,156.575 319.003,162.400 318.921 C 163.984 318.898,165.460 318.764,165.680 318.621 C 165.904 318.476,166.080 318.500,166.080 318.675 C 166.080 318.879,166.472 318.880,167.198 318.680 C 167.813 318.510,168.497 318.395,168.718 318.423 C 169.729 318.555,170.092 318.388,169.520 318.054 C 169.212 317.875,168.960 317.574,168.960 317.385 C 168.960 317.178,169.176 317.217,169.501 317.481 C 169.869 317.779,169.966 317.792,169.803 317.520 C 169.550 317.100,169.636 317.093,175.266 317.038 C 176.710 317.024,177.823 316.902,177.740 316.768 C 177.657 316.634,177.736 316.434,177.915 316.323 C 178.094 316.213,178.240 316.258,178.240 316.424 C 178.240 317.075,179.494 317.038,180.062 316.371 C 180.628 315.705,180.626 315.701,180.000 316.166 C 179.405 316.607,179.391 316.600,179.806 316.072 C 180.051 315.760,180.314 315.568,180.392 315.645 C 180.469 315.722,181.006 315.587,181.585 315.345 C 182.165 315.103,182.733 315.000,182.849 315.115 C 183.215 315.481,184.123 315.496,184.549 315.143 C 184.846 314.896,184.960 314.912,184.960 315.200 C 184.960 315.518,185.057 315.518,185.440 315.200 C 185.704 314.981,185.920 314.909,185.920 315.040 C 185.920 315.171,186.164 315.081,186.461 314.839 C 186.905 314.480,186.956 314.478,186.743 314.832 C 186.533 315.180,186.612 315.195,187.144 314.910 C 187.507 314.716,187.907 314.391,188.032 314.189 C 188.167 313.970,188.118 313.908,187.912 314.036 C 187.721 314.154,187.460 314.082,187.333 313.876 C 187.188 313.642,187.240 313.587,187.471 313.729 C 187.674 313.855,187.840 313.835,187.840 313.685 C 187.840 313.535,188.790 313.418,189.951 313.426 C 191.111 313.434,192.129 313.330,192.213 313.195 C 192.296 313.060,192.498 313.032,192.661 313.133 C 193.382 313.578,194.152 313.494,194.504 312.930 C 194.714 312.595,194.752 312.320,194.589 312.320 C 194.427 312.320,194.221 312.500,194.132 312.720 C 194.005 313.035,193.965 313.033,193.945 312.712 C 193.913 312.189,195.209 311.698,196.908 311.588 C 197.641 311.541,198.420 311.390,198.640 311.252 C 198.869 311.109,199.040 311.152,199.040 311.352 C 199.040 311.603,199.221 311.606,199.680 311.360 C 200.165 311.101,200.325 311.117,200.342 311.429 C 200.355 311.655,200.477 311.552,200.615 311.200 C 200.786 310.762,200.703 310.438,200.352 310.172 C 199.912 309.839,199.947 309.804,200.601 309.922 C 201.019 309.997,201.622 309.919,201.941 309.749 C 202.321 309.546,202.590 309.549,202.720 309.760 C 202.852 309.974,203.131 309.968,203.552 309.743 C 203.899 309.557,204.502 309.505,204.890 309.628 C 205.497 309.821,205.538 309.784,205.187 309.361 C 204.674 308.743,206.147 308.092,208.263 308.003 C 209.383 307.955,209.756 307.777,210.221 307.070 C 210.693 306.350,210.829 306.287,210.993 306.714 C 211.103 307.000,211.060 307.151,210.898 307.051 C 210.737 306.951,210.522 307.003,210.421 307.167 C 210.320 307.330,210.490 307.427,210.798 307.381 C 211.107 307.336,211.360 307.111,211.360 306.882 C 211.360 306.323,212.151 306.078,213.926 306.088 C 215.179 306.094,215.375 306.011,215.248 305.528 C 215.037 304.720,215.326 304.824,215.670 305.680 C 215.936 306.342,215.961 306.348,215.985 305.760 C 216.006 305.228,216.062 305.201,216.320 305.600 C 216.592 306.021,216.631 306.018,216.635 305.574 C 216.638 305.296,216.995 304.878,217.429 304.646 C 217.863 304.414,218.130 304.065,218.022 303.872 C 217.914 303.678,218.020 303.700,218.257 303.920 C 218.877 304.495,219.301 304.412,219.073 303.760 C 218.914 303.303,218.975 303.318,219.402 303.840 C 219.818 304.348,219.887 304.367,219.736 303.929 C 219.505 303.257,220.602 302.399,221.475 302.567 C 221.808 302.631,222.080 302.519,222.080 302.318 C 222.080 302.054,222.187 302.059,222.464 302.336 C 222.927 302.799,223.799 302.852,223.520 302.400 C 223.411 302.224,223.475 302.080,223.661 302.080 C 223.848 302.080,224.000 302.248,224.000 302.453 C 224.000 303.114,224.405 302.445,224.443 301.722 C 224.480 301.027,226.880 299.810,226.880 300.487 C 226.880 300.648,227.095 300.697,227.358 300.596 C 227.621 300.496,227.754 300.248,227.654 300.046 C 227.554 299.845,227.699 299.960,227.976 300.301 C 228.253 300.643,228.480 300.761,228.480 300.563 C 228.480 300.365,228.761 300.114,229.104 300.005 C 229.517 299.874,229.660 299.632,229.528 299.288 C 229.379 298.899,229.463 298.821,229.867 298.975 C 230.163 299.089,230.800 299.019,231.283 298.819 C 231.765 298.620,232.263 298.478,232.388 298.504 C 232.514 298.531,232.526 298.315,232.415 298.025 C 232.256 297.611,232.357 297.535,232.882 297.672 C 233.317 297.786,233.502 297.716,233.408 297.472 C 233.314 297.227,233.634 297.109,234.329 297.132 C 234.915 297.151,235.572 296.976,235.790 296.744 C 236.057 296.457,236.070 296.320,235.830 296.320 C 235.624 296.320,235.677 296.117,235.954 295.840 C 236.528 295.266,236.934 295.205,236.601 295.743 C 236.471 295.954,236.848 295.781,237.440 295.360 C 238.032 294.939,238.409 294.766,238.279 294.977 C 238.149 295.188,238.199 295.360,238.391 295.360 C 238.583 295.360,238.823 295.145,238.924 294.882 C 239.024 294.619,239.238 294.485,239.399 294.584 C 239.559 294.683,239.588 294.934,239.464 295.142 C 239.339 295.350,239.517 295.309,239.859 295.051 C 240.799 294.340,240.843 294.283,240.293 294.479 C 239.997 294.584,239.787 294.485,239.787 294.240 C 239.787 293.999,239.991 293.899,240.266 294.005 C 240.577 294.124,240.664 294.058,240.514 293.814 C 240.375 293.590,240.482 293.440,240.781 293.440 C 241.586 293.440,241.740 293.371,242.133 292.834 C 242.416 292.446,242.416 292.267,242.133 292.087 C 241.908 291.944,242.078 291.828,242.560 291.796 C 243.336 291.744,243.741 291.677,244.240 291.517 C 244.780 291.344,245.155 291.278,245.840 291.235 C 246.421 291.199,246.468 291.132,246.083 290.888 C 245.322 290.407,246.196 289.789,247.599 289.816 C 248.260 289.828,248.614 289.771,248.387 289.688 C 247.507 289.368,249.472 287.941,250.558 288.113 C 251.297 288.229,251.613 288.130,251.764 287.736 C 252.060 286.966,253.335 285.760,253.854 285.760 C 254.098 285.760,254.468 285.384,254.678 284.925 C 254.953 284.320,255.232 284.135,255.689 284.255 C 256.036 284.346,256.401 284.287,256.502 284.125 C 256.602 283.962,256.818 283.912,256.982 284.014 C 257.146 284.115,257.280 284.050,257.280 283.869 C 257.280 283.688,257.495 283.623,257.758 283.724 C 258.021 283.824,258.138 284.072,258.017 284.274 C 257.896 284.475,258.041 284.442,258.339 284.201 C 258.914 283.734,259.085 283.356,258.579 283.668 C 258.414 283.770,258.301 283.559,258.328 283.199 C 258.357 282.809,258.543 282.608,258.789 282.702 C 259.015 282.789,259.200 282.705,259.200 282.516 C 259.200 282.326,259.393 282.246,259.629 282.336 C 260.317 282.600,261.077 281.995,260.513 281.632 C 260.167 281.409,260.289 281.230,261.055 280.833 C 261.693 280.503,262.115 280.438,262.246 280.649 C 262.514 281.083,264.676 278.910,264.534 278.350 C 264.474 278.114,264.486 278.029,264.560 278.162 C 264.634 278.295,264.826 278.323,264.987 278.223 C 265.148 278.124,265.282 278.303,265.285 278.621 C 265.289 279.097,265.342 279.117,265.584 278.735 C 265.745 278.480,265.806 278.155,265.718 278.013 C 265.539 277.722,266.361 276.800,266.799 276.800 C 266.956 276.800,267.398 276.440,267.780 276.000 C 268.377 275.314,269.227 275.015,270.160 275.162 C 270.292 275.183,270.400 275.056,270.400 274.880 C 270.400 274.704,270.508 274.577,270.640 274.598 C 271.272 274.698,271.402 274.516,271.025 274.062 C 270.683 273.650,270.690 273.581,271.066 273.662 C 271.316 273.716,271.484 273.580,271.440 273.360 C 271.396 273.140,271.661 272.960,272.030 272.960 C 272.431 272.960,272.767 272.703,272.867 272.320 C 273.039 271.664,273.105 271.629,274.289 271.560 C 274.694 271.537,275.015 271.278,275.065 270.935 C 275.231 269.801,275.495 269.472,276.137 269.596 C 276.494 269.664,276.884 269.563,277.003 269.371 C 277.142 269.145,277.069 269.114,276.795 269.283 C 276.483 269.476,276.428 269.397,276.586 268.986 C 276.704 268.679,276.800 268.367,276.800 268.294 C 276.800 268.220,277.304 268.160,277.920 268.160 C 278.951 268.160,279.040 268.084,279.040 267.200 C 279.040 266.395,279.166 266.240,279.824 266.240 C 280.255 266.240,280.743 265.999,280.908 265.704 C 281.073 265.409,281.441 265.134,281.726 265.092 C 282.010 265.050,282.160 265.150,282.059 265.313 C 281.958 265.477,281.766 265.542,281.631 265.459 C 281.497 265.376,281.387 265.518,281.387 265.774 C 281.387 266.360,281.438 266.356,282.068 265.726 C 282.447 265.348,282.491 265.102,282.236 264.795 C 281.854 264.335,282.333 263.822,282.846 264.139 C 283.004 264.237,283.216 264.101,283.316 263.838 C 283.417 263.575,283.324 263.357,283.110 263.353 C 282.895 263.349,283.188 263.115,283.760 262.833 C 284.332 262.551,284.810 262.158,284.822 261.960 C 284.835 261.762,284.969 261.888,285.120 262.240 C 285.355 262.787,285.398 262.799,285.418 262.320 C 285.430 262.011,285.691 261.758,286.000 261.755 C 286.470 261.751,286.485 261.702,286.088 261.452 C 285.691 261.201,285.738 261.025,286.387 260.333 C 286.885 259.803,287.235 259.638,287.377 259.867 C 287.587 260.207,288.172 258.692,288.045 258.136 C 288.011 257.991,288.132 257.964,288.312 258.075 C 288.492 258.187,288.654 258.089,288.672 257.859 C 288.689 257.628,288.819 257.800,288.960 258.240 L 289.216 259.040 289.258 258.240 C 289.332 256.845,290.133 256.053,290.697 256.819 C 291.138 257.418,291.163 257.419,291.384 256.848 C 291.527 256.479,291.448 256.153,291.176 255.985 C 290.610 255.636,290.883 255.379,291.910 255.294 C 292.429 255.251,292.671 255.076,292.571 254.815 C 292.484 254.589,292.248 254.502,292.046 254.623 C 291.843 254.745,291.869 254.610,292.103 254.320 C 292.336 254.033,292.732 253.877,292.983 253.973 C 293.290 254.091,293.440 253.927,293.440 253.474 C 293.440 253.103,293.592 252.800,293.779 252.800 C 293.965 252.800,294.017 252.637,293.894 252.438 C 293.758 252.217,293.843 252.140,294.115 252.238 C 294.360 252.327,294.526 252.557,294.484 252.748 C 294.442 252.940,294.626 253.013,294.892 252.911 C 295.235 252.779,295.281 252.610,295.049 252.331 C 294.817 252.051,294.904 251.772,295.354 251.366 C 295.701 251.052,295.916 250.682,295.831 250.545 C 295.746 250.408,296.034 250.335,296.470 250.383 C 296.905 250.431,297.186 250.346,297.092 250.195 C 296.999 250.044,297.055 249.920,297.217 249.920 C 297.379 249.920,297.474 249.570,297.427 249.142 C 297.361 248.549,297.461 248.409,297.843 248.556 C 298.136 248.669,298.262 248.615,298.147 248.428 C 298.037 248.251,298.151 248.107,298.400 248.107 C 298.649 248.107,298.761 248.263,298.651 248.453 C 298.540 248.644,298.738 248.548,299.091 248.239 C 299.443 247.931,299.851 247.787,299.997 247.919 C 300.143 248.052,300.172 247.908,300.061 247.600 C 299.951 247.292,299.975 247.040,300.116 247.040 C 300.257 247.040,300.570 246.644,300.813 246.160 C 301.540 244.708,301.809 244.443,302.214 244.779 C 302.475 244.995,302.603 244.849,302.650 244.285 C 302.691 243.787,302.587 243.565,302.374 243.696 C 302.184 243.813,302.210 243.623,302.433 243.265 C 302.654 242.913,303.024 242.697,303.257 242.786 C 303.490 242.875,303.682 242.753,303.685 242.514 C 303.689 242.179,303.761 242.190,304.000 242.560 C 304.337 243.081,304.345 243.060,304.440 241.388 C 304.462 241.007,304.611 240.575,304.771 240.428 C 304.945 240.268,304.955 240.355,304.796 240.640 C 304.626 240.946,304.782 240.899,305.225 240.510 C 305.993 239.837,306.140 239.517,305.520 239.870 C 305.300 239.996,305.408 239.807,305.760 239.450 C 306.112 239.094,306.517 238.870,306.660 238.952 C 307.016 239.158,308.186 238.062,307.975 237.720 C 307.882 237.569,307.953 237.192,308.133 236.883 C 308.313 236.573,308.479 236.464,308.502 236.640 C 308.525 236.816,308.650 236.600,308.780 236.160 C 308.910 235.720,309.188 235.397,309.397 235.443 C 309.607 235.489,309.866 235.297,309.973 235.016 C 310.131 234.606,310.222 234.590,310.440 234.933 C 310.662 235.284,310.711 235.281,310.715 234.915 C 310.718 234.671,310.972 234.264,311.280 234.012 C 311.588 233.759,311.660 233.644,311.440 233.755 C 310.465 234.249,311.571 232.050,312.939 230.777 C 313.566 230.192,313.881 229.816,313.638 229.941 C 313.345 230.093,313.247 230.020,313.346 229.725 C 313.428 229.480,313.729 229.278,314.015 229.276 C 314.301 229.274,314.721 229.086,314.948 228.857 C 315.285 228.518,315.257 228.481,314.796 228.657 C 314.369 228.820,314.280 228.747,314.430 228.357 C 314.538 228.075,314.776 227.936,314.957 228.048 C 315.139 228.160,315.558 227.907,315.888 227.486 C 316.401 226.832,316.461 226.814,316.298 227.360 C 316.110 227.991,316.115 227.991,316.614 227.379 C 317.008 226.896,317.031 226.701,316.720 226.504 C 316.466 226.343,316.450 226.248,316.676 226.245 C 316.872 226.242,317.035 225.916,317.037 225.520 C 317.048 224.013,317.104 223.922,317.920 224.078 C 318.572 224.203,318.720 224.104,318.720 223.547 C 318.720 223.170,318.931 222.561,319.189 222.193 C 319.446 221.825,319.554 221.410,319.429 221.271 C 319.303 221.131,319.402 221.134,319.649 221.278 C 320.223 221.611,320.949 220.667,320.739 219.863 C 320.647 219.511,320.836 219.099,321.209 218.837 C 321.801 218.423,321.913 218.241,321.925 217.680 C 321.928 217.548,322.069 217.656,322.240 217.920 C 322.505 218.330,322.551 218.319,322.555 217.840 C 322.558 217.532,322.704 217.280,322.880 217.280 C 323.056 217.280,323.200 217.009,323.200 216.677 C 323.200 216.346,323.470 216.004,323.800 215.918 C 324.237 215.803,324.375 215.522,324.304 214.883 C 324.170 213.661,324.754 212.482,325.375 212.721 C 325.739 212.861,325.817 212.769,325.666 212.376 C 325.531 212.025,325.622 211.840,325.930 211.840 C 326.189 211.840,326.400 211.648,326.400 211.413 C 326.400 211.178,326.832 210.601,327.360 210.130 C 328.370 209.230,328.590 208.643,327.920 208.635 C 327.621 208.631,327.628 208.562,327.947 208.359 C 328.182 208.210,328.398 207.962,328.427 207.806 C 328.456 207.651,328.624 207.557,328.800 207.596 C 329.289 207.705,329.939 206.147,329.483 205.959 C 329.229 205.854,329.248 205.718,329.547 205.509 C 329.782 205.344,329.962 205.117,329.947 205.004 C 329.785 203.790,329.937 203.456,330.461 203.881 C 330.829 204.179,330.926 204.192,330.763 203.920 C 330.630 203.700,330.670 203.520,330.850 203.520 C 331.030 203.520,331.341 203.215,331.541 202.841 C 331.796 202.364,331.799 202.227,331.552 202.380 C 331.107 202.655,331.110 202.499,331.572 201.381 C 331.776 200.885,331.920 200.372,331.892 200.240 C 331.863 200.108,331.974 200.000,332.138 200.000 C 332.303 200.000,332.529 199.710,332.641 199.355 C 332.754 199.001,332.972 198.789,333.126 198.884 C 333.280 198.979,333.351 198.768,333.283 198.415 C 333.215 198.062,333.297 197.688,333.465 197.585 C 333.633 197.481,333.698 197.278,333.609 197.134 C 333.520 196.990,333.694 196.892,333.996 196.916 C 334.298 196.940,334.555 196.744,334.567 196.480 C 334.579 196.216,334.734 196.026,334.911 196.059 C 335.087 196.091,335.246 195.803,335.262 195.419 C 335.361 193.141,335.451 192.967,336.439 193.141 C 337.247 193.283,337.324 193.239,336.984 192.829 C 336.766 192.566,336.665 192.092,336.761 191.775 C 336.857 191.459,337.006 190.789,337.092 190.286 C 337.258 189.325,338.188 188.410,338.686 188.718 C 338.847 188.817,338.876 188.733,338.751 188.529 C 338.625 188.326,338.659 188.160,338.826 188.160 C 338.992 188.160,339.122 187.980,339.114 187.760 C 339.068 186.521,339.241 185.485,339.445 185.778 C 339.599 185.998,339.874 185.915,340.240 185.538 C 340.548 185.220,340.669 184.960,340.508 184.960 C 340.170 184.960,340.233 184.523,340.755 183.247 C 341.001 182.647,341.290 182.397,341.601 182.516 C 341.871 182.620,342.040 182.532,341.996 182.308 C 341.954 182.095,342.069 181.946,342.251 181.977 C 342.434 182.009,342.583 181.757,342.583 181.417 C 342.583 181.078,342.362 180.789,342.091 180.775 C 341.759 180.758,341.730 180.697,342.002 180.587 C 342.223 180.498,342.323 180.294,342.223 180.133 C 342.124 179.972,342.231 179.838,342.461 179.835 C 342.765 179.832,342.749 179.745,342.400 179.520 C 342.070 179.307,342.047 179.208,342.326 179.205 C 342.590 179.202,342.679 178.904,342.579 178.355 C 342.410 177.423,343.176 175.961,343.448 176.698 C 343.721 177.436,344.437 175.273,344.368 173.920 C 344.319 172.968,344.385 172.763,344.626 173.120 C 344.960 173.615,345.146 173.185,344.971 172.320 C 344.936 172.144,345.008 172.101,345.131 172.225 C 345.647 172.740,346.123 171.547,346.168 169.628 C 346.194 168.499,346.374 167.419,346.567 167.228 C 346.821 166.976,346.863 167.057,346.719 167.520 C 346.608 167.876,346.746 167.770,347.030 167.280 C 347.311 166.796,347.716 166.390,347.930 166.378 C 348.145 166.365,348.032 166.231,347.680 166.080 C 347.216 165.881,347.178 165.799,347.542 165.782 C 347.934 165.765,348.026 165.444,347.960 164.325 C 347.904 163.376,348.039 162.726,348.360 162.405 C 348.627 162.138,348.691 161.920,348.503 161.920 C 348.314 161.920,348.160 161.771,348.160 161.589 C 348.160 161.362,348.353 161.361,348.771 161.585 C 349.304 161.870,349.371 161.809,349.295 161.116 C 349.247 160.678,349.348 160.320,349.518 160.320 C 349.689 160.320,349.746 160.104,349.644 159.840 C 349.543 159.576,349.636 159.358,349.850 159.355 C 350.097 159.352,350.064 159.236,349.760 159.040 C 349.492 158.867,349.443 158.728,349.650 158.725 C 349.854 158.722,349.961 158.468,349.888 158.160 C 349.815 157.852,350.057 157.240,350.425 156.800 C 350.794 156.360,350.983 156.216,350.846 156.480 C 350.632 156.893,350.672 156.899,351.139 156.521 C 351.725 156.045,351.881 155.678,351.360 156.000 C 351.184 156.109,351.040 155.982,351.040 155.718 C 351.040 155.454,351.157 155.166,351.299 155.078 C 351.442 154.989,351.594 154.230,351.638 153.389 C 351.681 152.549,351.888 151.649,352.098 151.389 C 352.398 151.019,352.394 150.969,352.080 151.157 C 351.860 151.290,351.680 151.262,351.680 151.096 C 351.680 150.833,352.806 150.308,353.294 150.343 C 353.389 150.350,353.489 150.065,353.516 149.710 C 353.548 149.279,353.416 149.122,353.118 149.236 C 352.826 149.348,352.734 149.247,352.851 148.944 C 352.948 148.689,353.133 148.480,353.261 148.480 C 353.389 148.480,353.493 148.264,353.493 148.000 C 353.493 147.736,353.337 147.518,353.147 147.515 C 352.956 147.512,353.001 147.383,353.247 147.227 C 353.494 147.071,353.605 146.714,353.495 146.429 C 353.248 145.783,353.592 143.957,353.923 144.162 C 354.219 144.345,354.986 143.471,355.078 142.846 C 355.115 142.596,354.990 142.492,354.797 142.612 C 354.606 142.730,354.686 142.488,354.976 142.075 C 355.365 141.519,355.411 141.214,355.152 140.902 C 354.921 140.624,354.914 140.480,355.133 140.480 C 355.498 140.480,355.479 139.899,355.092 139.280 C 354.955 139.060,354.969 138.880,355.125 138.880 C 355.280 138.880,355.380 138.412,355.346 137.840 C 355.311 137.241,355.518 136.529,355.835 136.160 C 356.526 135.355,356.937 134.277,356.435 134.588 C 356.217 134.722,356.140 134.635,356.238 134.365 C 356.327 134.120,356.568 133.958,356.774 134.005 C 357.050 134.067,357.058 133.922,356.802 133.445 C 356.540 132.954,356.556 132.799,356.869 132.795 C 357.187 132.791,357.181 132.728,356.846 132.515 C 356.524 132.311,356.509 132.180,356.787 132.008 C 356.993 131.881,357.137 131.395,357.107 130.928 C 356.912 127.907,357.143 125.500,357.645 125.307 C 358.050 125.151,358.091 125.201,357.823 125.524 C 357.557 125.844,357.620 125.943,358.090 125.943 C 358.428 125.943,358.778 125.750,358.868 125.515 C 358.960 125.276,358.888 125.176,358.705 125.289 C 358.382 125.489,358.460 124.525,358.872 123.224 C 358.979 122.889,358.914 122.520,358.728 122.405 C 358.542 122.290,358.491 122.032,358.615 121.831 C 358.739 121.630,358.870 119.522,358.906 117.146 C 358.968 113.012,359.004 112.798,359.746 112.160 C 360.628 111.401,361.061 110.500,360.661 110.253 C 360.323 110.044,360.440 105.223,360.797 104.645 C 360.955 104.388,360.934 104.298,360.743 104.416 C 360.562 104.528,360.427 104.212,360.427 103.680 C 360.427 103.167,360.546 102.822,360.692 102.912 C 360.839 103.003,360.824 102.723,360.659 102.291 C 360.495 101.859,360.445 101.422,360.547 101.319 C 360.732 101.135,360.744 97.763,360.570 95.120 C 360.520 94.372,360.552 93.760,360.640 93.760 C 360.785 93.760,360.792 88.758,360.652 85.120 C 360.570 82.976,360.866 80.422,361.272 79.773 C 361.583 79.276,361.609 79.306,361.467 80.000 L 361.304 80.800 361.657 79.969 C 361.850 79.512,362.292 78.962,362.638 78.746 C 363.093 78.461,363.203 78.456,363.035 78.728 C 362.859 79.013,362.966 79.016,363.481 78.741 C 363.855 78.541,364.178 78.239,364.200 78.069 C 364.222 77.899,364.258 77.594,364.280 77.392 C 364.302 77.189,364.675 76.970,365.108 76.903 C 365.542 76.837,366.190 76.517,366.548 76.192 C 366.907 75.867,367.380 75.667,367.600 75.747 C 367.820 75.828,368.005 75.701,368.010 75.467 C 368.025 74.841,369.508 73.258,369.988 73.356 C 370.215 73.402,370.371 73.281,370.336 73.087 C 370.298 72.879,370.626 72.783,371.136 72.852 C 371.828 72.946,371.877 72.915,371.383 72.700 C 370.830 72.460,370.822 72.411,371.303 72.226 C 371.599 72.113,371.840 71.771,371.840 71.466 C 371.840 71.057,371.934 71.006,372.199 71.271 C 372.396 71.468,372.756 71.554,372.999 71.461 C 373.539 71.254,373.587 70.400,373.059 70.400 C 372.849 70.400,372.956 70.197,373.295 69.948 C 373.635 69.700,374.023 69.564,374.156 69.647 C 374.290 69.730,374.400 69.630,374.400 69.425 C 374.400 69.219,374.606 69.131,374.858 69.227 C 375.178 69.350,375.280 69.216,375.197 68.783 C 375.125 68.409,375.324 68.031,375.699 67.830 C 376.164 67.581,376.320 67.601,376.320 67.909 C 376.321 68.135,376.573 67.816,376.880 67.200 C 377.230 66.501,377.712 66.041,378.165 65.977 C 378.563 65.921,378.807 65.741,378.706 65.577 C 378.605 65.414,378.659 65.280,378.826 65.280 C 378.992 65.280,379.109 65.028,379.084 64.720 C 379.060 64.412,379.220 64.196,379.440 64.240 C 379.660 64.284,379.840 64.176,379.840 64.000 C 379.840 63.824,380.064 63.680,380.339 63.680 C 380.613 63.680,380.756 63.547,380.655 63.384 C 380.555 63.222,380.898 62.786,381.417 62.416 C 381.937 62.046,382.456 61.449,382.570 61.089 C 382.692 60.704,382.960 60.504,383.220 60.603 C 383.785 60.820,384.664 59.955,384.449 59.394 C 384.342 59.115,384.629 58.898,385.278 58.768 C 385.824 58.659,386.246 58.388,386.217 58.165 C 386.090 57.195,386.267 56.952,387.003 57.086 C 387.643 57.202,387.738 57.118,387.592 56.562 C 387.463 56.069,387.528 55.967,387.844 56.162 C 388.141 56.346,388.215 56.284,388.090 55.959 C 387.992 55.703,388.111 55.220,388.356 54.885 C 388.761 54.331,388.800 54.327,388.800 54.838 C 388.800 55.146,388.946 55.307,389.125 55.197 C 389.304 55.086,389.368 54.862,389.266 54.698 C 389.165 54.534,389.222 54.400,389.393 54.400 C 389.564 54.400,389.663 54.148,389.613 53.840 C 389.476 52.987,389.761 52.723,390.324 53.184 C 390.765 53.546,390.807 53.506,390.645 52.880 C 390.516 52.376,390.601 52.160,390.929 52.160 C 391.202 52.160,391.302 52.006,391.169 51.791 C 391.037 51.576,391.081 51.507,391.274 51.627 C 391.458 51.740,391.785 51.619,392.003 51.356 C 392.220 51.094,392.705 50.871,393.079 50.860 C 393.748 50.840,393.747 50.834,393.040 50.550 C 392.644 50.391,392.320 50.189,392.320 50.100 C 392.320 50.012,392.560 50.032,392.852 50.144 C 393.189 50.274,393.307 50.222,393.172 50.004 C 393.035 49.783,393.216 49.716,393.680 49.818 C 394.194 49.930,394.278 49.889,393.973 49.672 C 393.628 49.427,393.647 49.330,394.073 49.167 C 394.363 49.056,394.512 48.821,394.404 48.646 C 394.288 48.458,394.422 48.410,394.731 48.529 C 395.113 48.675,395.238 48.565,395.191 48.125 C 395.155 47.792,395.161 47.412,395.203 47.280 C 395.328 46.889,395.437 46.421,395.480 46.090 C 395.502 45.920,395.721 45.857,395.968 45.952 C 396.214 46.046,396.524 45.948,396.657 45.732 C 396.823 45.464,396.758 45.418,396.449 45.588 C 396.202 45.724,396.396 45.478,396.880 45.040 C 397.364 44.603,397.760 44.010,397.760 43.723 C 397.760 43.413,398.021 43.200,398.400 43.200 C 398.756 43.200,399.040 42.987,399.040 42.720 C 399.040 42.456,399.256 42.240,399.520 42.240 C 399.916 42.240,400.000 41.653,400.000 38.880 C 400.000 35.676,399.969 35.520,399.326 35.520 C 398.853 35.520,398.708 35.666,398.839 36.007 C 398.991 36.404,398.909 36.432,398.397 36.159 C 397.822 35.851,397.795 35.891,398.077 36.631 C 398.343 37.333,398.297 37.440,397.731 37.440 C 397.372 37.440,396.782 37.598,396.420 37.792 C 395.942 38.048,395.822 38.048,395.980 37.792 C 396.100 37.598,396.045 37.440,395.859 37.440 C 395.672 37.440,395.520 37.666,395.520 37.942 C 395.520 38.314,395.335 38.386,394.800 38.222 C 394.404 38.100,394.188 38.115,394.321 38.254 C 394.854 38.816,393.607 39.601,392.549 39.369 C 391.882 39.223,391.195 39.305,390.598 39.602 C 389.829 39.984,389.630 39.989,389.402 39.630 C 389.181 39.281,389.122 39.291,389.088 39.680 C 389.065 39.944,389.027 40.376,389.003 40.640 C 388.973 40.975,388.596 41.119,387.760 41.116 C 387.100 41.113,386.558 41.257,386.555 41.436 C 386.552 41.614,386.414 41.545,386.248 41.283 C 386.014 40.913,385.861 40.891,385.564 41.188 C 385.320 41.432,384.991 41.468,384.654 41.287 C 384.273 41.084,384.018 41.177,383.740 41.622 C 383.528 41.962,383.488 42.240,383.651 42.240 C 383.813 42.240,384.020 42.092,384.109 41.912 C 384.199 41.732,384.239 41.756,384.198 41.966 C 384.108 42.429,381.784 43.278,381.210 43.057 C 380.985 42.971,380.800 43.068,380.800 43.274 C 380.800 43.554,380.703 43.551,380.416 43.264 C 379.952 42.800,379.403 42.752,379.680 43.200 C 379.789 43.376,379.737 43.520,379.566 43.520 C 379.394 43.520,379.199 43.357,379.132 43.157 C 379.052 42.917,378.840 42.966,378.504 43.302 C 378.225 43.581,377.907 43.720,377.798 43.611 C 377.689 43.502,377.600 43.581,377.600 43.787 C 377.600 43.992,377.752 44.160,377.939 44.160 C 378.125 44.160,378.180 44.318,378.061 44.510 C 377.942 44.703,377.511 44.796,377.103 44.718 C 376.695 44.640,376.177 44.691,375.951 44.830 C 375.726 44.969,375.357 44.930,375.131 44.743 C 374.905 44.555,374.720 44.534,374.720 44.696 C 374.720 44.859,374.180 44.984,373.520 44.976 C 372.860 44.967,372.212 45.104,372.080 45.280 C 371.929 45.481,371.723 45.421,371.525 45.120 C 371.255 44.709,371.209 44.721,371.205 45.200 C 371.202 45.508,371.048 45.760,370.861 45.760 C 370.675 45.760,370.602 45.889,370.699 46.046 C 371.014 46.556,369.951 46.712,367.469 46.520 C 365.559 46.372,365.093 46.418,365.289 46.735 C 365.456 47.005,365.410 47.059,365.148 46.897 C 364.921 46.757,364.555 46.903,364.273 47.248 C 363.869 47.741,363.815 47.751,363.954 47.306 C 364.086 46.880,363.941 46.794,363.233 46.884 C 362.625 46.961,362.347 46.852,362.347 46.538 C 362.347 46.286,362.407 46.140,362.480 46.214 C 362.745 46.479,363.780 45.337,363.630 44.945 C 363.432 44.430,363.830 44.195,365.059 44.102 C 365.775 44.047,365.961 43.923,365.736 43.651 C 365.522 43.394,365.585 43.213,365.932 43.080 C 366.222 42.968,366.341 42.723,366.208 42.508 C 366.051 42.254,366.148 42.198,366.508 42.336 C 366.800 42.448,367.040 42.435,367.040 42.307 C 367.040 41.798,368.731 40.270,368.933 40.596 C 369.060 40.802,369.304 40.676,369.555 40.274 C 369.822 39.846,369.838 39.693,369.600 39.840 C 369.369 39.983,369.389 39.818,369.654 39.393 C 369.885 39.022,370.217 38.766,370.391 38.824 C 370.864 38.981,371.940 37.861,371.695 37.465 C 371.558 37.242,371.900 37.120,372.657 37.120 C 373.787 37.120,373.827 37.082,373.688 36.136 C 373.569 35.325,373.641 35.178,374.097 35.297 C 374.400 35.377,374.845 35.317,375.085 35.166 C 375.420 34.953,375.426 34.889,375.109 34.885 C 374.795 34.881,374.780 34.726,375.044 34.233 C 375.234 33.878,375.289 33.424,375.165 33.224 C 375.042 33.024,375.071 32.938,375.231 33.033 C 375.782 33.360,377.165 32.645,376.632 32.308 C 376.235 32.057,376.249 32.009,376.720 32.005 C 377.028 32.002,377.280 31.784,377.280 31.520 C 377.280 30.989,377.805 30.860,377.973 31.350 C 378.032 31.520,378.247 31.304,378.450 30.869 C 378.666 30.408,378.686 30.162,378.497 30.279 C 378.319 30.389,378.389 30.137,378.651 29.719 C 378.914 29.302,379.084 28.694,379.028 28.369 C 378.952 27.923,379.079 27.817,379.544 27.939 C 379.883 28.028,380.087 27.981,379.998 27.836 C 379.908 27.691,380.027 27.379,380.263 27.143 C 380.499 26.907,380.636 26.549,380.569 26.346 C 380.501 26.144,380.598 25.885,380.783 25.770 C 380.968 25.656,381.120 25.720,381.120 25.914 C 381.120 26.383,382.242 25.273,382.505 24.543 C 382.650 24.141,382.593 24.034,382.316 24.190 C 382.007 24.365,382.008 24.319,382.320 23.983 C 382.540 23.746,382.720 23.212,382.720 22.797 C 382.720 22.382,382.851 22.123,383.011 22.222 C 383.829 22.727,384.292 21.936,384.402 19.844 C 384.439 19.128,385.087 18.560,385.867 18.560 C 386.013 18.560,386.111 18.255,386.083 17.882 C 385.988 16.598,386.433 14.879,386.837 14.966 C 387.541 15.118,388.000 14.275,387.987 12.856 C 387.974 11.535,388.600 10.082,389.062 10.361 C 389.182 10.434,389.466 10.292,389.693 10.046 C 389.958 9.759,389.980 9.600,389.754 9.600 C 389.553 9.600,389.509 9.429,389.652 9.200 C 390.000 8.641,390.037 7.371,389.711 7.170 C 389.272 6.898,389.395 6.019,389.840 6.245 C 390.060 6.356,389.816 6.117,389.299 5.713 C 388.135 4.804,386.529 4.691,386.316 5.502 C 386.234 5.816,386.037 5.992,385.878 5.894 C 385.720 5.796,385.666 5.592,385.760 5.440 C 385.854 5.288,385.800 5.084,385.642 4.986 C 385.483 4.888,385.278 5.094,385.186 5.444 C 385.095 5.794,385.159 6.080,385.329 6.080 C 385.499 6.080,385.547 6.226,385.437 6.405 C 385.326 6.584,385.095 6.644,384.924 6.538 C 384.752 6.432,384.438 6.473,384.226 6.630 C 384.014 6.788,383.454 6.901,382.982 6.883 C 382.509 6.866,382.188 6.956,382.267 7.084 C 382.346 7.212,382.140 7.506,381.808 7.738 C 381.477 7.970,381.199 8.280,381.190 8.427 C 381.181 8.573,381.066 8.789,380.935 8.907 C 380.804 9.024,380.801 8.940,380.928 8.720 C 381.081 8.453,380.932 8.320,380.480 8.320 C 380.107 8.320,379.883 8.451,379.982 8.610 C 380.080 8.770,379.861 8.822,379.495 8.726 C 379.022 8.602,378.565 8.842,377.913 9.556 C 377.022 10.531,375.699 10.998,376.203 10.160 C 376.394 9.841,376.344 9.840,375.952 10.157 C 375.682 10.376,375.335 10.448,375.181 10.317 C 375.027 10.187,375.068 10.301,375.273 10.571 C 375.575 10.971,375.532 11.063,375.046 11.063 C 374.716 11.063,374.531 10.927,374.633 10.762 C 374.737 10.594,374.646 10.568,374.428 10.703 C 374.212 10.836,374.111 11.139,374.202 11.376 C 374.359 11.784,373.505 12.269,372.913 12.108 C 372.458 11.983,371.181 12.510,371.334 12.758 C 371.621 13.222,370.983 13.759,370.062 13.828 C 369.544 13.866,368.945 14.119,368.730 14.389 C 368.386 14.822,368.339 14.812,368.330 14.301 C 368.316 13.510,367.680 13.957,367.680 14.758 C 367.680 15.146,367.540 15.311,367.324 15.178 C 367.129 15.057,366.857 15.138,366.722 15.357 C 366.586 15.577,365.883 15.748,365.157 15.738 C 364.433 15.728,363.840 15.860,363.840 16.031 C 363.840 16.222,363.593 16.210,363.200 16.000 C 362.840 15.807,362.560 15.787,362.560 15.954 C 362.560 16.117,362.201 16.341,361.762 16.451 C 361.323 16.561,360.999 16.823,361.042 17.033 C 361.094 17.288,360.613 17.411,359.600 17.403 C 358.764 17.396,358.080 17.505,358.080 17.645 C 358.080 17.785,357.875 17.821,357.625 17.725 C 357.143 17.540,355.718 18.743,355.958 19.132 C 356.035 19.257,355.245 19.355,354.201 19.349 C 352.686 19.339,352.339 19.429,352.479 19.794 C 352.618 20.154,352.559 20.171,352.205 19.877 C 351.854 19.586,351.713 19.611,351.567 19.992 C 351.464 20.260,351.196 20.478,350.970 20.475 C 350.679 20.472,350.700 20.371,351.040 20.131 C 351.467 19.829,351.467 19.807,351.040 19.929 C 350.776 20.004,350.599 20.289,350.647 20.562 C 350.745 21.122,347.849 21.490,347.017 21.024 C 346.702 20.848,346.560 20.933,346.560 21.298 C 346.560 21.626,346.386 21.762,346.103 21.653 C 345.852 21.557,345.468 21.694,345.249 21.957 C 344.931 22.341,344.934 22.417,345.266 22.338 C 345.494 22.284,345.723 22.424,345.776 22.648 C 345.829 22.872,345.801 22.916,345.715 22.744 C 345.618 22.553,345.272 22.541,344.820 22.712 C 344.414 22.867,343.701 22.951,343.234 22.900 C 342.767 22.848,342.306 22.933,342.210 23.088 C 342.114 23.244,341.897 23.285,341.728 23.180 C 341.222 22.867,338.240 22.784,338.240 23.083 C 338.240 23.235,338.024 23.360,337.760 23.360 C 337.496 23.360,337.280 23.208,337.280 23.021 C 337.280 22.835,337.138 22.770,336.964 22.878 C 336.790 22.985,336.724 22.873,336.818 22.628 C 336.912 22.383,336.731 21.979,336.415 21.731 C 335.881 21.312,335.873 21.325,336.299 21.920 C 336.696 22.475,336.654 22.466,335.979 21.856 C 332.825 19.006,332.495 18.756,333.003 19.600 C 333.194 19.919,333.144 19.920,332.752 19.603 C 332.482 19.384,332.187 19.280,332.096 19.371 C 332.005 19.461,331.749 19.316,331.526 19.048 C 331.250 18.714,331.235 18.560,331.481 18.560 C 331.678 18.560,331.588 18.297,331.280 17.975 C 330.972 17.653,330.540 17.453,330.320 17.529 C 330.100 17.606,329.920 17.501,329.920 17.295 C 329.920 17.090,329.740 17.024,329.520 17.148 C 329.204 17.327,329.202 17.285,329.512 16.951 C 329.978 16.448,328.169 15.040,327.057 15.040 C 326.617 15.040,326.400 14.832,326.400 14.410 C 326.400 14.043,326.233 13.840,326.000 13.923 C 325.780 14.001,325.251 13.594,324.825 13.018 C 324.249 12.241,323.828 11.986,323.189 12.031 C 322.497 12.078,322.336 11.957,322.365 11.409 C 322.394 10.842,322.213 10.723,321.280 10.701 C 319.565 10.660,318.720 10.293,318.951 9.691 C 319.086 9.339,319.025 9.251,318.761 9.415 C 318.529 9.558,317.814 9.197,316.987 8.520 C 316.226 7.895,315.490 7.487,315.354 7.612 C 315.217 7.738,315.176 7.552,315.262 7.200 C 315.405 6.613,315.262 6.562,313.549 6.583 C 312.297 6.598,311.680 6.479,311.680 6.222 C 311.680 5.726,310.761 4.969,310.108 4.927 C 309.829 4.909,309.240 4.871,308.800 4.842 C 307.701 4.771,306.916 4.240,307.423 3.912 C 307.676 3.748,307.705 3.502,307.508 3.192 C 307.247 2.778,307.209 2.779,307.200 3.200 C 307.194 3.483,307.093 3.548,306.955 3.360 C 306.826 3.184,306.108 3.026,305.360 3.008 C 301.651 2.921,301.673 2.926,301.859 2.215 C 301.988 1.722,301.911 1.596,301.565 1.729 C 301.304 1.829,301.010 1.687,300.903 1.408 C 300.749 1.006,300.659 0.991,300.449 1.330 C 300.243 1.664,300.103 1.671,299.797 1.365 C 299.512 1.080,299.294 1.069,298.984 1.327 C 298.751 1.520,298.560 1.543,298.560 1.377 C 298.560 1.211,297.820 1.097,296.916 1.124 C 295.511 1.165,295.247 1.078,295.102 0.523 C 294.936 -0.111,294.927 -0.112,294.689 0.497 C 294.477 1.037,294.442 1.045,294.422 0.560 C 294.390 -0.239,258.240 -0.319,258.240 0.480 M361.251 47.805 C 361.555 48.171,361.386 48.273,360.307 48.376 C 359.584 48.445,358.922 48.389,358.837 48.251 C 358.752 48.113,359.051 48.000,359.501 48.000 C 359.952 48.000,360.320 47.856,360.320 47.680 C 360.320 47.219,360.821 47.286,361.251 47.805 M15.528 69.747 C 15.413 69.933,15.551 70.173,15.834 70.282 C 16.537 70.552,16.756 70.255,16.196 69.790 C 15.881 69.528,15.672 69.515,15.528 69.747 M366.741 76.295 C 366.521 76.560,366.491 76.819,366.668 76.928 C 366.833 77.030,367.135 76.911,367.339 76.665 C 367.559 76.400,367.589 76.141,367.412 76.032 C 367.247 75.930,366.945 76.049,366.741 76.295 M359.966 109.503 C 359.797 109.820,359.585 110.080,359.497 110.080 C 359.409 110.080,359.467 109.828,359.626 109.520 C 359.784 109.212,359.850 108.744,359.772 108.480 C 359.651 108.067,359.676 108.065,359.953 108.463 C 360.163 108.764,360.167 109.127,359.966 109.503 M81.280 270.769 C 81.280 271.328,81.359 271.373,81.760 271.040 C 82.024 270.821,82.240 270.603,82.240 270.555 C 82.240 270.507,82.024 270.386,81.760 270.284 C 81.428 270.157,81.280 270.306,81.280 270.769 M39.787 281.729 C 39.787 281.977,39.979 282.105,40.213 282.015 C 40.448 281.925,40.640 281.723,40.640 281.566 C 40.640 281.409,40.448 281.280,40.213 281.280 C 39.979 281.280,39.787 281.482,39.787 281.729 " stroke="none" fill="#fcfcfc" fill-rule="evenodd"></path><path id="path1" d="" stroke="none" fill="#100fcfc" fill-rule="evenodd"></path><path id="path2" d="" stroke="none" fill="#100fcfc" fill-rule="evenodd"></path><path id="path3" d="" stroke="none" fill="#100fcfc" fill-rule="evenodd"></path><path id="path4" d="" stroke="none" fill="#100fcfc" fill-rule="evenodd"></path></g></svg>